{
classes = (
{
automatic = 1;
code = "alef-ar alef-ar.fina alefHamzaabove-ar alefHamzaabove-ar.fina alefHamzabelow-ar alefHamzabelow-ar.fina alefMadda-ar alefMadda-ar.fina alefMaksura-ar alefWasla-ar alefWasla-ar.fina dal-ar dal-ar.fina ddal-ar hehgoalHamzaabove-ar jeh-ar lam_alef-ar lam_alef-ar.fina lam_alefHamzaabove-ar lam_alefHamzaabove-ar.fina lam_alefHamzabelow-ar lam_alefHamzabelow-ar.fina lam_alefMadda-ar lam_alefMadda-ar.fina lam_alefWasla-ar lam_alefWasla-ar.fina noonghunna-ar noonghunna-ar.fina reh-ar reh-ar.fina rreh-ar tehMarbuta-ar tehMarbutagoal-ar thal-ar thal-ar.fina waw-ar waw-ar.fina wawHamzaabove-ar wawHamzaabove-ar.fina zain-ar zain-ar.fina";
name = ArabicLetters;
},
{
automatic = 1;

glyphs = (
{
glyphname = "dotlessbeh-ar";
lastChange = "2016-03-27 02:14:10 +0000";
layers = (
{
anchors = (
{
name = bottom;
position = "{889, -227}";
},
{
name = top;
position = "{836, 861}";
}
);
layerId = "93A312F7-B931-4485-B08E-C367313EB5E7";
name = SemiLight;
paths = (
{
closed = 1;
nodes = (
"798 -56 OFFCURVE",
"967 -44 OFFCURVE",
"1141 -13 CURVE SMOOTH",
"1443 35 OFFCURVE",
"1686 126 OFFCURVE",
"1686 412 CURVE SMOOTH",
"1686 504 OFFCURVE",
"1616 788 OFFCURVE",
"1574 964 CURVE SMOOTH",
"1571 976 OFFCURVE",
"1561 977 OFFCURVE",
"1551 968 CURVE SMOOTH",
"1448 864 LINE SMOOTH",
"1442 857 OFFCURVE",
"1440 850 OFFCURVE",
"1442 841 CURVE SMOOTH",
"1570 292 LINE SMOOTH",
"1572 282 OFFCURVE",
"1570 275 OFFCURVE",
"1559 270 CURVE SMOOTH",
"1418 208 OFFCURVE",
"1068 126 OFFCURVE",
"750 132 CURVE SMOOTH",
"480 137 OFFCURVE",
"256 212 OFFCURVE",
"279 443 CURVE SMOOTH",
"293 587 LINE SMOOTH",
"294 597 OFFCURVE",
"289 604 OFFCURVE",
"278 605 CURVE SMOOTH",
"215 611 LINE SMOOTH",
"205 612 OFFCURVE",
"197 605 OFFCURVE",
"195 595 CURVE SMOOTH",
"178 443 LINE SMOOTH",
"138 94 OFFCURVE",
"301 -43 OFFCURVE",
"666 -53 CURVE SMOOTH"
);
}
);
width = 1824;
},
{
anchors = (
{
name = bottom;
position = "{907, -247}";
},
{
name = top;
position = "{854, 871}";
}
);
layerId = "00FED3EE-B3F5-49E6-B91A-35FC52169726";
name = Regular;
paths = (
{
closed = 1;
nodes = (
"381 -54 OFFCURVE",
"724 -54 CURVE SMOOTH",
"849 -54 OFFCURVE",
"1003 -37 OFFCURVE",
"1161 -13 CURVE SMOOTH",
"1464 35 OFFCURVE",
"1714 129 OFFCURVE",
"1714 422 CURVE SMOOTH",
"1714 515 OFFCURVE",
"1644 800 OFFCURVE",
"1602 976 CURVE SMOOTH",
"1599 988 OFFCURVE",
"1591 994 OFFCURVE",
"1581 994 CURVE SMOOTH",
"1575 994 OFFCURVE",
"1568 991 OFFCURVE",
"1562 985 CURVE SMOOTH",
"1458 881 LINE SMOOTH",
"1452 875 OFFCURVE",
"1449 867 OFFCURVE",
"1449 859 CURVE",
"1578 300 LINE",
"1580 293 OFFCURVE",
"1579 292 OFFCURVE",
"1573 289 CURVE SMOOTH",
"1438 230 OFFCURVE",
"1109 152 OFFCURVE",
"801 152 CURVE SMOOTH",
"538 152 OFFCURVE",
"305 211 OFFCURVE",
"305 422 CURVE SMOOTH",
"305 441 OFFCURVE",
"306 456 OFFCURVE",
"321 596 CURVE SMOOTH",
"323 612 OFFCURVE",
"313 623 OFFCURVE",
"297 625 CURVE SMOOTH",
"234 631 LINE SMOOTH",
"219 632 OFFCURVE",
"205 622 OFFCURVE",
"203 607 CURVE SMOOTH",
"184 442 OFFCURVE",
"180 401 OFFCURVE",
"180 357 CURVE SMOOTH",
"180 52 OFFCURVE"
);
}
);
width = 1854;
}
);
leftKerningGroup = all;
unicode = 066E;
userData = {
com.typemytype.robofont.guides = (
{
angle = 0;
isGlobal = 0;
x = 383;
y = 1092;
}
);
};
},
{
glyphname = "hamza-ar";
lastChange = "2016-03-27 02:14:10 +0000";
layers = (
{
anchors = (
{
name = bottom;
position = "{521, -199}";
},
{
name = top;
position = "{521, 925}";
}
);
layerId = "93A312F7-B931-4485-B08E-C367313EB5E7";
name = SemiLight;
paths = (
{
closed = 1;
nodes = (
"436 81 OFFCURVE",
"631 195 OFFCURVE",
"857 315 CURVE SMOOTH",
"866 320 OFFCURVE",
"871 327 OFFCURVE",
"869 336 CURVE SMOOTH",
"861 466 LINE SMOOTH",
"860 478 OFFCURVE",
"852 484 OFFCURVE",
"841 477 CURVE SMOOTH",
"494 271 LINE SMOOTH",
"486 267 OFFCURVE",
"477 267 OFFCURVE",
"470 274 CURVE SMOOTH",
"271 457 LINE SMOOTH",
"263 465 OFFCURVE",
"262 473 OFFCURVE",
"269 481 CURVE SMOOTH",
"370 599 OFFCURVE",
"507 619 OFFCURVE",
"652 614 CURVE SMOOTH",
"664 613 OFFCURVE",
"670 620 OFFCURVE",
"669 630 CURVE SMOOTH",
"658 719 LINE SMOOTH",
"657 728 OFFCURVE",
"653 735 OFFCURVE",
"643 738 CURVE SMOOTH",
"421 802 OFFCURVE",
"173 667 OFFCURVE",
"173 447 CURVE SMOOTH",
"173 351 OFFCURVE",
"275 248 OFFCURVE",
"346 195 CURVE SMOOTH",
"357 187 OFFCURVE",
"355 178 OFFCURVE",
"345 171 CURVE SMOOTH",
"224 98 LINE SMOOTH",
"216 93 OFFCURVE",
"213 87 OFFCURVE",
"213 77 CURVE SMOOTH",
"212 -26 LINE SMOOTH",
"212 -40 OFFCURVE",
"221 -46 OFFCURVE",
"232 -39 CURVE SMOOTH"
);
}
);
width = 1007;
},
{
anchors = (
{
name = bottom;
position = "{538, -229}";
},
{
name = top;
position = "{538, 985}";
}
);
layerId = "00FED3EE-B3F5-49E6-B91A-35FC52169726";
name = Regular;
paths = (
{
closed = 1;
nodes = (
"879 316 LINE",
"889 322 OFFCURVE",
"896 330 OFFCURVE",
"896 338 CURVE",
"888 477 LINE",
"887 494 OFFCURVE",
"876 507 OFFCURVE",
"853 495 CURVE SMOOTH",
"507 290 LINE SMOOTH",
"502 287 OFFCURVE",
"497 288 OFFCURVE",
"494 291 CURVE SMOOTH",
"295 474 LINE SMOOTH",
"290 479 OFFCURVE",
"290 481 OFFCURVE",
"294 484 CURVE SMOOTH",
"383 589 OFFCURVE",
"501 615 OFFCURVE",
"630 615 CURVE SMOOTH",
"668 615 OFFCURVE",
"700 612 OFFCURVE",
"696 641 CURVE SMOOTH",
"685 730 LINE SMOOTH",
"683 744 OFFCURVE",
"676 754 OFFCURVE",
"663 758 CURVE SMOOTH",
"624 769 OFFCURVE",
"584 774 OFFCURVE",
"546 774 CURVE SMOOTH",
"351 774 OFFCURVE",
"180 639 OFFCURVE",
"180 457 CURVE SMOOTH",
"180 357 OFFCURVE",
"286 250 OFFCURVE",
"357 197 CURVE SMOOTH",
"361 194 OFFCURVE",
"362 192 OFFCURVE",
"356 189 CURVE SMOOTH",
"236 117 LINE SMOOTH",
"225 110 OFFCURVE",
"220 100 OFFCURVE",
"220 87 CURVE SMOOTH",
"219 -16 LINE SMOOTH",
"219 -38 OFFCURVE",
"237 -47 OFFCURVE",
"254 -37 CURVE"
);
}
);
width = 1036;
}
);
leftKerningGroup = all;
unicode = 0621;
},
{
glyphname = "alef-ar";
lastChange = "2016-03-27 02:01:26 +0000";
layers = (
{
anchors = (
{
name = bottom;
position = "{293, -207}";
},
{
name = top;
position = "{259, 1707}";
}
);
layerId = "93A312F7-B931-4485-B08E-C367313EB5E7";
name = SemiLight;
paths = (
{
closed = 1;
nodes = (
"344 -3 LINE SMOOTH",
"350 -1 OFFCURVE",
"354 3 OFFCURVE",
"354 12 CURVE SMOOTH",
"346 1519 LINE SMOOTH",
"346 1538 OFFCURVE",
"330 1546 OFFCURVE",
"315 1538 CURVE SMOOTH",
"181 1465 LINE SMOOTH",
"176 1463 OFFCURVE",
"173 1458 OFFCURVE",
"173 1451 CURVE SMOOTH",
"232 -15 LINE SMOOTH",
"232 -29 OFFCURVE",
"246 -38 OFFCURVE",
"259 -33 CURVE SMOOTH"
);
}
);
width = 492;
},
{
anchors = (
{
name = bottom;
position = "{310, -237}";
},
{
name = top;
position = "{276, 1757}";
}
);
layerId = "00FED3EE-B3F5-49E6-B91A-35FC52169726";
name = Regular;
paths = (
{
closed = 1;
nodes = (
"364 -2 LINE SMOOTH",
"375 1 OFFCURVE",
"381 10 OFFCURVE",
"381 22 CURVE SMOOTH",
"373 1529 LINE SMOOTH",
"373 1555 OFFCURVE",
"350 1568 OFFCURVE",
"327 1557 CURVE SMOOTH",
"190 1482 LINE SMOOTH",
"183 1478 OFFCURVE",
"180 1470 OFFCURVE",
"180 1461 CURVE SMOOTH",
"239 -5 LINE SMOOTH",
"240 -23 OFFCURVE",
"254 -39 OFFCURVE",
"280 -32 CURVE SMOOTH"
);
}
);
width = 521;
}
);
leftKerningGroup = a;
unicode = 0627;
},
{
glyphname = "alef-ar.fina";
lastChange = "2016-03-15 08:11:47 +0000";
layers = (
{
anchors = (
{
name = bottom;
position = "{486, -173}";
},
{
name = top;
position = "{253, 1702}";
}
);
layerId = "93A312F7-B931-4485-B08E-C367313EB5E7";
name = SemiLight;
paths = (
{
closed = 1;
nodes = (
"685 0 LINE",
"733 60 OFFCURVE",
"733 119 OFFCURVE",
"685 179 CURVE",
"599 179 LINE SMOOTH",
"545 179 OFFCURVE",
"436 200 OFFCURVE",
"366 243 CURVE SMOOTH",
"358 247 OFFCURVE",
"354 253 OFFCURVE",
"354 263 CURVE SMOOTH",
"335 1520 LINE SMOOTH",
"335 1534 OFFCURVE",
"327 1540 OFFCURVE",
"314 1532 CURVE SMOOTH",
"183 1449 LINE SMOOTH",
"175 1443 OFFCURVE",
"173 1439 OFFCURVE",
"173 1428 CURVE SMOOTH",
"225 393 LINE SMOOTH",
"239 123 OFFCURVE",
"307 0 OFFCURVE",
"551 0 CURVE SMOOTH"
);
}
);
width = 666;
},
{
anchors = (
{
name = bottom;
position = "{503, -203}";
},
{
name = top;
position = "{270, 1732}";
}
);
layerId = "00FED3EE-B3F5-49E6-B91A-35FC52169726";
name = Regular;
paths = (
{
closed = 1;
nodes = (
"707 0 LINE",
"735 33 OFFCURVE",
"748 66 OFFCURVE",
"748 100 CURVE SMOOTH",
"748 133 OFFCURVE",
"735 166 OFFCURVE",
"707 199 CURVE",
"616 199 LINE SMOOTH",
"563 199 OFFCURVE",
"457 219 OFFCURVE",
"388 262 CURVE SMOOTH",
"383 265 OFFCURVE",
"381 266 OFFCURVE",
"381 273 CURVE SMOOTH",
"362 1530 LINE SMOOTH",
"362 1549 OFFCURVE",
"351 1563 OFFCURVE",
"326 1551 CURVE SMOOTH",
"195 1467 LINE SMOOTH",
"184 1461 OFFCURVE",
"180 1454 OFFCURVE",
"180 1442 CURVE",
"232 402 LINE",
"247 106 OFFCURVE",
"334 0 OFFCURVE",
"568 0 CURVE SMOOTH"
);
}
);
width = 683;
}
);
unicode = FE8E;
},
{
glyphname = "alef-ar.short";
lastChange = "2016-04-11 23:52:08 +0000";
layers = (
{
anchors = (
{
name = bottom;
position = "{293, -206}";
},
{
name = top;
position = "{259, 1533}";
}
);
layerId = "93A312F7-B931-4485-B08E-C367313EB5E7";
name = SemiLight;
paths = (
{
closed = 1;
nodes = (
"344 -3 LINE SMOOTH",
"350 -1 OFFCURVE",
"354 3 OFFCURVE",
"354 12 CURVE SMOOTH",
"346 1347 LINE SMOOTH",
"346 1365 OFFCURVE",
"330 1373 OFFCURVE",
"315 1365 CURVE SMOOTH",
"181 1293 LINE SMOOTH",
"176 1290 OFFCURVE",
"173 1286 OFFCURVE",
"173 1279 CURVE SMOOTH",
"232 -15 LINE SMOOTH",
"233 -29 OFFCURVE",
"246 -38 OFFCURVE",
"259 -33 CURVE SMOOTH"
);
}
);
width = 492;
},
{
anchors = (
{
name = bottom;
position = "{303, -216}";
},
{
name = top;
position = "{269, 1573}";
}
);
components = (
{
name = "alef-ar";
transform = "{1, 0, 0, 0.893, 0, 0}";
}
);
layerId = "00FED3EE-B3F5-49E6-B91A-35FC52169726";
name = Regular;
width = 521;
}
);
leftKerningGroup = a;
userData = {
com.typemytype.robofont.guides = (
{
angle = 0;
isGlobal = 0;
x = 293;
y = 1187;
}
);
};
},
{
glyphname = "alef-ar.fina.short";
lastChange = "2016-03-15 08:12:21 +0000";
layers = (
{
anchors = (
{
name = bottom;
position = "{469, -173}";
},
{
name = top;
position = "{339, 1523}";
}
);
layerId = "93A312F7-B931-4485-B08E-C367313EB5E7";
name = SemiLight;
paths = (
{
closed = 1;
nodes = (
"686 0 LINE",
"734 60 OFFCURVE",
"734 119 OFFCURVE",
"686 179 CURVE",
"599 179 LINE SMOOTH",
"545 179 OFFCURVE",
"436 200 OFFCURVE",
"366 243 CURVE SMOOTH",
"358 247 OFFCURVE",
"354 253 OFFCURVE",
"354 263 CURVE SMOOTH",
"335 1336 LINE SMOOTH",
"335 1350 OFFCURVE",
"327 1356 OFFCURVE",
"314 1348 CURVE SMOOTH",
"183 1265 LINE SMOOTH",
"175 1259 OFFCURVE",
"172 1255 OFFCURVE",
"173 1244 CURVE SMOOTH",
"225 393 LINE SMOOTH",
"243 123 OFFCURVE",
"307 0 OFFCURVE",
"551 0 CURVE SMOOTH"
);
}
);
width = 666;
},
{
anchors = (
{
name = bottom;
position = "{486, -193}";
},
{
name = top;
position = "{286, 1533}";
}
);
layerId = "00FED3EE-B3F5-49E6-B91A-35FC52169726";
name = Regular;
paths = (
{
closed = 1;
nodes = (
"707 0 LINE",
"735 33 OFFCURVE",
"748 66 OFFCURVE",
"748 100 CURVE SMOOTH",
"748 133 OFFCURVE",
"735 166 OFFCURVE",
"707 199 CURVE",
"616 199 LINE SMOOTH",
"563 199 OFFCURVE",
"457 219 OFFCURVE",
"388 262 CURVE SMOOTH",
"383 265 OFFCURVE",
"381 266 OFFCURVE",
"381 273 CURVE SMOOTH",
"362 1324 LINE SMOOTH",
"362 1343 OFFCURVE",
"346 1358 OFFCURVE",
"326 1345 CURVE SMOOTH",
"195 1261 LINE SMOOTH",
"184 1255 OFFCURVE",
"180 1248 OFFCURVE",
"180 1236 CURVE",
"232 402 LINE",
"251 106 OFFCURVE",
"334 0 OFFCURVE",
"568 0 CURVE SMOOTH"
);
}
);
width = 683;
}
);
userData = {
com.schriftgestaltung.Glyphs.rightMetricsKey = z;
com.typemytype.robofont.guides = (
{
angle = 0;
isGlobal = 0;
x = 285;
y = 1176;
}
);
};
},
{
glyphname = "dotlessbeh-ar.fina";
lastChange = "2016-03-15 08:14:09 +0000";
layers = (
{
anchors = (
{
name = bottom;
position = "{889, -227}";
},
{
name = top;
position = "{836, 861}";
}
);
layerId = "93A312F7-B931-4485-B08E-C367313EB5E7";
name = SemiLight;
paths = (
{
closed = 1;
nodes = (
"969 -60 OFFCURVE",
"1502 16 OFFCURVE",
"1624 161 CURVE SMOOTH",
"1633 171 OFFCURVE",
"1641 170 OFFCURVE",
"1647 159 CURVE SMOOTH",
"1705 52 OFFCURVE",
"1828 0 OFFCURVE",
"1948 0 CURVE SMOOTH",
"2014 0 LINE",
"2062 60 OFFCURVE",
"2062 119 OFFCURVE",
"2014 179 CURVE",
"1948 179 LINE SMOOTH",
"1792 179 OFFCURVE",
"1689 239 OFFCURVE",
"1666 414 CURVE SMOOTH",
"1625 721 LINE SMOOTH",
"1624 734 OFFCURVE",
"1611 739 OFFCURVE",
"1602 729 CURVE SMOOTH",
"1510 634 LINE SMOOTH",
"1504 627 OFFCURVE",
"1502 620 OFFCURVE",
"1503 611 CURVE SMOOTH",
"1558 267 LINE SMOOTH",
"1559 256 OFFCURVE",
"1557 250 OFFCURVE",
"1547 246 CURVE SMOOTH",
"1387 189 OFFCURVE",
"1029 128 OFFCURVE",
"750 133 CURVE SMOOTH",
"480 139 OFFCURVE",
"256 213 OFFCURVE",
"279 444 CURVE SMOOTH",
"293 588 LINE SMOOTH",
"294 598 OFFCURVE",
"289 605 OFFCURVE",
"278 606 CURVE SMOOTH",
"215 612 LINE SMOOTH",
"205 613 OFFCURVE",
"197 606 OFFCURVE",
"195 596 CURVE SMOOTH",
"178 444 LINE SMOOTH",
"138 95 OFFCURVE",
"301 -45 OFFCURVE",
"666 -53 CURVE SMOOTH"
);
}
);
width = 1994;
},
{
anchors = (
{
name = bottom;
position = "{907, -247}";
},
{
name = top;
position = "{854, 871}";
}
);
layerId = "00FED3EE-B3F5-49E6-B91A-35FC52169726";
name = Regular;
paths = (
{
closed = 1;
nodes = (
"180 48 OFFCURVE",
"381 -53 OFFCURVE",
"718 -53 CURVE SMOOTH",
"1027 -53 OFFCURVE",
"1530 22 OFFCURVE",
"1650 165 CURVE SMOOTH",
"1654 169 OFFCURVE",
"1654 169 OFFCURVE",
"1656 164 CURVE SMOOTH",
"1711 63 OFFCURVE",
"1830 0 OFFCURVE",
"1966 0 CURVE SMOOTH",
"2037 0 LINE",
"2065 33 OFFCURVE",
"2078 66 OFFCURVE",
"2078 100 CURVE SMOOTH",
"2078 133 OFFCURVE",
"2065 166 OFFCURVE",
"2037 199 CURVE",
"1966 199 LINE SMOOTH",
"1799 199 OFFCURVE",
"1715 270 OFFCURVE",
"1694 425 CURVE SMOOTH",
"1653 732 LINE SMOOTH",
"1650 754 OFFCURVE",
"1626 761 OFFCURVE",
"1613 746 CURVE SMOOTH",
"1521 651 LINE SMOOTH",
"1516 645 OFFCURVE",
"1511 637 OFFCURVE",
"1511 626 CURVE",
"1566 275 LINE",
"1567 268 OFFCURVE",
"1565 267 OFFCURVE",
"1561 265 CURVE SMOOTH",
"1409 212 OFFCURVE",
"1078 153 OFFCURVE",
"806 153 CURVE SMOOTH",
"546 153 OFFCURVE",
"305 208 OFFCURVE",
"305 423 CURVE SMOOTH",
"305 451 OFFCURVE",
"307 478 OFFCURVE",
"321 597 CURVE SMOOTH",
"323 613 OFFCURVE",
"313 624 OFFCURVE",
"297 626 CURVE SMOOTH",
"234 632 LINE SMOOTH",
"219 633 OFFCURVE",
"205 624 OFFCURVE",
"203 608 CURVE SMOOTH",
"184 441 OFFCURVE",
"180 401 OFFCURVE",
"180 357 CURVE SMOOTH"
);
}
);
width = 2013;
}
);
},
{
glyphname = "dotlessbeh-ar.medi";
lastChange = "2016-03-15 08:14:25 +0000";
layers = (
{
anchors = (
{
name = bottom;
position = "{370, -178}";
},
{
name = top;
position = "{529, 790}";
}
);
layerId = "93A312F7-B931-4485-B08E-C367313EB5E7";
name = SemiLight;
paths = (
{
closed = 1;
nodes = (
"44 0 LINE SMOOTH",
"168 0 OFFCURVE",
"324 15 OFFCURVE",
"440 120 CURVE SMOOTH",
"448 126 OFFCURVE",
"457 126 OFFCURVE",
"465 118 CURVE SMOOTH",
"550 29 OFFCURVE",
"710 0 OFFCURVE",
"883 0 CURVE SMOOTH",
"933 0 LINE",
"981 60 OFFCURVE",
"981 119 OFFCURVE",
"933 179 CURVE",
"867 179 LINE SMOOTH",
"788 179 OFFCURVE",
"646 197 OFFCURVE",
"567 224 CURVE SMOOTH",
"558 228 OFFCURVE",
"554 235 OFFCURVE",
"555 245 CURVE SMOOTH",
"580 591 LINE SMOOTH",
"581 601 OFFCURVE",
"576 610 OFFCURVE",
"566 611 CURVE SMOOTH",
"504 614 LINE SMOOTH",
"493 615 OFFCURVE",
"484 610 OFFCURVE",
"483 599 CURVE SMOOTH",
"454 357 LINE SMOOTH",
"434 189 OFFCURVE",
"182 179 OFFCURVE",
"51 179 CURVE SMOOTH",
"-20 179 LINE SMOOTH",
"-138 179 OFFCURVE",
"-138 0 OFFCURVE",
"-20 0 CURVE SMOOTH"
);
}
);
width = 913;
},
{
anchors = (
{
name = bottom;
position = "{370, -188}";
},
{
name = top;
position = "{529, 840}";
}
);
layerId = "00FED3EE-B3F5-49E6-B91A-35FC52169726";
name = Regular;
paths = (
{
closed = 1;
nodes = (
"44 0 LINE SMOOTH",
"168 0 OFFCURVE",
"328 15 OFFCURVE",
"447 123 CURVE SMOOTH",
"450 125 OFFCURVE",
"454 125 OFFCURVE",
"458 121 CURVE SMOOTH",
"545 30 OFFCURVE",
"709 0 OFFCURVE",
"883 0 CURVE SMOOTH",
"938 0 LINE",
"966 33 OFFCURVE",
"979 66 OFFCURVE",
"979 100 CURVE SMOOTH",
"979 133 OFFCURVE",
"966 166 OFFCURVE",
"938 199 CURVE",
"867 199 LINE SMOOTH",
"789 199 OFFCURVE",
"648 217 OFFCURVE",
"570 243 CURVE SMOOTH",
"566 245 OFFCURVE",
"565 246 OFFCURVE",
"565 250 CURVE SMOOTH",
"565 251 OFFCURVE",
"565 252 OFFCURVE",
"565 254 CURVE SMOOTH",
"590 600 LINE SMOOTH",
"591 616 OFFCURVE",
"582 630 OFFCURVE",
"567 631 CURVE SMOOTH",
"504 634 LINE SMOOTH",
"488 635 OFFCURVE",
"475 626 OFFCURVE",
"473 610 CURVE SMOOTH",
"444 368 LINE SMOOTH",
"425 209 OFFCURVE",
"182 199 OFFCURVE",
"51 199 CURVE SMOOTH",
"-20 199 LINE SMOOTH",
"-86 199 OFFCURVE",
"-118 149 OFFCURVE",
"-118 100 CURVE SMOOTH",
"-118 50 OFFCURVE",
"-86 0 OFFCURVE",
"-20 0 CURVE SMOOTH"
);
}
);
width = 914;
}
);
},
{
glyphname = "dotlessbeh-ar.init";
lastChange = "2016-03-27 02:14:10 +0000";
layers = (
{
anchors = (
{
name = bottom;
position = "{292, -179}";
},
{
name = top;
position = "{415, 1128}";
}
);
layerId = "93A312F7-B931-4485-B08E-C367313EB5E7";
name = SemiLight;
paths = (
{
closed = 1;
nodes = (
"393 0 OFFCURVE",
"608 105 OFFCURVE",
"608 389 CURVE SMOOTH",
"608 481 OFFCURVE",
"538 765 OFFCURVE",
"497 941 CURVE SMOOTH",
"493 953 OFFCURVE",
"483 954 OFFCURVE",
"474 945 CURVE SMOOTH",
"370 841 LINE SMOOTH",
"365 834 OFFCURVE",
"362 828 OFFCURVE",
"365 818 CURVE SMOOTH",
"492 281 LINE SMOOTH",
"494 270 OFFCURVE",
"492 263 OFFCURVE",
"482 259 CURVE SMOOTH",
"363 206 OFFCURVE",
"240 179 OFFCURVE",
"0 179 CURVE SMOOTH",
"-20 179 LINE SMOOTH",
"-138 179 OFFCURVE",
"-138 0 OFFCURVE",
"-20 0 CURVE SMOOTH",
"0 0 LINE SMOOTH"
);
}
);
width = 746;
},
{
anchors = (
{
name = bottom;
position = "{292, -199}";
},
{
name = top;
position = "{415, 1148}";
}
);
layerId = "00FED3EE-B3F5-49E6-B91A-35FC52169726";
name = Regular;
paths = (
{
closed = 1;
nodes = (
"424 0 OFFCURVE",
"618 125 OFFCURVE",
"618 399 CURVE SMOOTH",
"618 492 OFFCURVE",
"548 777 OFFCURVE",
"507 953 CURVE SMOOTH",
"502 974 OFFCURVE",
"481 976 OFFCURVE",
"467 962 CURVE SMOOTH",
"362 858 LINE SMOOTH",
"356 851 OFFCURVE",
"354 844 OFFCURVE",
"354 837 CURVE",
"482 289 LINE",
"484 281 OFFCURVE",
"483 280 OFFCURVE",
"478 278 CURVE SMOOTH",
"360 226 OFFCURVE",
"239 199 OFFCURVE",
"0 199 CURVE SMOOTH",
"-20 199 LINE SMOOTH",
"-86 199 OFFCURVE",
"-118 149 OFFCURVE",
"-118 100 CURVE SMOOTH",
"-118 50 OFFCURVE",
"-86 0 OFFCURVE",
"-20 0 CURVE SMOOTH",
"0 0 LINE SMOOTH"
);
}
);
width = 758;
}
);
leftKerningGroup = all;
},
{
glyphname = "peh-ar.init";
lastChange = "2016-03-12 22:02:11 +0000";
layers = (
{
anchors = (
{
name = top;
position = "{544, 1159}";
}
);
components = (
{
name = "threedotsdownbelow-ar";
transform = "{1, 0, 0, 1, 25, -24}";
}
);
layerId = "93A312F7-B931-4485-B08E-C367313EB5E7";
name = SemiLight;
paths = (
{
closed = 1;
nodes = (
"92 0 LINE SMOOTH",
"299 0 OFFCURVE",
"599 91 OFFCURVE",
"628 209 CURVE",
"651 278 OFFCURVE",
"665 361 OFFCURVE",
"665 423 CURVE SMOOTH",
"665 515 OFFCURVE",
"595 799 OFFCURVE",
"553 975 CURVE SMOOTH",
"550 988 OFFCURVE",
"539 989 OFFCURVE",
"530 980 CURVE SMOOTH",
"427 875 LINE SMOOTH",
"421 868 OFFCURVE",
"419 861 OFFCURVE",
"421 852 CURVE SMOOTH",
"568 319 LINE SMOOTH",
"576 290 OFFCURVE",
"563 279 OFFCURVE",
"544 271 CURVE SMOOTH",
"461 236 OFFCURVE",
"311 179 OFFCURVE",
"92 179 CURVE SMOOTH",
"-20 179 LINE SMOOTH",
"-138 179 OFFCURVE",
"-138 0 OFFCURVE",
"-20 0 CURVE SMOOTH"
);
}
);
width = 803;
},
{
anchors = (
{
name = top;
position = "{519, 1148}";
}
);
components = (
{
name = "dotlessbeh2-ar.init";
},
{
name = "threedotsdownbelow-ar";
transform = "{1, 0, 0, 1, -31, -48}";
}
);
layerId = "00FED3EE-B3F5-49E6-B91A-35FC52169726";
name = Regular;
width = 838;
}
);
unicode = FB58;
},
{
glyphname = "hah-ar";
lastChange = "2016-03-27 02:37:46 +0000";
layers = (
{
anchors = (
{
name = bottom;
position = "{805, -968}";
},
{
name = center;
position = "{870, 0}";
},
{
name = top;
position = "{447, 1042}";
}
);
layerId = "93A312F7-B931-4485-B08E-C367313EB5E7";
name = SemiLight;
paths = (
{
closed = 1;
nodes = (
"1235 -672 OFFCURVE",
"1281 -636 OFFCURVE",
"1336 -497 CURVE SMOOTH",
"1342 -482 OFFCURVE",
"1327 -470 OFFCURVE",
"1309 -474 CURVE SMOOTH",
"977 -542 OFFCURVE",
"478 -597 OFFCURVE",
"320 -312 CURVE SMOOTH",
"288 -251 OFFCURVE",
"277 -168 OFFCURVE",
"302 -66 CURVE SMOOTH",
"400 328 OFFCURVE",
"812 497 OFFCURVE",
"1228 503 CURVE SMOOTH",
"1235 503 OFFCURVE",
"1241 507 OFFCURVE",
"1243 513 CURVE SMOOTH",
"1298 681 LINE SMOOTH",
"1303 695 OFFCURVE",
"1293 708 OFFCURVE",
"1277 707 CURVE SMOOTH",
"946 690 OFFCURVE",
"784 780 OFFCURVE",
"614 833 CURVE SMOOTH",
"420 892 OFFCURVE",
"344 873 OFFCURVE",
"193 710 CURVE SMOOTH",
"189 705 OFFCURVE",
"187 700 OFFCURVE",
"189 695 CURVE SMOOTH",
"224 600 LINE SMOOTH",
"230 584 OFFCURVE",
"247 581 OFFCURVE",
"260 593 CURVE SMOOTH",
"376 708 OFFCURVE",
"422 703 OFFCURVE",
"541 666 CURVE SMOOTH",
"795 587 LINE",
"448 486 OFFCURVE",
"177 180 OFFCURVE",
"173 -183 CURVE SMOOTH",
"167 -743 OFFCURVE",
"615 -764 OFFCURVE",
"1037 -702 CURVE SMOOTH"
);
}
);
width = 1438;
},
{
anchors = (
{
name = bottom;
position = "{822, -928}";
},
{
name = center;
position = "{887, 10}";
},
{
name = top;
position = "{464, 1092}";
}
);
layerId = "00FED3EE-B3F5-49E6-B91A-35FC52169726";
name = Regular;
paths = (
{
closed = 1;
nodes = (
"1242 -673 OFFCURVE",
"1295 -646 OFFCURVE",
"1352 -501 CURVE SMOOTH",
"1358 -477 OFFCURVE",
"1343 -463 OFFCURVE",
"1322 -463 CURVE SMOOTH",
"1286 -463 OFFCURVE",
"1096 -518 OFFCURVE",
"852 -518 CURVE SMOOTH",
"562 -518 OFFCURVE",
"315 -420 OFFCURVE",
"315 -169 CURVE SMOOTH",
"315 229 OFFCURVE",
"714 496 OFFCURVE",
"1245 503 CURVE SMOOTH",
"1256 503 OFFCURVE",
"1266 510 OFFCURVE",
"1269 520 CURVE SMOOTH",
"1315 659 OFFCURVE",
"1326 692 OFFCURVE",
"1326 702 CURVE SMOOTH",
"1326 727 OFFCURVE",
"1279 725 OFFCURVE",
"1207 725 CURVE SMOOTH",
"824 725 OFFCURVE",
"668 884 OFFCURVE",
"470 884 CURVE SMOOTH",
"374 884 OFFCURVE",
"305 837 OFFCURVE",
"202 726 CURVE SMOOTH",
"194 718 OFFCURVE",
"194 712 OFFCURVE",
"197 701 CURVE SMOOTH",
"232 607 LINE SMOOTH",
"237 593 OFFCURVE",
"248 585 OFFCURVE",
"260 585 CURVE SMOOTH",
"268 585 OFFCURVE",
"277 589 OFFCURVE",
"284 596 CURVE SMOOTH",
"353 665 OFFCURVE",
"395 688 OFFCURVE",
"444 688 CURVE SMOOTH",
"483 688 OFFCURVE",
"492 684 OFFCURVE",
"798 597 CURVE",
"413 511 OFFCURVE",
"180 161 OFFCURVE",
"180 -185 CURVE SMOOTH",
"180 -615 OFFCURVE",
"444 -726 OFFCURVE",
"758 -726 CURVE SMOOTH",
"851 -726 OFFCURVE",
"949 -716 OFFCURVE",
"1045 -702 CURVE SMOOTH"
);
}
);
width = 1472;
}
);
unicode = 062D;
},
{
glyphname = "hah-ar.fina";
lastChange = "2016-03-15 08:22:10 +0000";
layers = (
{
anchors = (
{
name = bottom;
position = "{793, -945}";
},
{
name = center;
position = "{679, -120}";
},
{
name = top;
position = "{484, 1063}";
}
);
layerId = "93A312F7-B931-4485-B08E-C367313EB5E7";
name = SemiLight;
paths = (
{
closed = 1;
nodes = (
"1255 -669 OFFCURVE",
"1311 -633 OFFCURVE",
"1366 -494 CURVE SMOOTH",
"1372 -479 OFFCURVE",
"1357 -468 OFFCURVE",
"1339 -471 CURVE SMOOTH",
"1007 -535 OFFCURVE",
"478 -594 OFFCURVE",
"320 -309 CURVE SMOOTH",
"288 -248 OFFCURVE",
"277 -165 OFFCURVE",
"302 -63 CURVE SMOOTH",
"359 165 OFFCURVE",
"520 291 OFFCURVE",
"727 399 CURVE",
"811 145 OFFCURVE",
"977 0 OFFCURVE",
"1219 0 CURVE SMOOTH",
"1301 0 LINE",
"1349 60 OFFCURVE",
"1349 119 OFFCURVE",
"1301 179 CURVE",
"1235 179 LINE SMOOTH",
"1104 179 OFFCURVE",
"907 232 OFFCURVE",
"834 448 CURVE",
"958 497 OFFCURVE",
"1093 523 OFFCURVE",
"1228 526 CURVE SMOOTH",
"1235 526 OFFCURVE",
"1241 530 OFFCURVE",
"1243 536 CURVE SMOOTH",
"1298 704 LINE SMOOTH",
"1303 718 OFFCURVE",
"1293 731 OFFCURVE",
"1277 730 CURVE SMOOTH",
"946 713 OFFCURVE",
"784 803 OFFCURVE",
"614 856 CURVE SMOOTH",
"420 915 OFFCURVE",
"344 896 OFFCURVE",
"193 733 CURVE SMOOTH",
"189 728 OFFCURVE",
"187 723 OFFCURVE",
"189 718 CURVE SMOOTH",
"224 623 LINE SMOOTH",
"230 607 OFFCURVE",
"247 604 OFFCURVE",
"260 616 CURVE SMOOTH",
"376 731 OFFCURVE",
"422 726 OFFCURVE",
"541 689 CURVE SMOOTH",
"795 610 LINE",
"468 499 OFFCURVE",
"177 193 OFFCURVE",
"173 -180 CURVE SMOOTH",
"166 -740 OFFCURVE",
"635 -761 OFFCURVE",
"1057 -699 CURVE SMOOTH"
);
}
);
width = 1281;
},
{
anchors = (
{
name = bottom;
position = "{810, -935}";
},
{
name = center;
position = "{696, -110}";
},
{
name = top;
position = "{511, 1093}";
}
);
layerId = "00FED3EE-B3F5-49E6-B91A-35FC52169726";
name = Regular;
paths = (
{
closed = 1;
nodes = (
"1248 -672 OFFCURVE",
"1296 -642 OFFCURVE",
"1352 -501 CURVE SMOOTH",
"1358 -476 OFFCURVE",
"1344 -463 OFFCURVE",
"1322 -463 CURVE SMOOTH",
"1289 -463 OFFCURVE",
"1085 -517 OFFCURVE",
"845 -517 CURVE SMOOTH",
"555 -517 OFFCURVE",
"315 -418 OFFCURVE",
"315 -169 CURVE SMOOTH",
"315 80 OFFCURVE",
"490 296 OFFCURVE",
"737 406 CURVE",
"826 148 OFFCURVE",
"999 0 OFFCURVE",
"1236 0 CURVE SMOOTH",
"1323 0 LINE",
"1351 33 OFFCURVE",
"1364 66 OFFCURVE",
"1364 100 CURVE SMOOTH",
"1364 133 OFFCURVE",
"1351 166 OFFCURVE",
"1323 199 CURVE",
"1252 199 LINE SMOOTH",
"1124 199 OFFCURVE",
"937 249 OFFCURVE",
"864 452 CURVE",
"983 498 OFFCURVE",
"1113 500 OFFCURVE",
"1245 503 CURVE SMOOTH",
"1256 503 OFFCURVE",
"1266 510 OFFCURVE",
"1269 520 CURVE SMOOTH",
"1319 665 OFFCURVE",
"1327 685 OFFCURVE",
"1327 698 CURVE SMOOTH",
"1327 727 OFFCURVE",
"1279 725 OFFCURVE",
"1207 725 CURVE SMOOTH",
"824 725 OFFCURVE",
"668 884 OFFCURVE",
"471 884 CURVE SMOOTH",
"375 884 OFFCURVE",
"304 836 OFFCURVE",
"202 726 CURVE SMOOTH",
"194 718 OFFCURVE",
"194 711 OFFCURVE",
"197 701 CURVE SMOOTH",
"232 607 LINE SMOOTH",
"237 593 OFFCURVE",
"249 585 OFFCURVE",
"261 585 CURVE SMOOTH",
"269 585 OFFCURVE",
"277 589 OFFCURVE",
"284 596 CURVE SMOOTH",
"353 665 OFFCURVE",
"395 688 OFFCURVE",
"445 688 CURVE SMOOTH",
"484 688 OFFCURVE",
"498 682 OFFCURVE",
"798 597 CURVE",
"413 511 OFFCURVE",
"180 164 OFFCURVE",
"180 -182 CURVE SMOOTH",
"180 -614 OFFCURVE",
"447 -726 OFFCURVE",
"761 -726 CURVE SMOOTH",
"854 -726 OFFCURVE",
"950 -716 OFFCURVE",
"1045 -702 CURVE SMOOTH"
);
}
);
width = 1299;
}
);
unicode = FEA2;
},
{
glyphname = "hah-ar.medi";
lastChange = "2016-03-15 08:24:38 +0000";
layers = (
{
anchors = (
{
name = bottom;
position = "{770, -132}";
},
{
name = top;
position = "{516, 968}";
}
);
layerId = "93A312F7-B931-4485-B08E-C367313EB5E7";
name = SemiLight;
paths = (
{
closed = 1;
nodes = (
"352 0 OFFCURVE",
"679 146 OFFCURVE",
"964 253 CURVE SMOOTH",
"1012 271 OFFCURVE",
"1056 286 OFFCURVE",
"1095 298 CURVE",
"1193 141 OFFCURVE",
"1303 0 OFFCURVE",
"1561 0 CURVE SMOOTH",
"1627 0 LINE",
"1675 60 OFFCURVE",
"1675 119 OFFCURVE",
"1627 179 CURVE",
"1561 179 LINE SMOOTH",
"1402 179 OFFCURVE",
"1306 236 OFFCURVE",
"1245 328 CURVE",
"1312 335 OFFCURVE",
"1373 331 OFFCURVE",
"1446 323 CURVE SMOOTH",
"1456 322 OFFCURVE",
"1462 328 OFFCURVE",
"1465 337 CURVE SMOOTH",
"1521 508 LINE SMOOTH",
"1525 521 OFFCURVE",
"1520 529 OFFCURVE",
"1506 528 CURVE SMOOTH",
"1264 516 OFFCURVE",
"1068 603 OFFCURVE",
"852 690 CURVE SMOOTH",
"561 807 OFFCURVE",
"454 844 OFFCURVE",
"268 643 CURVE SMOOTH",
"261 635 OFFCURVE",
"261 629 OFFCURVE",
"263 620 CURVE SMOOTH",
"298 508 LINE SMOOTH",
"302 496 OFFCURVE",
"311 494 OFFCURVE",
"321 504 CURVE SMOOTH",
"399 587 OFFCURVE",
"442 618 OFFCURVE",
"503 618 CURVE SMOOTH",
"623 618 OFFCURVE",
"887 476 OFFCURVE",
"1074 435 CURVE",
"833 368 OFFCURVE",
"439 179 OFFCURVE",
"0 179 CURVE SMOOTH",
"-20 179 LINE SMOOTH",
"-138 179 OFFCURVE",
"-138 0 OFFCURVE",
"-20 0 CURVE SMOOTH",
"0 0 LINE SMOOTH"
);
}
);
width = 1607;
},
{
anchors = (
{
name = bottom;
position = "{770, -162}";
},
{
name = top;
position = "{536, 1018}";
}
);
layerId = "00FED3EE-B3F5-49E6-B91A-35FC52169726";
name = Regular;
paths = (
{
closed = 1;
nodes = (
"414 0 OFFCURVE",
"876 228 OFFCURVE",
"1091 296 CURVE",
"1188 141 OFFCURVE",
"1302 0 OFFCURVE",
"1561 0 CURVE SMOOTH",
"1632 0 LINE",
"1660 33 OFFCURVE",
"1673 66 OFFCURVE",
"1673 100 CURVE SMOOTH",
"1673 133 OFFCURVE",
"1660 166 OFFCURVE",
"1632 199 CURVE",
"1561 199 LINE SMOOTH",
"1424 199 OFFCURVE",
"1328 247 OFFCURVE",
"1263 336 CURVE",
"1292 339 OFFCURVE",
"1320 340 OFFCURVE",
"1348 340 CURVE SMOOTH",
"1379 340 OFFCURVE",
"1410 339 OFFCURVE",
"1445 335 CURVE",
"1459 334 OFFCURVE",
"1469 342 OFFCURVE",
"1474 356 CURVE",
"1531 515 LINE SMOOTH",
"1532 519 OFFCURVE",
"1533 523 OFFCURVE",
"1533 526 CURVE SMOOTH",
"1533 549 OFFCURVE",
"1497 547 OFFCURVE",
"1451 547 CURVE SMOOTH",
"1035 547 OFFCURVE",
"769 806 OFFCURVE",
"524 806 CURVE SMOOTH",
"434 806 OFFCURVE",
"357 764 OFFCURVE",
"261 660 CURVE SMOOTH",
"251 648 OFFCURVE",
"250 642 OFFCURVE",
"253 628 CURVE SMOOTH",
"288 515 LINE SMOOTH",
"292 503 OFFCURVE",
"300 497 OFFCURVE",
"309 497 CURVE SMOOTH",
"315 497 OFFCURVE",
"322 500 OFFCURVE",
"328 507 CURVE SMOOTH",
"409 593 OFFCURVE",
"449 618 OFFCURVE",
"503 618 CURVE SMOOTH",
"613 618 OFFCURVE",
"880 494 OFFCURVE",
"1064 444 CURVE",
"821 370 OFFCURVE",
"416 199 OFFCURVE",
"0 199 CURVE SMOOTH",
"-20 199 LINE SMOOTH",
"-86 199 OFFCURVE",
"-118 149 OFFCURVE",
"-118 100 CURVE SMOOTH",
"-118 50 OFFCURVE",
"-86 0 OFFCURVE",
"-20 0 CURVE SMOOTH",
"0 0 LINE SMOOTH"
);
}
);
width = 1608;
}
);
unicode = FEA4;
},
{
glyphname = "hah-ar.init";
lastChange = "2016-03-27 02:14:10 +0000";
layers = (
{
anchors = (
{
name = bottom;
position = "{719, -151}";
},
{
name = top;
position = "{508, 973}";
}
);
layerId = "93A312F7-B931-4485-B08E-C367313EB5E7";
name = SemiLight;
paths = (
{
closed = 1;
nodes = (
"340 0 OFFCURVE",
"679 146 OFFCURVE",
"964 253 CURVE SMOOTH",
"1188 338 OFFCURVE",
"1291 340 OFFCURVE",
"1446 323 CURVE SMOOTH",
"1456 323 OFFCURVE",
"1462 328 OFFCURVE",
"1465 337 CURVE SMOOTH",
"1521 508 LINE SMOOTH",
"1525 521 OFFCURVE",
"1520 528 OFFCURVE",
"1506 528 CURVE SMOOTH",
"1264 516 OFFCURVE",
"1068 603 OFFCURVE",
"852 690 CURVE SMOOTH",
"561 807 OFFCURVE",
"454 856 OFFCURVE",
"268 643 CURVE SMOOTH",
"261 635 OFFCURVE",
"261 629 OFFCURVE",
"263 620 CURVE SMOOTH",
"298 508 LINE SMOOTH",
"301 496 OFFCURVE",
"312 493 OFFCURVE",
"321 504 CURVE SMOOTH",
"399 587 OFFCURVE",
"442 618 OFFCURVE",
"503 618 CURVE SMOOTH",
"623 618 OFFCURVE",
"887 476 OFFCURVE",
"1074 435 CURVE",
"833 368 OFFCURVE",
"439 179 OFFCURVE",
"0 179 CURVE SMOOTH",
"-20 179 LINE SMOOTH",
"-138 179 OFFCURVE",
"-138 0 OFFCURVE",
"-20 0 CURVE SMOOTH",
"0 0 LINE SMOOTH"
);
}
);
width = 1661;
},
{
anchors = (
{
name = bottom;
position = "{719, -171}";
},
{
name = top;
position = "{538, 1013}";
}
);
layerId = "00FED3EE-B3F5-49E6-B91A-35FC52169726";
name = Regular;
paths = (
{
closed = 1;
nodes = (
"342 0 OFFCURVE",
"683 147 OFFCURVE",
"968 254 CURVE SMOOTH",
"1138 317 OFFCURVE",
"1236 340 OFFCURVE",
"1341 340 CURVE SMOOTH",
"1373 340 OFFCURVE",
"1407 338 OFFCURVE",
"1444 334 CURVE SMOOTH",
"1458 333 OFFCURVE",
"1468 341 OFFCURVE",
"1473 355 CURVE SMOOTH",
"1531 515 LINE SMOOTH",
"1532 519 OFFCURVE",
"1533 523 OFFCURVE",
"1533 526 CURVE SMOOTH",
"1533 549 OFFCURVE",
"1497 547 OFFCURVE",
"1451 547 CURVE SMOOTH",
"1042 547 OFFCURVE",
"769 806 OFFCURVE",
"524 806 CURVE SMOOTH",
"434 806 OFFCURVE",
"357 764 OFFCURVE",
"261 660 CURVE SMOOTH",
"251 648 OFFCURVE",
"250 642 OFFCURVE",
"253 628 CURVE SMOOTH",
"288 515 LINE SMOOTH",
"291 504 OFFCURVE",
"300 498 OFFCURVE",
"309 498 CURVE SMOOTH",
"315 498 OFFCURVE",
"323 501 OFFCURVE",
"329 508 CURVE SMOOTH",
"409 593 OFFCURVE",
"449 618 OFFCURVE",
"503 618 CURVE SMOOTH",
"613 618 OFFCURVE",
"880 494 OFFCURVE",
"1064 444 CURVE",
"821 370 OFFCURVE",
"416 199 OFFCURVE",
"0 199 CURVE SMOOTH",
"-20 199 LINE SMOOTH",
"-86 199 OFFCURVE",
"-118 149 OFFCURVE",
"-118 100 CURVE SMOOTH",
"-118 50 OFFCURVE",
"-86 0 OFFCURVE",
"-20 0 CURVE SMOOTH",
"0 0 LINE SMOOTH"
);
}
);
width = 1673;
}
);
leftKerningGroup = all;
unicode = FEA3;
},
{
glyphname = "dal-ar";
lastChange = "2016-04-12 01:23:39 +0000";
layers = (
{
anchors = (
{
name = bottom;
position = "{491, -230}";
},
{
name = top;
position = "{599, 1158}";
}
);
layerId = "93A312F7-B931-4485-B08E-C367313EB5E7";
name = SemiLight;
paths = (
{
closed = 1;
nodes = (
"562 -56 OFFCURVE",
"831 -9 OFFCURVE",
"918 53 CURVE SMOOTH",
"971 91 OFFCURVE",
"992 154 OFFCURVE",
"992 229 CURVE SMOOTH",
"995 430 OFFCURVE",
"919 553 OFFCURVE",
"645 975 CURVE SMOOTH",
"639 984 OFFCURVE",
"627 983 OFFCURVE",
"624 978 CURVE SMOOTH",
"541 836 LINE SMOOTH",
"536 828 OFFCURVE",
"536 819 OFFCURVE",
"542 811 CURVE SMOOTH",
"836 396 OFFCURVE",
"871 273 OFFCURVE",
"885 197 CURVE",
"737 142 OFFCURVE",
"518 106 OFFCURVE",
"343 127 CURVE SMOOTH",
"266 136 OFFCURVE",
"258 183 OFFCURVE",
"252 308 CURVE SMOOTH",
"251 320 OFFCURVE",
"244 325 OFFCURVE",
"234 325 CURVE SMOOTH",
"172 325 LINE SMOOTH",
"162 325 OFFCURVE",
"156 320 OFFCURVE",
"155 309 CURVE SMOOTH",
"139 120 OFFCURVE",
"144 -56 OFFCURVE",
"424 -56 CURVE SMOOTH"
);
}
);
width = 1129;
},
{
anchors = (
{
name = bottom;
position = "{551, -248}";
},
{
name = top;
position = "{639, 1208}";
}
);
layerId = "00FED3EE-B3F5-49E6-B91A-35FC52169726";
name = Regular;
paths = (
{
closed = 1;
nodes = (
"603 -56 OFFCURVE",
"875 -8 OFFCURVE",
"964 55 CURVE SMOOTH",
"1018 94 OFFCURVE",
"1042 159 OFFCURVE",
"1042 250 CURVE SMOOTH",
"1042 448 OFFCURVE",
"962 576 OFFCURVE",
"693 990 CURVE SMOOTH",
"688 998 OFFCURVE",
"680 1002 OFFCURVE",
"672 1002 CURVE SMOOTH",
"665 1002 OFFCURVE",
"659 999 OFFCURVE",
"655 993 CURVE SMOOTH",
"572 851 LINE SMOOTH",
"569 846 OFFCURVE",
"567 840 OFFCURVE",
"567 834 CURVE SMOOTH",
"567 828 OFFCURVE",
"570 821 OFFCURVE",
"574 815 CURVE SMOOTH",
"856 416 OFFCURVE",
"898 290 OFFCURVE",
"914 213 CURVE",
"797 171 OFFCURVE",
"639 141 OFFCURVE",
"493 141 CURVE SMOOTH",
"319 141 OFFCURVE",
"310 150 OFFCURVE",
"302 318 CURVE SMOOTH",
"301 335 OFFCURVE",
"290 345 OFFCURVE",
"274 345 CURVE SMOOTH",
"212 345 LINE SMOOTH",
"196 345 OFFCURVE",
"186 336 OFFCURVE",
"185 320 CURVE SMOOTH",
"182 286 OFFCURVE",
"180 252 OFFCURVE",
"180 219 CURVE SMOOTH",
"180 69 OFFCURVE",
"226 -56 OFFCURVE",
"464 -56 CURVE SMOOTH"
);
}
);
width = 1182;
}
);
leftKerningGroup = all;
unicode = 062F;
},
{
glyphname = "dal-ar.fina";
lastChange = "2016-04-12 01:23:29 +0000";
layers = (
{
anchors = (
{
name = bottom;
position = "{491, -230}";
},
{
name = top;
position = "{857, 1198}";
}
);
layerId = "93A312F7-B931-4485-B08E-C367313EB5E7";
name = SemiLight;
paths = (
{
closed = 1;
nodes = (
"562 -56 OFFCURVE",
"806 -9 OFFCURVE",
"892 53 CURVE SMOOTH",
"928 78 OFFCURVE",
"948 115 OFFCURVE",
"957 159 CURVE SMOOTH",
"959 171 OFFCURVE",
"964 171 OFFCURVE",
"969 160 CURVE SMOOTH",
"1020 47 OFFCURVE",
"1119 0 OFFCURVE",
"1243 0 CURVE SMOOTH",
"1309 0 LINE",
"1357 60 OFFCURVE",
"1357 119 OFFCURVE",
"1309 179 CURVE",
"1257 179 LINE SMOOTH",
"1055 179 OFFCURVE",
"1005 248 OFFCURVE",
"960 526 CURVE SMOOTH",
"881 1012 LINE SMOOTH",
"879 1025 OFFCURVE",
"869 1029 OFFCURVE",
"859 1021 CURVE SMOOTH",
"739 930 LINE SMOOTH",
"733 925 OFFCURVE",
"728 919 OFFCURVE",
"730 908 CURVE SMOOTH",
"864 205 LINE",
"866 193 OFFCURVE",
"861 187 OFFCURVE",
"852 184 CURVE",
"705 139 OFFCURVE",
"492 107 OFFCURVE",
"346 128 CURVE",
"270 139 OFFCURVE",
"262 166 OFFCURVE",
"255 291 CURVE SMOOTH",
"253 322 OFFCURVE",
"252 325 OFFCURVE",
"234 325 CURVE SMOOTH",
"172 325 LINE SMOOTH",
"162 325 OFFCURVE",
"156 320 OFFCURVE",
"155 309 CURVE SMOOTH",
"139 120 OFFCURVE",
"145 -56 OFFCURVE",
"424 -56 CURVE SMOOTH"
);
}
);
width = 1289;
},
{
anchors = (
{
name = bottom;
position = "{531, -250}";
},
{
name = top;
position = "{897, 1248}";
}
);
layerId = "00FED3EE-B3F5-49E6-B91A-35FC52169726";
name = Regular;
paths = (
{
closed = 1;
nodes = (
"1051 59 OFFCURVE",
"1145 0 OFFCURVE",
"1283 0 CURVE SMOOTH",
"1354 0 LINE",
"1382 33 OFFCURVE",
"1395 66 OFFCURVE",
"1395 100 CURVE SMOOTH",
"1395 133 OFFCURVE",
"1382 166 OFFCURVE",
"1354 199 CURVE",
"1297 199 LINE SMOOTH",
"1105 199 OFFCURVE",
"1055 258 OFFCURVE",
"1010 538 CURVE SMOOTH",
"931 1024 LINE SMOOTH",
"929 1037 OFFCURVE",
"920 1045 OFFCURVE",
"909 1045 CURVE SMOOTH",
"904 1045 OFFCURVE",
"898 1043 OFFCURVE",
"893 1039 CURVE SMOOTH",
"773 948 LINE SMOOTH",
"764 940 OFFCURVE",
"760 932 OFFCURVE",
"760 922 CURVE",
"894 213 LINE",
"895 207 OFFCURVE",
"894 205 OFFCURVE",
"889 203 CURVE SMOOTH",
"775 169 OFFCURVE",
"620 141 OFFCURVE",
"489 141 CURVE SMOOTH",
"327 141 OFFCURVE",
"313 149 OFFCURVE",
"305 302 CURVE SMOOTH",
"303 338 OFFCURVE",
"298 345 OFFCURVE",
"274 345 CURVE SMOOTH",
"212 345 LINE SMOOTH",
"196 345 OFFCURVE",
"186 336 OFFCURVE",
"185 320 CURVE SMOOTH",
"182 286 OFFCURVE",
"180 253 OFFCURVE",
"180 220 CURVE SMOOTH",
"180 70 OFFCURVE",
"226 -56 OFFCURVE",
"464 -56 CURVE SMOOTH",
"603 -56 OFFCURVE",
"850 -8 OFFCURVE",
"938 55 CURVE SMOOTH",
"973 80 OFFCURVE",
"993 117 OFFCURVE",
"1003 166 CURVE"
);
}
);
width = 1330;
}
);
unicode = FEAA;
userData = {
com.typemytype.robofont.guides = (
{
angle = 0;
isGlobal = 0;
x = 2480;
y = "-225";
}
);
};
},
{
glyphname = "reh-ar";
lastChange = "2016-04-12 01:14:10 +0000";
layers = (
{
anchors = (
{
name = bottom;
position = "{304, -650}";
},
{
name = top;
position = "{563, 976}";
}
);
layerId = "93A312F7-B931-4485-B08E-C367313EB5E7";
name = SemiLight;
paths = (
{
closed = 1;
nodes = (
"618 -319 OFFCURVE",
"756 -88 OFFCURVE",
"778 126 CURVE SMOOTH",
"792 265 OFFCURVE",
"724 472 OFFCURVE",
"669 692 CURVE SMOOTH",
"666 704 OFFCURVE",
"655 705 OFFCURVE",
"646 696 CURVE SMOOTH",
"542 592 LINE SMOOTH",
"536 585 OFFCURVE",
"533 578 OFFCURVE",
"536 569 CURVE SMOOTH",
"679 127 LINE SMOOTH",
"682 118 OFFCURVE",
"681 112 OFFCURVE",
"678 104 CURVE SMOOTH",
"539 -211 OFFCURVE",
"352 -357 OFFCURVE",
"-35 -272 CURVE SMOOTH",
"-46 -270 OFFCURVE",
"-53 -277 OFFCURVE",
"-56 -287 CURVE SMOOTH",
"-79 -354 LINE SMOOTH",
"-82 -363 OFFCURVE",
"-77 -369 OFFCURVE",
"-66 -373 CURVE SMOOTH",
"171 -452 OFFCURVE",
"336 -477 OFFCURVE",
"476 -398 CURVE SMOOTH"
);
}
);
width = 918;
},
{
anchors = (
{
name = bottom;
position = "{299, -640}";
},
{
name = top;
position = "{608, 986}";
}
);
layerId = "00FED3EE-B3F5-49E6-B91A-35FC52169726";
name = Regular;
paths = (
{
closed = 1;
nodes = (
"650 -295 OFFCURVE",
"785 -12 OFFCURVE",
"785 187 CURVE SMOOTH",
"785 326 OFFCURVE",
"724 516 OFFCURVE",
"674 714 CURVE SMOOTH",
"670 731 OFFCURVE",
"651 740 OFFCURVE",
"634 723 CURVE SMOOTH",
"530 619 LINE SMOOTH",
"524 613 OFFCURVE",
"520 606 OFFCURVE",
"520 597 CURVE",
"664 144 LINE",
"666 137 OFFCURVE",
"666 135 OFFCURVE",
"664 128 CURVE SMOOTH",
"551 -145 OFFCURVE",
"402 -266 OFFCURVE",
"171 -266 CURVE SMOOTH",
"110 -266 OFFCURVE",
"44 -258 OFFCURVE",
"-28 -242 CURVE SMOOTH",
"-43 -239 OFFCURVE",
"-56 -248 OFFCURVE",
"-61 -264 CURVE",
"-85 -340 LINE",
"-86 -350 OFFCURVE",
"-77 -358 OFFCURVE",
"-64 -362 CURVE SMOOTH",
"73 -408 OFFCURVE",
"187 -436 OFFCURVE",
"287 -436 CURVE SMOOTH",
"360 -436 OFFCURVE",
"425 -421 OFFCURVE",
"486 -387 CURVE SMOOTH"
);
}
);
width = 925;
}
);
leftKerningGroup = r;
rightKerningGroup = r;
unicode = 0631;
userData = {
com.typemytype.robofont.guides = (
{
angle = 0;
isGlobal = 0;
x = "-844";
y = "-463";
}
);
};
},
{
glyphname = "reh-ar.fina";
lastChange = "2016-04-12 01:13:43 +0000";
layers = (
{
anchors = (
{
name = bottom;
position = "{293, -650}";
},
{
name = top;
position = "{603, 857}";
}
);
layerId = "93A312F7-B931-4485-B08E-C367313EB5E7";
name = SemiLight;
paths = (
{
closed = 1;
nodes = (
"579 -371 OFFCURVE",
"749 -115 OFFCURVE",
"775 103 CURVE",
"836 29 OFFCURVE",
"911 0 OFFCURVE",
"1012 0 CURVE SMOOTH",
"1139 0 LINE",
"1187 60 OFFCURVE",
"1187 119 OFFCURVE",
"1139 179 CURVE",
"1012 179 LINE SMOOTH",
"825 179 OFFCURVE",
"787 259 OFFCURVE",
"725 522 CURVE SMOOTH",
"689 675 LINE SMOOTH",
"685 692 OFFCURVE",
"670 698 OFFCURVE",
"657 687 CURVE SMOOTH",
"557 596 LINE SMOOTH",
"551 591 OFFCURVE",
"549 587 OFFCURVE",
"551 580 CURVE SMOOTH",
"667 99 LINE SMOOTH",
"669 91 OFFCURVE",
"668 84 OFFCURVE",
"665 77 CURVE SMOOTH",
"530 -253 OFFCURVE",
"339 -394 OFFCURVE",
"-35 -320 CURVE SMOOTH",
"-46 -318 OFFCURVE",
"-52 -325 OFFCURVE",
"-56 -335 CURVE SMOOTH",
"-79 -402 LINE SMOOTH",
"-82 -411 OFFCURVE",
"-77 -418 OFFCURVE",
"-66 -421 CURVE SMOOTH",
"171 -500 OFFCURVE",
"288 -523 OFFCURVE",
"430 -448 CURVE SMOOTH"
);
}
);
width = 1119;
},
{
anchors = (
{
name = bottom;
position = "{334, -690}";
},
{
name = top;
position = "{654, 967}";
}
);
layerId = "00FED3EE-B3F5-49E6-B91A-35FC52169726";
name = Regular;
paths = (
{
closed = 1;
nodes = (
"639 -356 OFFCURVE",
"789 -118 OFFCURVE",
"823 90 CURVE",
"881 28 OFFCURVE",
"954 0 OFFCURVE",
"1053 0 CURVE SMOOTH",
"1185 0 LINE",
"1213 33 OFFCURVE",
"1226 66 OFFCURVE",
"1226 100 CURVE SMOOTH",
"1226 133 OFFCURVE",
"1213 166 OFFCURVE",
"1185 199 CURVE",
"1053 199 LINE SMOOTH",
"872 199 OFFCURVE",
"837 272 OFFCURVE",
"776 534 CURVE SMOOTH",
"740 687 LINE SMOOTH",
"735 708 OFFCURVE",
"713 723 OFFCURVE",
"692 705 CURVE SMOOTH",
"591 613 LINE SMOOTH",
"585 608 OFFCURVE",
"581 602 OFFCURVE",
"581 594 CURVE",
"698 117 LINE",
"700 111 OFFCURVE",
"699 106 OFFCURVE",
"697 101 CURVE SMOOTH",
"589 -182 OFFCURVE",
"437 -309 OFFCURVE",
"196 -309 CURVE SMOOTH",
"141 -309 OFFCURVE",
"82 -303 OFFCURVE",
"18 -290 CURVE SMOOTH",
"3 -287 OFFCURVE",
"-9 -295 OFFCURVE",
"-14 -311 CURVE",
"-38 -387 LINE",
"-38 -398 OFFCURVE",
"-31 -406 OFFCURVE",
"-18 -411 CURVE SMOOTH",
"128 -459 OFFCURVE",
"226 -484 OFFCURVE",
"308 -484 CURVE SMOOTH",
"373 -484 OFFCURVE",
"427 -468 OFFCURVE",
"486 -437 CURVE SMOOTH"
);
}
);
width = 1161;
}
);
leftKerningGroup = r;
rightKerningGroup = r;
unicode = FEAE;
userData = {
com.typemytype.robofont.guides = (
{
angle = 0;
isGlobal = 0;
x = 618;
y = 606;
}
);
};
},
{
glyphname = "seen-ar";
lastChange = "2016-03-27 02:14:10 +0000";
layers = (
{
anchors = (
{
name = bottom;
position = "{706, -704}";
},
{
name = top;
position = "{742, 713}";
}
);
layerId = "93A312F7-B931-4485-B08E-C367313EB5E7";
name = SemiLight;
paths = (
{
closed = 1;
nodes = (
"815 -531 OFFCURVE",
"1174 -437 OFFCURVE",
"1294 -271 CURVE SMOOTH",
"1346 -200 OFFCURVE",
"1339 -109 OFFCURVE",
"1327 22 CURVE",
"1436 -26 OFFCURVE",
"1773 -17 OFFCURVE",
"1862 95 CURVE",
"1947 43 OFFCURVE",
"2065 -3 OFFCURVE",
"2170 -6 CURVE SMOOTH",
"2414 -14 OFFCURVE",
"2517 46 OFFCURVE",
"2510 308 CURVE SMOOTH",
"2507 409 OFFCURVE",
"2474 670 OFFCURVE",
"2433 839 CURVE SMOOTH",
"2430 852 OFFCURVE",
"2419 854 OFFCURVE",
"2410 844 CURVE SMOOTH",
"2307 739 LINE SMOOTH",
"2301 733 OFFCURVE",
"2299 726 OFFCURVE",
"2301 716 CURVE SMOOTH",
"2413 213 LINE SMOOTH",
"2416 199 OFFCURVE",
"2406 188 OFFCURVE",
"2393 185 CURVE SMOOTH",
"2234 153 OFFCURVE",
"2098 164 OFFCURVE",
"1958 225 CURVE SMOOTH",
"1953 227 OFFCURVE",
"1948 233 OFFCURVE",
"1949 241 CURVE SMOOTH",
"1988 582 LINE SMOOTH",
"1989 593 OFFCURVE",
"1983 600 OFFCURVE",
"1972 601 CURVE SMOOTH",
"1898 607 LINE SMOOTH",
"1889 608 OFFCURVE",
"1882 603 OFFCURVE",
"1880 592 CURVE SMOOTH",
"1846 347 LINE SMOOTH",
"1826 201 OFFCURVE",
"1704 172 OFFCURVE",
"1546 174 CURVE SMOOTH",
"1403 176 OFFCURVE",
"1310 192 OFFCURVE",
"1294 302 CURVE SMOOTH",
"1256 569 LINE SMOOTH",
"1253 588 OFFCURVE",
"1236 593 OFFCURVE",
"1222 583 CURVE SMOOTH",
"1112 501 LINE SMOOTH",
"1108 498 OFFCURVE",
"1105 492 OFFCURVE",
"1106 486 CURVE SMOOTH",
"1213 -177 LINE SMOOTH",
"1214 -184 OFFCURVE",
"1211 -191 OFFCURVE",
"1204 -194 CURVE SMOOTH",
"1144 -222 OFFCURVE",
"881 -330 OFFCURVE",
"616 -330 CURVE SMOOTH",
"391 -330 OFFCURVE",
"251 -217 OFFCURVE",
"302 61 CURVE SMOOTH",
"337 251 LINE SMOOTH",
"339 262 OFFCURVE",
"331 270 OFFCURVE",
"321 271 CURVE SMOOTH",
"247 282 LINE SMOOTH",
"238 283 OFFCURVE",
"230 278 OFFCURVE",
"228 268 CURVE SMOOTH",
"186 38 LINE SMOOTH",
"133 -255 OFFCURVE",
"221 -531 OFFCURVE",
"589 -531 CURVE SMOOTH"
);
}
);
width = 2648;
},
{
anchors = (
{
name = bottom;
position = "{704, -734}";
},
{
name = top;
position = "{760, 723}";
}
);
layerId = "00FED3EE-B3F5-49E6-B91A-35FC52169726";
name = Regular;
paths = (
{
closed = 1;
nodes = (
"834 -531 OFFCURVE",
"1198 -436 OFFCURVE",
"1320 -267 CURVE SMOOTH",
"1353 -222 OFFCURVE",
"1363 -169 OFFCURVE",
"1363 -104 CURVE SMOOTH",
"1363 -68 OFFCURVE",
"1360 -27 OFFCURVE",
"1356 17 CURVE",
"1398 3 OFFCURVE",
"1462 -5 OFFCURVE",
"1532 -5 CURVE SMOOTH",
"1665 -5 OFFCURVE",
"1820 24 OFFCURVE",
"1882 92 CURVE",
"1985 30 OFFCURVE",
"2101 -7 OFFCURVE",
"2226 -7 CURVE SMOOTH",
"2463 -7 OFFCURVE",
"2545 79 OFFCURVE",
"2538 318 CURVE SMOOTH",
"2535 420 OFFCURVE",
"2502 682 OFFCURVE",
"2461 851 CURVE SMOOTH",
"2458 864 OFFCURVE",
"2450 870 OFFCURVE",
"2440 870 CURVE SMOOTH",
"2434 870 OFFCURVE",
"2427 867 OFFCURVE",
"2421 861 CURVE SMOOTH",
"2318 756 LINE SMOOTH",
"2312 749 OFFCURVE",
"2308 741 OFFCURVE",
"2308 732 CURVE",
"2421 221 LINE",
"2423 214 OFFCURVE",
"2418 207 OFFCURVE",
"2409 205 CURVE SMOOTH",
"2352 194 OFFCURVE",
"2298 188 OFFCURVE",
"2246 188 CURVE SMOOTH",
"2153 188 OFFCURVE",
"2067 206 OFFCURVE",
"1980 244 CURVE SMOOTH",
"1978 245 OFFCURVE",
"1977 247 OFFCURVE",
"1977 250 CURVE SMOOTH",
"2016 591 LINE SMOOTH",
"2018 607 OFFCURVE",
"2007 620 OFFCURVE",
"1991 621 CURVE SMOOTH",
"1917 627 LINE SMOOTH",
"1902 628 OFFCURVE",
"1890 620 OFFCURVE",
"1888 604 CURVE SMOOTH",
"1854 358 LINE SMOOTH",
"1838 241 OFFCURVE",
"1756 194 OFFCURVE",
"1575 194 CURVE SMOOTH",
"1427 194 OFFCURVE",
"1336 208 OFFCURVE",
"1322 313 CURVE SMOOTH",
"1284 580 LINE SMOOTH",
"1281 598 OFFCURVE",
"1268 608 OFFCURVE",
"1254 608 CURVE SMOOTH",
"1247 608 OFFCURVE",
"1240 606 OFFCURVE",
"1234 601 CURVE SMOOTH",
"1124 519 LINE SMOOTH",
"1118 515 OFFCURVE",
"1114 505 OFFCURVE",
"1114 497 CURVE",
"1221 -169 LINE",
"1222 -172 OFFCURVE",
"1220 -174 OFFCURVE",
"1218 -175 CURVE SMOOTH",
"1158 -203 OFFCURVE",
"897 -310 OFFCURVE",
"634 -310 CURVE SMOOTH",
"427 -310 OFFCURVE",
"320 -215 OFFCURVE",
"320 -36 CURVE SMOOTH",
"320 23 OFFCURVE",
"327 51 OFFCURVE",
"365 259 CURVE SMOOTH",
"368 275 OFFCURVE",
"356 289 OFFCURVE",
"340 291 CURVE SMOOTH",
"266 302 LINE SMOOTH",
"251 304 OFFCURVE",
"239 295 OFFCURVE",
"236 280 CURVE SMOOTH",
"188 15 OFFCURVE",
"180 -14 OFFCURVE",
"180 -100 CURVE SMOOTH",
"180 -335 OFFCURVE",
"296 -531 OFFCURVE",
"607 -531 CURVE SMOOTH"
);
}
);
width = 2678;
}
);
leftKerningGroup = all;
unicode = 0633;
},
{
glyphname = "seen-ar.fina";
lastChange = "2016-03-15 08:34:09 +0000";
layers = (
{
anchors = (
{
name = bottom;
position = "{706, -704}";
},
{
name = top;
position = "{742, 713}";
}
);
layerId = "93A312F7-B931-4485-B08E-C367313EB5E7";
name = SemiLight;
paths = (
{
closed = 1;
nodes = (
"816 -531 OFFCURVE",
"1175 -437 OFFCURVE",
"1295 -271 CURVE SMOOTH",
"1347 -200 OFFCURVE",
"1340 -110 OFFCURVE",
"1328 21 CURVE",
"1404 0 OFFCURVE",
"1490 -9 OFFCURVE",
"1561 -9 CURVE SMOOTH",
"1689 -8 OFFCURVE",
"1817 28 OFFCURVE",
"1864 87 CURVE",
"1949 35 OFFCURVE",
"2068 -1 OFFCURVE",
"2172 -3 CURVE SMOOTH",
"2337 -9 OFFCURVE",
"2456 16 OFFCURVE",
"2506 115 CURVE SMOOTH",
"2514 130 OFFCURVE",
"2528 132 OFFCURVE",
"2539 118 CURVE SMOOTH",
"2600 41 OFFCURVE",
"2688 0 OFFCURVE",
"2790 0 CURVE SMOOTH",
"2890 0 LINE",
"2938 60 OFFCURVE",
"2938 119 OFFCURVE",
"2890 179 CURVE",
"2790 179 LINE SMOOTH",
"2613 179 OFFCURVE",
"2578 260 OFFCURVE",
"2537 522 CURVE SMOOTH",
"2513 675 LINE SMOOTH",
"2511 691 OFFCURVE",
"2493 697 OFFCURVE",
"2481 687 CURVE SMOOTH",
"2381 607 LINE SMOOTH",
"2375 602 OFFCURVE",
"2374 598 OFFCURVE",
"2375 591 CURVE SMOOTH",
"2438 208 LINE SMOOTH",
"2440 198 OFFCURVE",
"2435 188 OFFCURVE",
"2424 186 CURVE SMOOTH",
"2260 154 OFFCURVE",
"2101 162 OFFCURVE",
"1961 228 CURVE SMOOTH",
"1954 231 OFFCURVE",
"1951 237 OFFCURVE",
"1952 244 CURVE SMOOTH",
"1991 582 LINE SMOOTH",
"1992 593 OFFCURVE",
"1985 600 OFFCURVE",
"1975 601 CURVE SMOOTH",
"1901 607 LINE SMOOTH",
"1892 608 OFFCURVE",
"1883 603 OFFCURVE",
"1882 592 CURVE SMOOTH",
"1849 343 LINE SMOOTH",
"1830 199 OFFCURVE",
"1718 173 OFFCURVE",
"1570 173 CURVE SMOOTH",
"1503 173 OFFCURVE",
"1433 175 OFFCURVE",
"1381 193 CURVE SMOOTH",
"1336 209 OFFCURVE",
"1304 239 OFFCURVE",
"1295 301 CURVE SMOOTH",
"1257 569 LINE SMOOTH",
"1254 588 OFFCURVE",
"1237 593 OFFCURVE",
"1224 583 CURVE SMOOTH",
"1113 501 LINE SMOOTH",
"1109 498 OFFCURVE",
"1106 492 OFFCURVE",
"1107 486 CURVE SMOOTH",
"1214 -177 LINE SMOOTH",
"1215 -184 OFFCURVE",
"1212 -191 OFFCURVE",
"1205 -194 CURVE SMOOTH",
"1145 -222 OFFCURVE",
"882 -330 OFFCURVE",
"618 -330 CURVE SMOOTH",
"392 -330 OFFCURVE",
"251 -216 OFFCURVE",
"304 61 CURVE SMOOTH",
"338 239 LINE SMOOTH",
"340 251 OFFCURVE",
"332 259 OFFCURVE",
"322 260 CURVE SMOOTH",
"248 270 LINE SMOOTH",
"239 271 OFFCURVE",
"231 267 OFFCURVE",
"229 256 CURVE SMOOTH",
"187 38 LINE SMOOTH",
"131 -255 OFFCURVE",
"222 -531 OFFCURVE",
"590 -531 CURVE SMOOTH"
);
}
);
width = 2870;
},
{
anchors = (
{
name = bottom;
position = "{704, -734}";
},
{
name = top;
position = "{760, 723}";
}
);
layerId = "00FED3EE-B3F5-49E6-B91A-35FC52169726";
name = Regular;
paths = (
{
closed = 1;
nodes = (
"835 -531 OFFCURVE",
"1199 -436 OFFCURVE",
"1321 -267 CURVE SMOOTH",
"1354 -222 OFFCURVE",
"1364 -169 OFFCURVE",
"1364 -104 CURVE SMOOTH",
"1364 -67 OFFCURVE",
"1361 -27 OFFCURVE",
"1357 18 CURVE",
"1425 1 OFFCURVE",
"1504 -9 OFFCURVE",
"1579 -9 CURVE SMOOTH",
"1712 -8 OFFCURVE",
"1834 29 OFFCURVE",
"1884 84 CURVE",
"1984 25 OFFCURVE",
"2112 -4 OFFCURVE",
"2234 -4 CURVE SMOOTH",
"2397 -4 OFFCURVE",
"2490 34 OFFCURVE",
"2533 120 CURVE SMOOTH",
"2535 125 OFFCURVE",
"2538 127 OFFCURVE",
"2541 127 CURVE SMOOTH",
"2544 127 OFFCURVE",
"2546 126 OFFCURVE",
"2549 122 CURVE SMOOTH",
"2612 43 OFFCURVE",
"2703 0 OFFCURVE",
"2808 0 CURVE SMOOTH",
"2913 0 LINE",
"2941 33 OFFCURVE",
"2954 66 OFFCURVE",
"2954 100 CURVE SMOOTH",
"2954 133 OFFCURVE",
"2941 166 OFFCURVE",
"2913 199 CURVE",
"2808 199 LINE SMOOTH",
"2638 199 OFFCURVE",
"2606 273 OFFCURVE",
"2565 534 CURVE SMOOTH",
"2541 687 LINE SMOOTH",
"2538 703 OFFCURVE",
"2526 712 OFFCURVE",
"2512 712 CURVE SMOOTH",
"2506 712 OFFCURVE",
"2499 710 OFFCURVE",
"2493 705 CURVE SMOOTH",
"2393 625 LINE SMOOTH",
"2386 619 OFFCURVE",
"2382 613 OFFCURVE",
"2382 606 CURVE",
"2446 216 LINE",
"2447 211 OFFCURVE",
"2445 207 OFFCURVE",
"2440 206 CURVE SMOOTH",
"2378 194 OFFCURVE",
"2319 188 OFFCURVE",
"2262 188 CURVE SMOOTH",
"2160 188 OFFCURVE",
"2067 208 OFFCURVE",
"1983 247 CURVE SMOOTH",
"1980 248 OFFCURVE",
"1980 250 OFFCURVE",
"1980 253 CURVE SMOOTH",
"2019 591 LINE SMOOTH",
"2021 607 OFFCURVE",
"2010 620 OFFCURVE",
"1994 621 CURVE SMOOTH",
"1920 627 LINE SMOOTH",
"1904 628 OFFCURVE",
"1892 618 OFFCURVE",
"1890 603 CURVE SMOOTH",
"1857 354 LINE SMOOTH",
"1842 237 OFFCURVE",
"1767 193 OFFCURVE",
"1588 193 CURVE SMOOTH",
"1443 193 OFFCURVE",
"1338 200 OFFCURVE",
"1323 312 CURVE SMOOTH",
"1285 580 LINE SMOOTH",
"1282 598 OFFCURVE",
"1270 608 OFFCURVE",
"1256 608 CURVE SMOOTH",
"1250 608 OFFCURVE",
"1243 606 OFFCURVE",
"1236 601 CURVE SMOOTH",
"1125 519 LINE SMOOTH",
"1119 515 OFFCURVE",
"1115 505 OFFCURVE",
"1115 497 CURVE",
"1222 -169 LINE",
"1223 -172 OFFCURVE",
"1221 -174 OFFCURVE",
"1219 -175 CURVE SMOOTH",
"1159 -203 OFFCURVE",
"898 -310 OFFCURVE",
"636 -310 CURVE SMOOTH",
"429 -310 OFFCURVE",
"321 -215 OFFCURVE",
"321 -37 CURVE SMOOTH",
"321 18 OFFCURVE",
"327 41 OFFCURVE",
"366 247 CURVE SMOOTH",
"369 264 OFFCURVE",
"358 278 OFFCURVE",
"341 280 CURVE SMOOTH",
"267 290 LINE SMOOTH",
"252 292 OFFCURVE",
"240 283 OFFCURVE",
"237 268 CURVE SMOOTH",
"189 19 OFFCURVE",
"180 -17 OFFCURVE",
"180 -102 CURVE SMOOTH",
"180 -336 OFFCURVE",
"298 -531 OFFCURVE",
"608 -531 CURVE SMOOTH"
);
}
);
width = 2889;
}
);
unicode = FEB2;
},
{
glyphname = "seen-ar.medi";
lastChange = "2016-03-15 08:34:41 +0000";
layers = (
{
anchors = (
{
name = bottom;
position = "{1139, -195}";
},
{
name = top;
position = "{1003, 874}";
}
);
layerId = "93A312F7-B931-4485-B08E-C367313EB5E7";
name = SemiLight;
paths = (
{
closed = 1;
nodes = (
"866 0 OFFCURVE",
"994 37 OFFCURVE",
"1041 97 CURVE",
"1126 41 OFFCURVE",
"1244 4 OFFCURVE",
"1349 0 CURVE SMOOTH",
"1513 -6 OFFCURVE",
"1633 28 OFFCURVE",
"1682 127 CURVE SMOOTH",
"1689 142 OFFCURVE",
"1706 147 OFFCURVE",
"1716 130 CURVE SMOOTH",
"1767 43 OFFCURVE",
"1864 0 OFFCURVE",
"1966 0 CURVE SMOOTH",
"2055 0 LINE",
"2103 60 OFFCURVE",
"2103 119 OFFCURVE",
"2055 179 CURVE",
"1966 179 LINE SMOOTH",
"1776 179 OFFCURVE",
"1733 265 OFFCURVE",
"1713 522 CURVE SMOOTH",
"1701 675 LINE SMOOTH",
"1700 691 OFFCURVE",
"1681 697 OFFCURVE",
"1669 687 CURVE SMOOTH",
"1569 607 LINE SMOOTH",
"1563 602 OFFCURVE",
"1562 598 OFFCURVE",
"1563 591 CURVE SMOOTH",
"1615 220 LINE SMOOTH",
"1616 210 OFFCURVE",
"1611 200 OFFCURVE",
"1601 198 CURVE SMOOTH",
"1438 163 OFFCURVE",
"1278 173 OFFCURVE",
"1137 228 CURVE SMOOTH",
"1130 231 OFFCURVE",
"1127 237 OFFCURVE",
"1128 244 CURVE SMOOTH",
"1167 582 LINE SMOOTH",
"1168 593 OFFCURVE",
"1162 600 OFFCURVE",
"1151 601 CURVE SMOOTH",
"1075 607 LINE SMOOTH",
"1066 608 OFFCURVE",
"1058 603 OFFCURVE",
"1057 592 CURVE SMOOTH",
"1023 331 LINE SMOOTH",
"1006 199 OFFCURVE",
"895 179 OFFCURVE",
"746 179 CURVE SMOOTH",
"665 179 OFFCURVE",
"562 191 OFFCURVE",
"484 214 CURVE SMOOTH",
"477 216 OFFCURVE",
"475 224 OFFCURVE",
"475 230 CURVE SMOOTH",
"504 582 LINE SMOOTH",
"505 593 OFFCURVE",
"498 600 OFFCURVE",
"486 601 CURVE SMOOTH",
"410 605 LINE SMOOTH",
"401 605 OFFCURVE",
"393 600 OFFCURVE",
"392 590 CURVE SMOOTH",
"371 422 LINE SMOOTH",
"347 229 OFFCURVE",
"324 179 OFFCURVE",
"129 179 CURVE SMOOTH",
"-20 179 LINE SMOOTH",
"-138 179 OFFCURVE",
"-138 0 OFFCURVE",
"-20 0 CURVE SMOOTH",
"113 0 LINE SMOOTH",
"216 0 OFFCURVE",
"315 51 OFFCURVE",
"353 99 CURVE",
"430 13 OFFCURVE",
"610 0 OFFCURVE",
"737 0 CURVE SMOOTH"
);
}
);
width = 2036;
},
{
anchors = (
{
name = bottom;
position = "{1139, -205}";
},
{
name = top;
position = "{1023, 934}";
}
);
layerId = "00FED3EE-B3F5-49E6-B91A-35FC52169726";
name = Regular;
paths = (
{
closed = 1;
nodes = (
"870 0 OFFCURVE",
"992 38 OFFCURVE",
"1043 94 CURVE",
"1141 33 OFFCURVE",
"1267 -1 OFFCURVE",
"1385 -1 CURVE SMOOTH",
"1546 -1 OFFCURVE",
"1647 44 OFFCURVE",
"1691 133 CURVE SMOOTH",
"1693 138 OFFCURVE",
"1696 140 OFFCURVE",
"1699 140 CURVE SMOOTH",
"1702 140 OFFCURVE",
"1705 139 OFFCURVE",
"1707 135 CURVE SMOOTH",
"1757 50 OFFCURVE",
"1854 0 OFFCURVE",
"1966 0 CURVE SMOOTH",
"2060 0 LINE",
"2088 33 OFFCURVE",
"2101 66 OFFCURVE",
"2101 100 CURVE SMOOTH",
"2101 133 OFFCURVE",
"2088 166 OFFCURVE",
"2060 199 CURVE",
"1966 199 LINE SMOOTH",
"1792 199 OFFCURVE",
"1744 266 OFFCURVE",
"1723 533 CURVE SMOOTH",
"1711 686 LINE SMOOTH",
"1710 702 OFFCURVE",
"1696 712 OFFCURVE",
"1682 712 CURVE SMOOTH",
"1676 712 OFFCURVE",
"1669 710 OFFCURVE",
"1663 705 CURVE SMOOTH",
"1563 625 LINE SMOOTH",
"1555 619 OFFCURVE",
"1553 612 OFFCURVE",
"1553 604 CURVE",
"1605 229 LINE",
"1606 223 OFFCURVE",
"1603 219 OFFCURVE",
"1599 218 CURVE SMOOTH",
"1536 204 OFFCURVE",
"1473 198 OFFCURVE",
"1412 198 CURVE SMOOTH",
"1317 198 OFFCURVE",
"1225 214 OFFCURVE",
"1141 247 CURVE SMOOTH",
"1138 248 OFFCURVE",
"1137 250 OFFCURVE",
"1138 253 CURVE SMOOTH",
"1177 591 LINE SMOOTH",
"1178 607 OFFCURVE",
"1168 619 OFFCURVE",
"1152 621 CURVE SMOOTH",
"1076 627 LINE SMOOTH",
"1061 628 OFFCURVE",
"1049 618 OFFCURVE",
"1047 603 CURVE SMOOTH",
"1013 342 LINE SMOOTH",
"997 218 OFFCURVE",
"894 199 OFFCURVE",
"746 199 CURVE SMOOTH",
"666 199 OFFCURVE",
"564 211 OFFCURVE",
"487 234 CURVE SMOOTH",
"486 234 OFFCURVE",
"485 235 OFFCURVE",
"485 240 CURVE SMOOTH",
"514 591 LINE SMOOTH",
"515 607 OFFCURVE",
"504 619 OFFCURVE",
"487 621 CURVE SMOOTH",
"411 625 LINE SMOOTH",
"396 626 OFFCURVE",
"384 616 OFFCURVE",
"382 601 CURVE SMOOTH",
"361 433 LINE SMOOTH",
"337 242 OFFCURVE",
"318 199 OFFCURVE",
"129 199 CURVE SMOOTH",
"-20 199 LINE SMOOTH",
"-86 199 OFFCURVE",
"-118 149 OFFCURVE",
"-118 100 CURVE SMOOTH",
"-118 50 OFFCURVE",
"-86 0 OFFCURVE",
"-20 0 CURVE SMOOTH",
"113 0 LINE SMOOTH",
"202 0 OFFCURVE",
"304 40 OFFCURVE",
"353 94 CURVE",
"437 12 OFFCURVE",
"614 0 OFFCURVE",
"737 0 CURVE SMOOTH"
);
}
);
width = 2036;
}
);
unicode = FEB4;
},
{
glyphname = "seen-ar.init";
lastChange = "2016-03-27 02:14:10 +0000";
layers = (
{
anchors = (
{
name = bottom;
position = "{1144, -195}";
},
{
name = top;
position = "{1009, 874}";
}
);
layerId = "93A312F7-B931-4485-B08E-C367313EB5E7";
name = SemiLight;
paths = (
{
closed = 1;
nodes = (
"877 1 OFFCURVE",
"1005 36 OFFCURVE",
"1052 96 CURVE",
"1137 43 OFFCURVE",
"1256 4 OFFCURVE",
"1360 0 CURVE SMOOTH",
"1604 -9 OFFCURVE",
"1708 48 OFFCURVE",
"1701 311 CURVE SMOOTH",
"1696 412 OFFCURVE",
"1653 670 OFFCURVE",
"1612 839 CURVE SMOOTH",
"1609 852 OFFCURVE",
"1598 853 OFFCURVE",
"1589 844 CURVE SMOOTH",
"1486 739 LINE SMOOTH",
"1480 733 OFFCURVE",
"1478 726 OFFCURVE",
"1480 716 CURVE SMOOTH",
"1603 218 LINE SMOOTH",
"1606 204 OFFCURVE",
"1596 192 OFFCURVE",
"1584 190 CURVE SMOOTH",
"1425 164 OFFCURVE",
"1288 176 OFFCURVE",
"1149 231 CURVE SMOOTH",
"1143 233 OFFCURVE",
"1139 239 OFFCURVE",
"1140 247 CURVE SMOOTH",
"1179 582 LINE SMOOTH",
"1180 593 OFFCURVE",
"1173 600 OFFCURVE",
"1163 601 CURVE SMOOTH",
"1088 607 LINE SMOOTH",
"1078 608 OFFCURVE",
"1070 603 OFFCURVE",
"1069 592 CURVE SMOOTH",
"1036 351 LINE SMOOTH",
"1016 207 OFFCURVE",
"906 180 OFFCURVE",
"758 180 CURVE SMOOTH",
"676 180 OFFCURVE",
"565 191 OFFCURVE",
"487 215 CURVE SMOOTH",
"480 217 OFFCURVE",
"476 224 OFFCURVE",
"477 231 CURVE SMOOTH",
"515 582 LINE SMOOTH",
"516 593 OFFCURVE",
"509 600 OFFCURVE",
"498 601 CURVE SMOOTH",
"423 605 LINE SMOOTH",
"414 605 OFFCURVE",
"406 600 OFFCURVE",
"405 590 CURVE SMOOTH",
"384 435 LINE SMOOTH",
"356 228 OFFCURVE",
"324 191 OFFCURVE",
"121 179 CURVE SMOOTH",
"-20 179 LINE SMOOTH",
"-138 179 OFFCURVE",
"-138 0 OFFCURVE",
"-20 0 CURVE SMOOTH",
"124 0 LINE SMOOTH",
"228 0 OFFCURVE",
"327 52 OFFCURVE",
"365 100 CURVE",
"442 21 OFFCURVE",
"621 0 OFFCURVE",
"749 0 CURVE SMOOTH"
);
}
);
width = 1839;
},
{
anchors = (
{
name = bottom;
position = "{1054, -195}";
},
{
name = top;
position = "{1049, 924}";
}
);
layerId = "00FED3EE-B3F5-49E6-B91A-35FC52169726";
name = Regular;
paths = (
{
closed = 1;
nodes = (
"884 1 OFFCURVE",
"1004 38 OFFCURVE",
"1054 93 CURVE",
"1142 40 OFFCURVE",
"1260 4 OFFCURVE",
"1360 0 CURVE SMOOTH",
"1375 -1 OFFCURVE",
"1389 -1 OFFCURVE",
"1402 -1 CURVE SMOOTH",
"1638 -1 OFFCURVE",
"1718 84 OFFCURVE",
"1711 321 CURVE SMOOTH",
"1706 423 OFFCURVE",
"1663 682 OFFCURVE",
"1622 851 CURVE SMOOTH",
"1619 863 OFFCURVE",
"1610 870 OFFCURVE",
"1601 870 CURVE SMOOTH",
"1595 870 OFFCURVE",
"1588 867 OFFCURVE",
"1582 861 CURVE SMOOTH",
"1479 756 LINE SMOOTH",
"1473 749 OFFCURVE",
"1469 741 OFFCURVE",
"1469 732 CURVE",
"1593 226 LINE",
"1595 218 OFFCURVE",
"1590 211 OFFCURVE",
"1582 210 CURVE SMOOTH",
"1529 201 OFFCURVE",
"1479 197 OFFCURVE",
"1431 197 CURVE SMOOTH",
"1333 197 OFFCURVE",
"1243 215 OFFCURVE",
"1153 250 CURVE SMOOTH",
"1150 251 OFFCURVE",
"1150 253 OFFCURVE",
"1150 256 CURVE SMOOTH",
"1189 591 LINE SMOOTH",
"1190 607 OFFCURVE",
"1180 619 OFFCURVE",
"1164 621 CURVE SMOOTH",
"1089 627 LINE SMOOTH",
"1073 628 OFFCURVE",
"1061 618 OFFCURVE",
"1059 603 CURVE SMOOTH",
"1026 362 LINE SMOOTH",
"1010 245 OFFCURVE",
"935 200 OFFCURVE",
"758 200 CURVE SMOOTH",
"676 200 OFFCURVE",
"567 211 OFFCURVE",
"490 235 CURVE SMOOTH",
"488 235 OFFCURVE",
"487 237 OFFCURVE",
"487 240 CURVE SMOOTH",
"525 591 LINE SMOOTH",
"527 607 OFFCURVE",
"516 620 OFFCURVE",
"499 621 CURVE SMOOTH",
"424 625 LINE SMOOTH",
"409 626 OFFCURVE",
"397 616 OFFCURVE",
"395 601 CURVE SMOOTH",
"374 446 LINE SMOOTH",
"346 241 OFFCURVE",
"315 210 OFFCURVE",
"120 199 CURVE",
"-20 199 LINE SMOOTH",
"-86 199 OFFCURVE",
"-118 149 OFFCURVE",
"-118 100 CURVE SMOOTH",
"-118 50 OFFCURVE",
"-86 0 OFFCURVE",
"-20 0 CURVE SMOOTH",
"124 0 LINE SMOOTH",
"214 0 OFFCURVE",
"316 41 OFFCURVE",
"366 95 CURVE",
"449 20 OFFCURVE",
"625 0 OFFCURVE",
"749 0 CURVE SMOOTH"
);
}
);
width = 1851;
}
);
leftKerningGroup = all;
unicode = FEB3;
},
{
glyphname = "sad-ar";
lastChange = "2016-03-27 02:14:10 +0000";
layers = (
{
anchors = (
{
name = bottom;
position = "{707, -704}";
},
{
name = top;
position = "{742, 713}";
}
);
layerId = "93A312F7-B931-4485-B08E-C367313EB5E7";
name = SemiLight;
paths = (
{
closed = 1;
nodes = (
"818 -531 OFFCURVE",
"1176 -427 OFFCURVE",
"1296 -271 CURVE SMOOTH",
"1344 -208 OFFCURVE",
"1346 -147 OFFCURVE",
"1324 84 CURVE",
"1578 -72 OFFCURVE",
"2282 -36 OFFCURVE",
"2498 174 CURVE",
"2726 431 OFFCURVE",
"2376 779 OFFCURVE",
"2124 781 CURVE SMOOTH",
"1947 782 OFFCURVE",
"1727 712 OFFCURVE",
"1355 254 CURVE",
"1287 312 OFFCURVE",
"1293 419 OFFCURVE",
"1272 577 CURVE SMOOTH",
"1269 596 OFFCURVE",
"1252 601 OFFCURVE",
"1239 591 CURVE SMOOTH",
"1128 509 LINE SMOOTH",
"1124 506 OFFCURVE",
"1121 500 OFFCURVE",
"1122 494 CURVE SMOOTH",
"1216 -177 LINE SMOOTH",
"1217 -184 OFFCURVE",
"1213 -191 OFFCURVE",
"1206 -194 CURVE SMOOTH",
"1124 -233 OFFCURVE",
"929 -330 OFFCURVE",
"619 -330 CURVE SMOOTH",
"382 -330 OFFCURVE",
"255 -217 OFFCURVE",
"305 61 CURVE SMOOTH",
"339 251 LINE SMOOTH",
"341 262 OFFCURVE",
"334 269 OFFCURVE",
"323 271 CURVE SMOOTH",
"250 282 LINE SMOOTH",
"240 284 OFFCURVE",
"232 278 OFFCURVE",
"230 268 CURVE SMOOTH",
"189 38 LINE SMOOTH",
"137 -255 OFFCURVE",
"200 -531 OFFCURVE",
"591 -531 CURVE SMOOTH"
);
},
{
closed = 1;
nodes = (
"1722 541 OFFCURVE",
"1880 606 OFFCURVE",
"2044 606 CURVE SMOOTH",
"2254 606 OFFCURVE",
"2414 406 OFFCURVE",
"2458 320 CURVE SMOOTH",
"2462 309 OFFCURVE",
"2460 302 OFFCURVE",
"2451 297 CURVE SMOOTH",
"2178 133 OFFCURVE",
"1747 133 OFFCURVE",
"1451 215 CURVE"
);
}
);
width = 2709;
},
{
anchors = (
{
name = bottom;
position = "{694, -750}";
},
{
name = top;
position = "{759, 713}";
}
);
layerId = "00FED3EE-B3F5-49E6-B91A-35FC52169726";
name = Regular;
paths = (
{
closed = 1;
nodes = (
"836 -541 OFFCURVE",
"1199 -436 OFFCURVE",
"1321 -277 CURVE SMOOTH",
"1351 -237 OFFCURVE",
"1364 -199 OFFCURVE",
"1364 -118 CURVE SMOOTH",
"1364 -73 OFFCURVE",
"1360 -14 OFFCURVE",
"1353 66 CURVE",
"1461 7 OFFCURVE",
"1636 -22 OFFCURVE",
"1821 -22 CURVE SMOOTH",
"2096 -22 OFFCURVE",
"2394 42 OFFCURVE",
"2522 167 CURVE",
"2570 221 OFFCURVE",
"2591 286 OFFCURVE",
"2591 353 CURVE SMOOTH",
"2591 560 OFFCURVE",
"2389 789 OFFCURVE",
"2141 791 CURVE SMOOTH",
"1963 792 OFFCURVE",
"1741 721 OFFCURVE",
"1371 269 CURVE",
"1315 325 OFFCURVE",
"1319 427 OFFCURVE",
"1299 578 CURVE SMOOTH",
"1296 596 OFFCURVE",
"1284 606 OFFCURVE",
"1270 606 CURVE SMOOTH",
"1263 606 OFFCURVE",
"1256 604 OFFCURVE",
"1250 599 CURVE SMOOTH",
"1139 517 LINE SMOOTH",
"1133 513 OFFCURVE",
"1129 503 OFFCURVE",
"1129 495 CURVE",
"1223 -178 LINE",
"1223 -181 OFFCURVE",
"1222 -183 OFFCURVE",
"1219 -185 CURVE SMOOTH",
"1137 -224 OFFCURVE",
"944 -320 OFFCURVE",
"636 -320 CURVE SMOOTH",
"426 -320 OFFCURVE",
"321 -230 OFFCURVE",
"321 -50 CURVE SMOOTH",
"321 3 OFFCURVE",
"327 31 OFFCURVE",
"366 249 CURVE SMOOTH",
"369 265 OFFCURVE",
"359 278 OFFCURVE",
"342 281 CURVE SMOOTH",
"268 292 LINE SMOOTH",
"254 295 OFFCURVE",
"240 286 OFFCURVE",
"237 270 CURVE SMOOTH",
"189 5 OFFCURVE",
"180 -40 OFFCURVE",
"180 -128 CURVE SMOOTH",
"180 -397 OFFCURVE",
"327 -541 OFFCURVE",
"608 -541 CURVE SMOOTH"
);
},
{
closed = 1;
nodes = (
"1749 534 OFFCURVE",
"1901 596 OFFCURVE",
"2061 596 CURVE SMOOTH",
"2266 596 OFFCURVE",
"2422 401 OFFCURVE",
"2466 316 CURVE SMOOTH",
"2469 310 OFFCURVE",
"2467 308 OFFCURVE",
"2463 306 CURVE SMOOTH",
"2305 211 OFFCURVE",
"2093 171 OFFCURVE",
"1885 171 CURVE SMOOTH",
"1744 171 OFFCURVE",
"1605 189 OFFCURVE",
"1486 221 CURVE"
);
}
);
width = 2731;
}
);
leftKerningGroup = all;
unicode = 0635;
},
{
glyphname = "sad-ar.fina";
lastChange = "2016-03-15 08:37:52 +0000";
layers = (
{
anchors = (
{
name = bottom;
position = "{707, -704}";
},
{
name = top;
position = "{742, 713}";
}
);
layerId = "93A312F7-B931-4485-B08E-C367313EB5E7";
name = SemiLight;
paths = (
{
closed = 1;
nodes = (
"815 -531 OFFCURVE",
"1164 -437 OFFCURVE",
"1283 -271 CURVE SMOOTH",
"1330 -206 OFFCURVE",
"1342 -151 OFFCURVE",
"1321 61 CURVE",
"1448 14 OFFCURVE",
"1615 -8 OFFCURVE",
"1784 -6 CURVE SMOOTH",
"1999 -5 OFFCURVE",
"2261 33 OFFCURVE",
"2406 92 CURVE SMOOTH",
"2415 96 OFFCURVE",
"2422 94 OFFCURVE",
"2429 86 CURVE SMOOTH",
"2498 12 OFFCURVE",
"2611 0 OFFCURVE",
"2783 0 CURVE SMOOTH",
"2849 0 LINE",
"2897 60 OFFCURVE",
"2897 119 OFFCURVE",
"2849 179 CURVE",
"2783 179 LINE SMOOTH",
"2722 179 OFFCURVE",
"2601 183 OFFCURVE",
"2519 199 CURVE SMOOTH",
"2507 201 OFFCURVE",
"2502 208 OFFCURVE",
"2506 220 CURVE SMOOTH",
"2589 473 OFFCURVE",
"2369 790 OFFCURVE",
"2106 792 CURVE SMOOTH",
"1937 793 OFFCURVE",
"1709 659 OFFCURVE",
"1360 245 CURVE SMOOTH",
"1353 237 OFFCURVE",
"1346 234 OFFCURVE",
"1337 239 CURVE SMOOTH",
"1298 261 OFFCURVE",
"1294 289 OFFCURVE",
"1255 578 CURVE SMOOTH",
"1253 595 OFFCURVE",
"1243 599 OFFCURVE",
"1233 591 CURVE SMOOTH",
"1117 504 LINE SMOOTH",
"1110 498 OFFCURVE",
"1105 492 OFFCURVE",
"1107 482 CURVE SMOOTH",
"1216 -190 LINE",
"1194 -200 OFFCURVE",
"906 -330 OFFCURVE",
"616 -330 CURVE SMOOTH",
"391 -330 OFFCURVE",
"252 -216 OFFCURVE",
"302 61 CURVE SMOOTH",
"337 252 LINE SMOOTH",
"339 262 OFFCURVE",
"334 269 OFFCURVE",
"323 271 CURVE SMOOTH",
"247 282 LINE SMOOTH",
"237 283 OFFCURVE",
"230 279 OFFCURVE",
"228 268 CURVE SMOOTH",
"186 38 LINE SMOOTH",
"133 -255 OFFCURVE",
"221 -531 OFFCURVE",
"589 -531 CURVE SMOOTH"
);
},
{
closed = 1;
nodes = (
"1717 518 OFFCURVE",
"1904 615 OFFCURVE",
"2067 615 CURVE SMOOTH",
"2272 615 OFFCURVE",
"2399 357 OFFCURVE",
"2420 285 CURVE SMOOTH",
"2423 276 OFFCURVE",
"2418 269 OFFCURVE",
"2408 265 CURVE SMOOTH",
"2078 137 OFFCURVE",
"1732 153 OFFCURVE",
"1455 201 CURVE"
);
}
);
width = 2829;
},
{
anchors = (
{
name = bottom;
position = "{685, -734}";
},
{
name = top;
position = "{760, 723}";
}
);
layerId = "00FED3EE-B3F5-49E6-B91A-35FC52169726";
name = Regular;
paths = (
{
closed = 1;
nodes = (
"834 -531 OFFCURVE",
"1188 -436 OFFCURVE",
"1309 -267 CURVE SMOOTH",
"1342 -221 OFFCURVE",
"1358 -179 OFFCURVE",
"1358 -88 CURVE SMOOTH",
"1358 -50 OFFCURVE",
"1356 -3 OFFCURVE",
"1350 56 CURVE",
"1467 16 OFFCURVE",
"1619 -6 OFFCURVE",
"1781 -6 CURVE SMOOTH",
"2001 -6 OFFCURVE",
"2277 31 OFFCURVE",
"2428 93 CURVE SMOOTH",
"2433 95 OFFCURVE",
"2435 94 OFFCURVE",
"2439 89 CURVE SMOOTH",
"2511 12 OFFCURVE",
"2628 0 OFFCURVE",
"2801 0 CURVE SMOOTH",
"2872 0 LINE",
"2900 33 OFFCURVE",
"2913 66 OFFCURVE",
"2913 100 CURVE SMOOTH",
"2913 133 OFFCURVE",
"2900 166 OFFCURVE",
"2872 199 CURVE",
"2801 199 LINE SMOOTH",
"2740 199 OFFCURVE",
"2620 203 OFFCURVE",
"2539 219 CURVE SMOOTH",
"2532 220 OFFCURVE",
"2532 221 OFFCURVE",
"2533 227 CURVE SMOOTH",
"2546 265 OFFCURVE",
"2552 305 OFFCURVE",
"2552 345 CURVE SMOOTH",
"2552 575 OFFCURVE",
"2353 810 OFFCURVE",
"2124 812 CURVE SMOOTH",
"1928 813 OFFCURVE",
"1685 635 OFFCURVE",
"1370 261 CURVE SMOOTH",
"1366 256 OFFCURVE",
"1364 256 OFFCURVE",
"1360 258 CURVE SMOOTH",
"1327 276 OFFCURVE",
"1323 291 OFFCURVE",
"1283 589 CURVE SMOOTH",
"1281 606 OFFCURVE",
"1272 615 OFFCURVE",
"1261 615 CURVE SMOOTH",
"1256 615 OFFCURVE",
"1250 613 OFFCURVE",
"1245 609 CURVE SMOOTH",
"1129 522 LINE SMOOTH",
"1121 516 OFFCURVE",
"1113 505 OFFCURVE",
"1115 490 CURVE SMOOTH",
"1223 -174 LINE",
"1173 -196 OFFCURVE",
"904 -310 OFFCURVE",
"634 -310 CURVE SMOOTH",
"427 -310 OFFCURVE",
"320 -215 OFFCURVE",
"320 -34 CURVE SMOOTH",
"320 22 OFFCURVE",
"327 55 OFFCURVE",
"365 260 CURVE SMOOTH",
"368 276 OFFCURVE",
"359 288 OFFCURVE",
"343 291 CURVE SMOOTH",
"266 302 LINE SMOOTH",
"250 304 OFFCURVE",
"239 295 OFFCURVE",
"236 280 CURVE SMOOTH",
"188 17 OFFCURVE",
"180 -15 OFFCURVE",
"180 -99 CURVE SMOOTH",
"180 -335 OFFCURVE",
"296 -531 OFFCURVE",
"607 -531 CURVE SMOOTH"
);
},
{
closed = 1;
nodes = (
"1747 523 OFFCURVE",
"1927 615 OFFCURVE",
"2085 615 CURVE SMOOTH",
"2284 615 OFFCURVE",
"2408 363 OFFCURVE",
"2428 292 CURVE SMOOTH",
"2429 289 OFFCURVE",
"2428 287 OFFCURVE",
"2422 284 CURVE SMOOTH",
"2235 212 OFFCURVE",
"2042 186 OFFCURVE",
"1860 186 CURVE SMOOTH",
"1730 186 OFFCURVE",
"1606 199 OFFCURVE",
"1492 218 CURVE"
);
}
);
width = 2848;
}
);
unicode = FEBA;
},
{
glyphname = "sad-ar.medi";
lastChange = "2016-03-15 08:37:05 +0000";
layers = (
{
anchors = (
{
name = bottom;
position = "{974, -192}";
},
{
name = top;
position = "{1148, 965}";
}
);
layerId = "93A312F7-B931-4485-B08E-C367313EB5E7";
name = SemiLight;
paths = (
{
closed = 1;
nodes = (
"1083 -1 OFFCURVE",
"1348 39 OFFCURVE",
"1492 110 CURVE SMOOTH",
"1498 114 OFFCURVE",
"1505 112 OFFCURVE",
"1512 103 CURVE SMOOTH",
"1581 28 OFFCURVE",
"1693 0 OFFCURVE",
"1865 0 CURVE SMOOTH",
"1931 0 LINE",
"1979 60 OFFCURVE",
"1979 119 OFFCURVE",
"1931 179 CURVE",
"1865 179 LINE SMOOTH",
"1804 179 OFFCURVE",
"1684 183 OFFCURVE",
"1601 199 CURVE SMOOTH",
"1589 201 OFFCURVE",
"1585 208 OFFCURVE",
"1588 220 CURVE SMOOTH",
"1671 473 OFFCURVE",
"1451 790 OFFCURVE",
"1188 792 CURVE SMOOTH",
"1019 793 OFFCURVE",
"791 662 OFFCURVE",
"442 247 CURVE SMOOTH",
"436 239 OFFCURVE",
"428 236 OFFCURVE",
"419 240 CURVE SMOOTH",
"382 255 OFFCURVE",
"383 273 OFFCURVE",
"392 369 CURVE SMOOTH",
"411 583 LINE SMOOTH",
"412 593 OFFCURVE",
"405 601 OFFCURVE",
"394 601 CURVE SMOOTH",
"324 604 LINE SMOOTH",
"314 604 OFFCURVE",
"307 600 OFFCURVE",
"306 589 CURVE SMOOTH",
"276 360 LINE SMOOTH",
"260 237 OFFCURVE",
"230 179 OFFCURVE",
"46 179 CURVE SMOOTH",
"-20 179 LINE SMOOTH",
"-138 179 OFFCURVE",
"-138 0 OFFCURVE",
"-20 0 CURVE SMOOTH",
"46 0 LINE SMOOTH",
"155 0 OFFCURVE",
"247 31 OFFCURVE",
"309 102 CURVE",
"438 31 OFFCURVE",
"651 -5 OFFCURVE",
"866 -2 CURVE SMOOTH"
);
},
{
closed = 1;
nodes = (
"799 521 OFFCURVE",
"987 615 OFFCURVE",
"1149 615 CURVE SMOOTH",
"1355 615 OFFCURVE",
"1481 363 OFFCURVE",
"1502 293 CURVE SMOOTH",
"1505 284 OFFCURVE",
"1501 277 OFFCURVE",
"1490 273 CURVE SMOOTH",
"1132 130 OFFCURVE",
"849 150 OFFCURVE",
"537 205 CURVE"
);
}
);
width = 1911;
},
{
anchors = (
{
name = bottom;
position = "{974, -202}";
},
{
name = top;
position = "{1148, 1015}";
}
);
layerId = "00FED3EE-B3F5-49E6-B91A-35FC52169726";
name = Regular;
paths = (
{
closed = 1;
nodes = (
"1064 -2 OFFCURVE",
"1342 33 OFFCURVE",
"1492 108 CURVE SMOOTH",
"1496 110 OFFCURVE",
"1501 110 OFFCURVE",
"1504 107 CURVE SMOOTH",
"1572 33 OFFCURVE",
"1682 0 OFFCURVE",
"1865 0 CURVE SMOOTH",
"1936 0 LINE",
"1964 33 OFFCURVE",
"1977 66 OFFCURVE",
"1977 100 CURVE SMOOTH",
"1977 133 OFFCURVE",
"1964 166 OFFCURVE",
"1936 199 CURVE",
"1865 199 LINE SMOOTH",
"1804 199 OFFCURVE",
"1685 203 OFFCURVE",
"1603 219 CURVE SMOOTH",
"1597 220 OFFCURVE",
"1596 221 OFFCURVE",
"1598 228 CURVE SMOOTH",
"1610 266 OFFCURVE",
"1616 305 OFFCURVE",
"1616 344 CURVE SMOOTH",
"1616 574 OFFCURVE",
"1418 810 OFFCURVE",
"1188 812 CURVE SMOOTH",
"990 813 OFFCURVE",
"747 635 OFFCURVE",
"434 263 CURVE SMOOTH",
"432 260 OFFCURVE",
"430 258 OFFCURVE",
"427 258 CURVE SMOOTH",
"426 258 OFFCURVE",
"424 258 OFFCURVE",
"423 259 CURVE SMOOTH",
"404 267 OFFCURVE",
"397 273 OFFCURVE",
"397 304 CURVE",
"421 592 LINE",
"423 608 OFFCURVE",
"410 620 OFFCURVE",
"394 621 CURVE SMOOTH",
"324 624 LINE SMOOTH",
"308 624 OFFCURVE",
"297 615 OFFCURVE",
"296 600 CURVE SMOOTH",
"266 371 LINE SMOOTH",
"250 250 OFFCURVE",
"224 199 OFFCURVE",
"46 199 CURVE SMOOTH",
"-20 199 LINE SMOOTH",
"-86 199 OFFCURVE",
"-118 149 OFFCURVE",
"-118 100 CURVE SMOOTH",
"-118 50 OFFCURVE",
"-86 0 OFFCURVE",
"-20 0 CURVE SMOOTH",
"46 0 LINE SMOOTH",
"160 0 OFFCURVE",
"250 34 OFFCURVE",
"311 99 CURVE",
"433 35 OFFCURVE",
"629 -2 OFFCURVE",
"842 -2 CURVE SMOOTH"
);
},
{
closed = 1;
nodes = (
"782 492 OFFCURVE",
"969 615 OFFCURVE",
"1149 615 CURVE SMOOTH",
"1349 615 OFFCURVE",
"1472 369 OFFCURVE",
"1492 300 CURVE SMOOTH",
"1494 297 OFFCURVE",
"1493 295 OFFCURVE",
"1487 292 CURVE SMOOTH",
"1286 212 OFFCURVE",
"1109 184 OFFCURVE",
"938 184 CURVE SMOOTH",
"810 184 OFFCURVE",
"686 199 OFFCURVE",
"556 222 CURVE"
);
}
);
width = 1912;
}
);
unicode = FEBC;
},
{
glyphname = "sad-ar.init";
lastChange = "2016-03-27 02:14:10 +0000";
layers = (
{
anchors = (
{
name = bottom;
position = "{974, -192}";
},
{
name = top;
position = "{1148, 965}";
}
);
layerId = "93A312F7-B931-4485-B08E-C367313EB5E7";
name = SemiLight;
paths = (
{
closed = 1;
nodes = (
"1106 -2 OFFCURVE",
"1406 52 OFFCURVE",
"1573 197 CURVE SMOOTH",
"1787 386 OFFCURVE",
"1539 790 OFFCURVE",
"1211 792 CURVE SMOOTH",
"1041 793 OFFCURVE",
"812 657 OFFCURVE",
"460 237 CURVE SMOOTH",
"454 229 OFFCURVE",
"446 227 OFFCURVE",
"437 230 CURVE SMOOTH",
"382 247 OFFCURVE",
"382 254 OFFCURVE",
"392 365 CURVE SMOOTH",
"411 583 LINE SMOOTH",
"412 593 OFFCURVE",
"405 601 OFFCURVE",
"394 601 CURVE SMOOTH",
"324 604 LINE SMOOTH",
"314 604 OFFCURVE",
"308 600 OFFCURVE",
"306 589 CURVE SMOOTH",
"276 370 LINE SMOOTH",
"259 247 OFFCURVE",
"230 179 OFFCURVE",
"46 179 CURVE SMOOTH",
"-20 179 LINE SMOOTH",
"-138 179 OFFCURVE",
"-138 0 OFFCURVE",
"-20 0 CURVE SMOOTH",
"46 0 LINE SMOOTH",
"152 0 OFFCURVE",
"241 43 OFFCURVE",
"304 109 CURVE",
"432 28 OFFCURVE",
"624 -8 OFFCURVE",
"825 -6 CURVE SMOOTH"
);
},
{
closed = 1;
nodes = (
"822 516 OFFCURVE",
"980 603 OFFCURVE",
"1142 603 CURVE SMOOTH",
"1363 603 OFFCURVE",
"1505 416 OFFCURVE",
"1544 343 CURVE SMOOTH",
"1550 332 OFFCURVE",
"1547 326 OFFCURVE",
"1536 320 CURVE SMOOTH",
"1244 160 OFFCURVE",
"818 151 OFFCURVE",
"560 200 CURVE"
);
}
);
width = 1791;
},
{
anchors = (
{
name = bottom;
position = "{974, -202}";
},
{
name = top;
position = "{1198, 1015}";
}
);
layerId = "00FED3EE-B3F5-49E6-B91A-35FC52169726";
name = Regular;
paths = (
{
closed = 1;
nodes = (
"1176 -1 OFFCURVE",
"1663 92 OFFCURVE",
"1663 386 CURVE SMOOTH",
"1663 583 OFFCURVE",
"1461 811 OFFCURVE",
"1211 812 CURVE SMOOTH",
"1014 813 OFFCURVE",
"770 633 OFFCURVE",
"452 253 CURVE SMOOTH",
"450 250 OFFCURVE",
"447 249 OFFCURVE",
"444 249 CURVE SMOOTH",
"443 249 OFFCURVE",
"441 249 OFFCURVE",
"440 249 CURVE SMOOTH",
"408 260 OFFCURVE",
"397 263 OFFCURVE",
"397 302 CURVE",
"421 592 LINE",
"423 608 OFFCURVE",
"410 621 OFFCURVE",
"394 621 CURVE SMOOTH",
"324 624 LINE SMOOTH",
"309 624 OFFCURVE",
"299 616 OFFCURVE",
"296 601 CURVE SMOOTH",
"266 381 LINE SMOOTH",
"249 260 OFFCURVE",
"223 199 OFFCURVE",
"46 199 CURVE SMOOTH",
"-20 199 LINE SMOOTH",
"-86 199 OFFCURVE",
"-118 149 OFFCURVE",
"-118 100 CURVE SMOOTH",
"-118 50 OFFCURVE",
"-86 0 OFFCURVE",
"-20 0 CURVE SMOOTH",
"46 0 LINE SMOOTH",
"146 0 OFFCURVE",
"237 37 OFFCURVE",
"306 106 CURVE",
"428 32 OFFCURVE",
"612 -8 OFFCURVE",
"825 -6 CURVE SMOOTH"
);
},
{
closed = 1;
nodes = (
"812 496 OFFCURVE",
"970 603 OFFCURVE",
"1142 603 CURVE SMOOTH",
"1358 603 OFFCURVE",
"1497 421 OFFCURVE",
"1535 348 CURVE SMOOTH",
"1538 343 OFFCURVE",
"1539 343 OFFCURVE",
"1531 339 CURVE SMOOTH",
"1339 233 OFFCURVE",
"1087 193 OFFCURVE",
"865 193 CURVE SMOOTH",
"760 193 OFFCURVE",
"662 202 OFFCURVE",
"579 217 CURVE"
);
}
);
width = 1803;
}
);
leftKerningGroup = all;
unicode = FEBB;
},
{
glyphname = "tah-ar";
lastChange = "2016-03-27 02:14:10 +0000";
layers = (
{
anchors = (
{
name = bottom;
position = "{796, -195}";
},
{
name = top;
position = "{1225, 1018}";
}
);
layerId = "93A312F7-B931-4485-B08E-C367313EB5E7";
name = SemiLight;
paths = (
{
closed = 1;
nodes = (
"722 -31 OFFCURVE",
"1305 -33 OFFCURVE",
"1587 240 CURVE SMOOTH",
"1799 448 OFFCURVE",
"1544 838 OFFCURVE",
"1243 839 CURVE SMOOTH",
"1055 840 OFFCURVE",
"852 698 OFFCURVE",
"659 484 CURVE",
"689 581 OFFCURVE",
"693 690 OFFCURVE",
"689 844 CURVE SMOOTH",
"669 1511 LINE SMOOTH",
"668 1531 OFFCURVE",
"651 1540 OFFCURVE",
"634 1528 CURVE SMOOTH",
"503 1431 LINE SMOOTH",
"499 1428 OFFCURVE",
"496 1424 OFFCURVE",
"496 1418 CURVE SMOOTH",
"519 1032 OFFCURVE",
"541 795 OFFCURVE",
"546 635 CURVE SMOOTH",
"554 390 OFFCURVE",
"523 329 OFFCURVE",
"396 195 CURVE SMOOTH",
"393 191 OFFCURVE",
"389 191 OFFCURVE",
"384 191 CURVE SMOOTH",
"194 210 LINE SMOOTH",
"181 212 OFFCURVE",
"170 200 OFFCURVE",
"174 185 CURVE SMOOTH",
"209 36 OFFCURVE",
"246 -5 OFFCURVE",
"377 -12 CURVE SMOOTH"
);
},
{
closed = 1;
nodes = (
"871 554 OFFCURVE",
"989 647 OFFCURVE",
"1162 647 CURVE SMOOTH",
"1393 647 OFFCURVE",
"1513 453 OFFCURVE",
"1542 369 CURVE SMOOTH",
"1544 362 OFFCURVE",
"1541 355 OFFCURVE",
"1533 351 CURVE SMOOTH",
"1240 204 OFFCURVE",
"864 167 OFFCURVE",
"512 183 CURVE"
);
}
);
width = 1803;
},
{
anchors = (
{
name = bottom;
position = "{843, -235}";
},
{
name = top;
position = "{1242, 1048}";
}
);
layerId = "00FED3EE-B3F5-49E6-B91A-35FC52169726";
name = Regular;
paths = (
{
closed = 1;
nodes = (
"466 -26 OFFCURVE",
"551 -29 OFFCURVE",
"641 -29 CURVE SMOOTH",
"1058 -29 OFFCURVE",
"1691 71 OFFCURVE",
"1691 425 CURVE SMOOTH",
"1691 626 OFFCURVE",
"1487 848 OFFCURVE",
"1260 849 CURVE SMOOTH",
"1091 850 OFFCURVE",
"899 738 OFFCURVE",
"696 521 CURVE",
"712 589 OFFCURVE",
"717 665 OFFCURVE",
"717 757 CURVE",
"696 1511 LINE",
"695 1531 OFFCURVE",
"682 1544 OFFCURVE",
"666 1544 CURVE SMOOTH",
"659 1544 OFFCURVE",
"652 1541 OFFCURVE",
"645 1536 CURVE SMOOTH",
"514 1439 LINE SMOOTH",
"507 1434 OFFCURVE",
"503 1426 OFFCURVE",
"503 1418 CURVE SMOOTH",
"538 835 OFFCURVE",
"554 735 OFFCURVE",
"554 568 CURVE SMOOTH",
"554 381 OFFCURVE",
"520 323 OFFCURVE",
"408 204 CURVE SMOOTH",
"406 202 OFFCURVE",
"404 201 OFFCURVE",
"401 201 CURVE SMOOTH",
"338 204 OFFCURVE",
"275 211 OFFCURVE",
"212 220 CURVE SMOOTH",
"195 223 OFFCURVE",
"180 208 OFFCURVE",
"180 190 CURVE SMOOTH",
"180 187 OFFCURVE",
"180 185 OFFCURVE",
"181 182 CURVE SMOOTH",
"218 26 OFFCURVE",
"260 -15 OFFCURVE",
"393 -22 CURVE SMOOTH"
);
},
{
closed = 1;
nodes = (
"898 549 OFFCURVE",
"1012 637 OFFCURVE",
"1179 637 CURVE SMOOTH",
"1404 637 OFFCURVE",
"1520 449 OFFCURVE",
"1549 366 CURVE SMOOTH",
"1550 363 OFFCURVE",
"1547 361 OFFCURVE",
"1545 360 CURVE SMOOTH",
"1307 241 OFFCURVE",
"988 189 OFFCURVE",
"682 189 CURVE",
"551 192 LINE"
);
}
);
width = 1831;
}
);
leftKerningGroup = all;
unicode = 0637;
},
{
glyphname = "tah-ar.fina";
lastChange = "2016-03-15 08:42:06 +0000";
layers = (
{
anchors = (
{
name = bottom;
position = "{796, -195}";
},
{
name = top;
position = "{1225, 1018}";
}
);
layerId = "93A312F7-B931-4485-B08E-C367313EB5E7";
name = SemiLight;
paths = (
{
closed = 1;
nodes = (
"645 -15 OFFCURVE",
"1057 -20 OFFCURVE",
"1359 97 CURVE SMOOTH",
"1367 99 OFFCURVE",
"1374 98 OFFCURVE",
"1379 93 CURVE SMOOTH",
"1452 17 OFFCURVE",
"1625 0 OFFCURVE",
"1796 0 CURVE SMOOTH",
"1862 0 LINE",
"1910 60 OFFCURVE",
"1910 119 OFFCURVE",
"1862 179 CURVE",
"1796 179 LINE SMOOTH",
"1736 179 OFFCURVE",
"1619 185 OFFCURVE",
"1538 198 CURVE",
"1555 212 OFFCURVE",
"1572 225 OFFCURVE",
"1587 240 CURVE SMOOTH",
"1799 448 OFFCURVE",
"1544 818 OFFCURVE",
"1243 839 CURVE SMOOTH",
"1055 852 OFFCURVE",
"852 710 OFFCURVE",
"659 496 CURVE",
"689 592 OFFCURVE",
"695 702 OFFCURVE",
"689 856 CURVE SMOOTH",
"665 1519 LINE SMOOTH",
"664 1538 OFFCURVE",
"645 1547 OFFCURVE",
"630 1536 CURVE SMOOTH",
"499 1444 LINE SMOOTH",
"495 1441 OFFCURVE",
"492 1436 OFFCURVE",
"492 1432 CURVE SMOOTH",
"516 1036 OFFCURVE",
"538 795 OFFCURVE",
"543 635 CURVE SMOOTH",
"550 392 OFFCURVE",
"518 335 OFFCURVE",
"396 207 CURVE SMOOTH",
"393 203 OFFCURVE",
"389 201 OFFCURVE",
"384 202 CURVE SMOOTH",
"194 222 LINE SMOOTH",
"181 223 OFFCURVE",
"171 212 OFFCURVE",
"174 197 CURVE SMOOTH",
"209 47 OFFCURVE",
"246 7 OFFCURVE",
"377 0 CURVE SMOOTH"
);
},
{
closed = 1;
nodes = (
"871 566 OFFCURVE",
"989 657 OFFCURVE",
"1162 647 CURVE SMOOTH",
"1393 633 OFFCURVE",
"1513 451 OFFCURVE",
"1542 369 CURVE SMOOTH",
"1545 362 OFFCURVE",
"1541 355 OFFCURVE",
"1533 351 CURVE SMOOTH",
"1240 204 OFFCURVE",
"864 178 OFFCURVE",
"512 194 CURVE"
);
}
);
width = 1842;
},
{
anchors = (
{
name = bottom;
position = "{813, -205}";
},
{
name = top;
position = "{1242, 1058}";
}
);
layerId = "00FED3EE-B3F5-49E6-B91A-35FC52169726";
name = Regular;
paths = (
{
closed = 1;
nodes = (
"470 -4 OFFCURVE",
"559 -8 OFFCURVE",
"654 -8 CURVE SMOOTH",
"890 -8 OFFCURVE",
"1163 14 OFFCURVE",
"1379 97 CURVE SMOOTH",
"1384 99 OFFCURVE",
"1387 98 OFFCURVE",
"1389 96 CURVE SMOOTH",
"1452 31 OFFCURVE",
"1590 0 OFFCURVE",
"1813 0 CURVE SMOOTH",
"1884 0 LINE",
"1912 33 OFFCURVE",
"1925 66 OFFCURVE",
"1925 100 CURVE SMOOTH",
"1925 133 OFFCURVE",
"1912 166 OFFCURVE",
"1884 199 CURVE",
"1813 199 LINE SMOOTH",
"1759 199 OFFCURVE",
"1657 204 OFFCURVE",
"1579 215 CURVE",
"1649 272 OFFCURVE",
"1691 337 OFFCURVE",
"1691 432 CURVE SMOOTH",
"1691 637 OFFCURVE",
"1473 860 OFFCURVE",
"1236 860 CURVE SMOOTH",
"1075 860 OFFCURVE",
"893 752 OFFCURVE",
"697 543 CURVE",
"712 609 OFFCURVE",
"718 682 OFFCURVE",
"718 771 CURVE",
"692 1529 LINE",
"691 1548 OFFCURVE",
"677 1561 OFFCURVE",
"661 1561 CURVE SMOOTH",
"654 1561 OFFCURVE",
"647 1559 OFFCURVE",
"641 1554 CURVE SMOOTH",
"510 1462 LINE SMOOTH",
"504 1457 OFFCURVE",
"499 1449 OFFCURVE",
"499 1442 CURVE SMOOTH",
"535 850 OFFCURVE",
"551 739 OFFCURVE",
"551 585 CURVE SMOOTH",
"551 394 OFFCURVE",
"516 340 OFFCURVE",
"405 223 CURVE SMOOTH",
"404 222 OFFCURVE",
"403 222 OFFCURVE",
"402 222 CURVE SMOOTH",
"339 228 OFFCURVE",
"275 234 OFFCURVE",
"212 242 CURVE SMOOTH",
"192 244 OFFCURVE",
"177 226 OFFCURVE",
"181 205 CURVE SMOOTH",
"218 48 OFFCURVE",
"260 7 OFFCURVE",
"393 0 CURVE SMOOTH"
);
},
{
closed = 1;
nodes = (
"881 553 OFFCURVE",
"1000 648 OFFCURVE",
"1154 648 CURVE SMOOTH",
"1395 648 OFFCURVE",
"1520 460 OFFCURVE",
"1550 376 CURVE SMOOTH",
"1550 374 OFFCURVE",
"1550 372 OFFCURVE",
"1546 370 CURVE SMOOTH",
"1302 248 OFFCURVE",
"1003 210 OFFCURVE",
"706 210 CURVE",
"552 213 LINE"
);
}
);
width = 1860;
}
);
unicode = FEC2;
},
{
glyphname = "tah-ar.medi";
lastChange = "2016-03-15 08:42:47 +0000";
layers = (
{
anchors = (
{
name = bottom;
position = "{690, -173}";
},
{
name = top;
position = "{1097, 1017}";
}
);
layerId = "93A312F7-B931-4485-B08E-C367313EB5E7";
name = SemiLight;
paths = (
{
closed = 1;
nodes = (
"639 0 OFFCURVE",
"967 1 OFFCURVE",
"1218 95 CURVE SMOOTH",
"1225 98 OFFCURVE",
"1231 95 OFFCURVE",
"1235 91 CURVE SMOOTH",
"1310 16 OFFCURVE",
"1480 0 OFFCURVE",
"1651 0 CURVE SMOOTH",
"1717 0 LINE",
"1765 60 OFFCURVE",
"1765 119 OFFCURVE",
"1717 179 CURVE",
"1651 179 LINE SMOOTH",
"1595 179 OFFCURVE",
"1487 185 OFFCURVE",
"1406 197 CURVE",
"1425 210 OFFCURVE",
"1442 224 OFFCURVE",
"1458 240 CURVE SMOOTH",
"1670 448 OFFCURVE",
"1415 838 OFFCURVE",
"1114 839 CURVE SMOOTH",
"926 840 OFFCURVE",
"723 698 OFFCURVE",
"530 484 CURVE",
"560 581 OFFCURVE",
"565 690 OFFCURVE",
"560 844 CURVE SMOOTH",
"541 1515 LINE SMOOTH",
"540 1533 OFFCURVE",
"522 1544 OFFCURVE",
"506 1532 CURVE SMOOTH",
"383 1440 LINE SMOOTH",
"378 1436 OFFCURVE",
"376 1432 OFFCURVE",
"376 1427 CURVE SMOOTH",
"392 1028 OFFCURVE",
"410 787 OFFCURVE",
"411 626 CURVE SMOOTH",
"411 395 OFFCURVE",
"375 324 OFFCURVE",
"241 184 CURVE SMOOTH",
"238 181 OFFCURVE",
"235 179 OFFCURVE",
"231 179 CURVE SMOOTH",
"-20 179 LINE SMOOTH",
"-138 179 OFFCURVE",
"-138 0 OFFCURVE",
"-20 0 CURVE SMOOTH",
"368 0 LINE SMOOTH"
);
},
{
closed = 1;
nodes = (
"742 554 OFFCURVE",
"860 647 OFFCURVE",
"1033 647 CURVE SMOOTH",
"1264 647 OFFCURVE",
"1385 453 OFFCURVE",
"1413 369 CURVE SMOOTH",
"1416 362 OFFCURVE",
"1412 355 OFFCURVE",
"1404 351 CURVE SMOOTH",
"1081 191 OFFCURVE",
"735 190 OFFCURVE",
"383 183 CURVE"
);
}
);
width = 1697;
},
{
anchors = (
{
name = bottom;
position = "{690, -203}";
},
{
name = top;
position = "{1097, 1057}";
}
);
layerId = "00FED3EE-B3F5-49E6-B91A-35FC52169726";
name = Regular;
paths = (
{
closed = 1;
nodes = (
"639 0 OFFCURVE",
"969 1 OFFCURVE",
"1222 96 CURVE SMOOTH",
"1224 97 OFFCURVE",
"1225 96 OFFCURVE",
"1228 94 CURVE SMOOTH",
"1292 30 OFFCURVE",
"1428 0 OFFCURVE",
"1651 0 CURVE SMOOTH",
"1722 0 LINE",
"1750 33 OFFCURVE",
"1763 66 OFFCURVE",
"1763 100 CURVE SMOOTH",
"1763 133 OFFCURVE",
"1750 166 OFFCURVE",
"1722 199 CURVE",
"1651 199 LINE SMOOTH",
"1601 199 OFFCURVE",
"1509 204 OFFCURVE",
"1432 214 CURVE",
"1503 272 OFFCURVE",
"1545 337 OFFCURVE",
"1545 435 CURVE SMOOTH",
"1545 636 OFFCURVE",
"1341 858 OFFCURVE",
"1114 859 CURVE SMOOTH",
"946 860 OFFCURVE",
"754 748 OFFCURVE",
"550 531 CURVE",
"566 598 OFFCURVE",
"572 672 OFFCURVE",
"572 763 CURVE",
"551 1525 LINE",
"550 1545 OFFCURVE",
"536 1557 OFFCURVE",
"520 1557 CURVE SMOOTH",
"514 1557 OFFCURVE",
"507 1555 OFFCURVE",
"500 1550 CURVE SMOOTH",
"377 1458 LINE SMOOTH",
"370 1452 OFFCURVE",
"366 1445 OFFCURVE",
"366 1437 CURVE SMOOTH",
"382 1037 OFFCURVE",
"400 797 OFFCURVE",
"401 636 CURVE SMOOTH",
"401 407 OFFCURVE",
"367 340 OFFCURVE",
"234 201 CURVE SMOOTH",
"232 199 OFFCURVE",
"231 199 OFFCURVE",
"231 199 CURVE SMOOTH",
"-20 199 LINE SMOOTH",
"-86 199 OFFCURVE",
"-118 149 OFFCURVE",
"-118 100 CURVE SMOOTH",
"-118 50 OFFCURVE",
"-86 0 OFFCURVE",
"-20 0 CURVE SMOOTH",
"368 0 LINE SMOOTH"
);
},
{
closed = 1;
nodes = (
"752 559 OFFCURVE",
"866 647 OFFCURVE",
"1033 647 CURVE SMOOTH",
"1258 647 OFFCURVE",
"1376 459 OFFCURVE",
"1404 376 CURVE SMOOTH",
"1404 374 OFFCURVE",
"1404 372 OFFCURVE",
"1400 370 CURVE SMOOTH",
"1086 215 OFFCURVE",
"751 210 OFFCURVE",
"407 203 CURVE"
);
}
);
width = 1698;
}
);
unicode = FEC4;
},
{
glyphname = "tah-ar.init";
lastChange = "2016-03-27 02:14:10 +0000";
layers = (
{
anchors = (
{
name = bottom;
position = "{690, -173}";
},
{
name = top;
position = "{1097, 1017}";
}
);
layerId = "93A312F7-B931-4485-B08E-C367313EB5E7";
name = SemiLight;
paths = (
{
closed = 1;
nodes = (
"368 0 LINE SMOOTH",
"739 0 OFFCURVE",
"1217 6 OFFCURVE",
"1458 240 CURVE SMOOTH",
"1670 448 OFFCURVE",
"1416 838 OFFCURVE",
"1115 839 CURVE SMOOTH",
"927 840 OFFCURVE",
"723 698 OFFCURVE",
"530 484 CURVE",
"560 581 OFFCURVE",
"564 690 OFFCURVE",
"560 844 CURVE SMOOTH",
"541 1515 LINE SMOOTH",
"540 1533 OFFCURVE",
"522 1543 OFFCURVE",
"506 1532 CURVE SMOOTH",
"386 1446 LINE SMOOTH",
"381 1443 OFFCURVE",
"379 1438 OFFCURVE",
"379 1433 CURVE SMOOTH",
"393 1030 OFFCURVE",
"408 785 OFFCURVE",
"406 621 CURVE SMOOTH",
"403 386 OFFCURVE",
"366 317 OFFCURVE",
"241 184 CURVE SMOOTH",
"238 181 OFFCURVE",
"235 179 OFFCURVE",
"231 179 CURVE SMOOTH",
"-20 179 LINE SMOOTH",
"-138 179 OFFCURVE",
"-138 0 OFFCURVE",
"-20 0 CURVE SMOOTH"
);
},
{
closed = 1;
nodes = (
"742 554 OFFCURVE",
"860 647 OFFCURVE",
"1033 647 CURVE SMOOTH",
"1264 647 OFFCURVE",
"1385 453 OFFCURVE",
"1413 369 CURVE SMOOTH",
"1415 362 OFFCURVE",
"1412 355 OFFCURVE",
"1404 351 CURVE SMOOTH",
"1081 191 OFFCURVE",
"735 190 OFFCURVE",
"383 183 CURVE"
);
}
);
width = 1674;
},
{
anchors = (
{
name = bottom;
position = "{690, -193}";
},
{
name = top;
position = "{1097, 1057}";
}
);
layerId = "00FED3EE-B3F5-49E6-B91A-35FC52169726";
name = Regular;
paths = (
{
closed = 1;
nodes = (
"368 0 LINE SMOOTH",
"821 0 OFFCURVE",
"1545 40 OFFCURVE",
"1545 435 CURVE SMOOTH",
"1545 637 OFFCURVE",
"1342 858 OFFCURVE",
"1115 859 CURVE SMOOTH",
"946 860 OFFCURVE",
"753 747 OFFCURVE",
"550 531 CURVE",
"566 599 OFFCURVE",
"571 675 OFFCURVE",
"571 767 CURVE",
"551 1525 LINE",
"550 1544 OFFCURVE",
"536 1556 OFFCURVE",
"520 1556 CURVE SMOOTH",
"513 1556 OFFCURVE",
"506 1554 OFFCURVE",
"500 1550 CURVE SMOOTH",
"380 1464 LINE SMOOTH",
"377 1462 OFFCURVE",
"369 1455 OFFCURVE",
"369 1443 CURVE SMOOTH",
"390 844 OFFCURVE",
"396 787 OFFCURVE",
"396 631 CURVE SMOOTH",
"396 399 OFFCURVE",
"358 333 OFFCURVE",
"234 201 CURVE SMOOTH",
"232 199 OFFCURVE",
"231 199 OFFCURVE",
"231 199 CURVE SMOOTH",
"-20 199 LINE SMOOTH",
"-86 199 OFFCURVE",
"-118 149 OFFCURVE",
"-118 100 CURVE SMOOTH",
"-118 50 OFFCURVE",
"-86 0 OFFCURVE",
"-20 0 CURVE SMOOTH"
);
},
{
closed = 1;
nodes = (
"752 559 OFFCURVE",
"866 647 OFFCURVE",
"1033 647 CURVE SMOOTH",
"1258 647 OFFCURVE",
"1376 459 OFFCURVE",
"1404 376 CURVE SMOOTH",
"1404 374 OFFCURVE",
"1403 372 OFFCURVE",
"1400 370 CURVE SMOOTH",
"1086 215 OFFCURVE",
"751 210 OFFCURVE",
"407 203 CURVE"
);
}
);
width = 1685;
}
);
leftKerningGroup = all;
unicode = FEC3;
},
{
glyphname = "ain-ar";
lastChange = "2016-04-12 00:46:18 +0000";
layers = (
{
anchors = (
{
name = bottom;
position = "{853, -992}";
},
{
name = top;
position = "{592, 1357}";
}
);
layerId = "93A312F7-B931-4485-B08E-C367313EB5E7";
name = SemiLight;
paths = (
{
closed = 1;
nodes = (
"1171 -486 OFFCURVE",
"993 -517 OFFCURVE",
"819 -504 CURVE SMOOTH",
"459 -477 OFFCURVE",
"319 -305 OFFCURVE",
"361 -80 CURVE SMOOTH",
"423 250 OFFCURVE",
"789 440 OFFCURVE",
"1122 519 CURVE SMOOTH",
"1132 521 OFFCURVE",
"1135 529 OFFCURVE",
"1136 538 CURVE SMOOTH",
"1150 695 LINE SMOOTH",
"1151 709 OFFCURVE",
"1142 714 OFFCURVE",
"1130 710 CURVE SMOOTH",
"942 652 OFFCURVE",
"808 591 OFFCURVE",
"639 511 CURVE SMOOTH",
"603 494 OFFCURVE",
"576 493 OFFCURVE",
"543 519 CURVE SMOOTH",
"417 621 OFFCURVE",
"330 728 OFFCURVE",
"312 868 CURVE SMOOTH",
"311 877 OFFCURVE",
"313 883 OFFCURVE",
"321 890 CURVE SMOOTH",
"457 1021 OFFCURVE",
"637 1051 OFFCURVE",
"885 970 CURVE SMOOTH",
"897 966 OFFCURVE",
"908 974 OFFCURVE",
"905 985 CURVE SMOOTH",
"872 1112 LINE SMOOTH",
"869 1122 OFFCURVE",
"870 1126 OFFCURVE",
"860 1131 CURVE SMOOTH",
"552 1283 OFFCURVE",
"170 1130 OFFCURVE",
"183 806 CURVE SMOOTH",
"190 638 OFFCURVE",
"283 503 OFFCURVE",
"450 353 CURVE",
"217 91 OFFCURVE",
"133 -337 OFFCURVE",
"382 -563 CURVE SMOOTH",
"547 -712 OFFCURVE",
"829 -732 OFFCURVE",
"1094 -682 CURVE SMOOTH",
"1254 -652 OFFCURVE",
"1310 -616 OFFCURVE",
"1365 -477 CURVE SMOOTH",
"1371 -462 OFFCURVE",
"1356 -451 OFFCURVE",
"1338 -454 CURVE SMOOTH"
);
}
);
width = 1289;
},
{
anchors = (
{
name = bottom;
position = "{860, -912}";
},
{
name = top;
position = "{599, 1417}";
}
);
layerId = "00FED3EE-B3F5-49E6-B91A-35FC52169726";
name = Regular;
paths = (
{
closed = 1;
nodes = (
"1165 -490 OFFCURVE",
"977 -511 OFFCURVE",
"817 -498 CURVE SMOOTH",
"524 -476 OFFCURVE",
"371 -344 OFFCURVE",
"371 -149 CURVE SMOOTH",
"371 204 OFFCURVE",
"759 431 OFFCURVE",
"1131 519 CURVE SMOOTH",
"1144 522 OFFCURVE",
"1151 531 OFFCURVE",
"1153 547 CURVE SMOOTH",
"1167 704 LINE SMOOTH",
"1168 721 OFFCURVE",
"1158 731 OFFCURVE",
"1145 731 CURVE SMOOTH",
"1086 731 OFFCURVE",
"763 587 OFFCURVE",
"642 530 CURVE SMOOTH",
"626 522 OFFCURVE",
"613 519 OFFCURVE",
"601 519 CURVE SMOOTH",
"585 519 OFFCURVE",
"572 525 OFFCURVE",
"556 537 CURVE SMOOTH",
"431 638 OFFCURVE",
"347 742 OFFCURVE",
"329 879 CURVE SMOOTH",
"328 884 OFFCURVE",
"330 887 OFFCURVE",
"335 892 CURVE SMOOTH",
"421 974 OFFCURVE",
"521 1015 OFFCURVE",
"642 1015 CURVE SMOOTH",
"717 1015 OFFCURVE",
"798 1000 OFFCURVE",
"889 970 CURVE SMOOTH",
"904 965 OFFCURVE",
"928 976 OFFCURVE",
"922 998 CURVE SMOOTH",
"889 1125 LINE SMOOTH",
"883 1143 OFFCURVE",
"883 1144 OFFCURVE",
"871 1150 CURVE SMOOTH",
"786 1192 OFFCURVE",
"698 1211 OFFCURVE",
"614 1211 CURVE SMOOTH",
"374 1211 OFFCURVE",
"170 1052 OFFCURVE",
"180 816 CURVE SMOOTH",
"187 659 OFFCURVE",
"265 524 OFFCURVE",
"443 362 CURVE",
"311 210 OFFCURVE",
"228 0 OFFCURVE",
"228 -195 CURVE SMOOTH",
"228 -551 OFFCURVE",
"495 -729 OFFCURVE",
"866 -729 CURVE SMOOTH",
"941 -729 OFFCURVE",
"1021 -722 OFFCURVE",
"1103 -706 CURVE SMOOTH",
"1272 -674 OFFCURVE",
"1317 -632 OFFCURVE",
"1371 -495 CURVE SMOOTH",
"1378 -467 OFFCURVE",
"1358 -455 OFFCURVE",
"1333 -458 CURVE SMOOTH"
);
}
);
width = 1312;
}
);
leftKerningGroup = ain;
unicode = 0639;
},
{
glyphname = "ain-ar.fina";
lastChange = "2016-03-15 08:56:56 +0000";
layers = (
{
anchors = (
{
name = bottom;
position = "{798, -903}";
},
{
name = top;
position = "{719, 1289}";
}
);
background = {
paths = (
{
closed = 1;
nodes = (
"1278 -702 OFFCURVE",
"1334 -666 OFFCURVE",
"1389 -527 CURVE SMOOTH",
"1395 -512 OFFCURVE",
"1380 -501 OFFCURVE",
"1362 -504 CURVE SMOOTH",
"1195 -536 OFFCURVE",
"979 -567 OFFCURVE",
"785 -554 CURVE SMOOTH",
"425 -530 OFFCURVE",
"277 -354 OFFCURVE",
"327 -90 CURVE SMOOTH",
"356 83 OFFCURVE",
"473 225 OFFCURVE",
"629 332 CURVE SMOOTH",
"637 338 OFFCURVE",
"643 333 OFFCURVE",
"650 325 CURVE SMOOTH",
"923 10 OFFCURVE",
"1104 0 OFFCURVE",
"1275 0 CURVE SMOOTH",
"1322 0 LINE",
"1370 60 OFFCURVE",
"1370 119 OFFCURVE",
"1322 179 CURVE",
"1270 179 LINE SMOOTH",
"1020 179 OFFCURVE",
"898 291 OFFCURVE",
"775 420 CURVE SMOOTH",
"766 429 OFFCURVE",
"768 438 OFFCURVE",
"777 444 CURVE SMOOTH",
"929 545 OFFCURVE",
"1167 652 OFFCURVE",
"1178 812 CURVE SMOOTH",
"1193 1013 OFFCURVE",
"933 1113 OFFCURVE",
"716 1112 CURVE SMOOTH",
"568 1111 OFFCURVE",
"379 1051 OFFCURVE",
"273 1004 CURVE SMOOTH",
"265 1000 OFFCURVE",
"261 995 OFFCURVE",
"258 987 CURVE SMOOTH",
"175 781 LINE SMOOTH",
"170 769 OFFCURVE",
"175 765 OFFCURVE",
"184 759 CURVE SMOOTH",
"313 669 OFFCURVE",
"420 584 OFFCURVE",
"527 485 CURVE SMOOTH",
"536 476 OFFCURVE",
"535 468 OFFCURVE",
"526 461 CURVE SMOOTH",
"492 435 OFFCURVE",
"448 398 OFFCURVE",
"411 356 CURVE SMOOTH",
"158 63 OFFCURVE",
"122 -408 OFFCURVE",
"348 -613 CURVE SMOOTH",
"513 -762 OFFCURVE",
"815 -771 OFFCURVE",
"1080 -732 CURVE SMOOTH"
);
},
{
closed = 1;
nodes = (
"671 564 OFFCURVE",
"663 567 OFFCURVE",
"656 574 CURVE SMOOTH",
"522 709 OFFCURVE",
"402 808 OFFCURVE",
"356 843 CURVE SMOOTH",
"348 849 OFFCURVE",
"349 861 OFFCURVE",
"359 865 CURVE SMOOTH",
"646 975 OFFCURVE",
"926 957 OFFCURVE",
"1058 805 CURVE SMOOTH",
"1066 796 OFFCURVE",
"1064 787 OFFCURVE",
"1053 781 CURVE SMOOTH",
"680 569 LINE SMOOTH"
);
}
);
};
layerId = "93A312F7-B931-4485-B08E-C367313EB5E7";
name = SemiLight;
paths = (
{
closed = 1;
nodes = (
"1195 -476 OFFCURVE",
"979 -507 OFFCURVE",
"785 -494 CURVE SMOOTH",
"425 -470 OFFCURVE",
"277 -294 OFFCURVE",
"327 -90 CURVE SMOOTH",
"369 82 OFFCURVE",
"473 225 OFFCURVE",
"629 332 CURVE SMOOTH",
"637 338 OFFCURVE",
"643 333 OFFCURVE",
"650 325 CURVE SMOOTH",
"923 10 OFFCURVE",
"1104 0 OFFCURVE",
"1275 0 CURVE SMOOTH",
"1322 0 LINE",
"1370 60 OFFCURVE",
"1370 119 OFFCURVE",
"1322 179 CURVE",
"1270 179 LINE SMOOTH",
"1020 179 OFFCURVE",
"898 291 OFFCURVE",
"775 420 CURVE SMOOTH",
"766 429 OFFCURVE",
"768 438 OFFCURVE",
"777 444 CURVE SMOOTH",
"929 545 OFFCURVE",
"1167 652 OFFCURVE",
"1178 812 CURVE SMOOTH",
"1193 1013 OFFCURVE",
"933 1113 OFFCURVE",
"716 1112 CURVE SMOOTH",
"568 1111 OFFCURVE",
"379 1051 OFFCURVE",
"273 1004 CURVE SMOOTH",
"265 1000 OFFCURVE",
"261 995 OFFCURVE",
"258 987 CURVE SMOOTH",
"175 781 LINE SMOOTH",
"170 769 OFFCURVE",
"175 765 OFFCURVE",
"184 759 CURVE SMOOTH",
"313 669 OFFCURVE",
"420 584 OFFCURVE",
"527 485 CURVE SMOOTH",
"536 476 OFFCURVE",
"535 468 OFFCURVE",
"526 461 CURVE SMOOTH",
"218 228 OFFCURVE",
"67 -298 OFFCURVE",
"348 -553 CURVE SMOOTH",
"513 -702 OFFCURVE",
"815 -711 OFFCURVE",
"1080 -672 CURVE SMOOTH",
"1278 -642 OFFCURVE",
"1334 -606 OFFCURVE",
"1389 -467 CURVE SMOOTH",
"1395 -452 OFFCURVE",
"1380 -441 OFFCURVE",
"1362 -444 CURVE SMOOTH"
);
},
{
closed = 1;
nodes = (
"348 849 OFFCURVE",
"349 861 OFFCURVE",
"359 865 CURVE SMOOTH",
"646 975 OFFCURVE",
"926 957 OFFCURVE",
"1058 805 CURVE SMOOTH",
"1066 796 OFFCURVE",
"1064 787 OFFCURVE",
"1053 781 CURVE SMOOTH",
"680 569 LINE SMOOTH",
"671 564 OFFCURVE",
"663 567 OFFCURVE",
"656 574 CURVE SMOOTH",
"522 709 OFFCURVE",
"402 808 OFFCURVE",
"356 843 CURVE SMOOTH"
);
}
);
width = 1302;
},
{
anchors = (
{
name = bottom;
position = "{815, -903}";
},
{
name = top;
position = "{736, 1338}";
}
);
background = {
paths = (
{
closed = 1;
nodes = (
"1295 -702 OFFCURVE",
"1351 -666 OFFCURVE",
"1406 -527 CURVE SMOOTH",
"1412 -512 OFFCURVE",
"1397 -501 OFFCURVE",
"1379 -504 CURVE SMOOTH",
"1212 -536 OFFCURVE",
"996 -567 OFFCURVE",
"802 -554 CURVE SMOOTH",
"442 -530 OFFCURVE",
"294 -354 OFFCURVE",
"344 -90 CURVE SMOOTH",
"373 83 OFFCURVE",
"490 225 OFFCURVE",
"646 332 CURVE SMOOTH",
"654 338 OFFCURVE",
"660 333 OFFCURVE",
"667 325 CURVE SMOOTH",
"940 10 OFFCURVE",
"1121 0 OFFCURVE",
"1292 0 CURVE SMOOTH",
"1339 0 LINE",
"1387 60 OFFCURVE",
"1387 119 OFFCURVE",
"1339 179 CURVE",
"1287 179 LINE SMOOTH",
"1037 179 OFFCURVE",
"915 291 OFFCURVE",
"792 420 CURVE SMOOTH",
"783 429 OFFCURVE",
"785 438 OFFCURVE",
"794 444 CURVE SMOOTH",
"946 545 OFFCURVE",
"1184 652 OFFCURVE",
"1195 812 CURVE SMOOTH",
"1210 1013 OFFCURVE",
"950 1113 OFFCURVE",
"733 1112 CURVE SMOOTH",
"585 1111 OFFCURVE",
"396 1051 OFFCURVE",
"290 1004 CURVE SMOOTH",
"282 1000 OFFCURVE",
"278 995 OFFCURVE",
"275 987 CURVE SMOOTH",
"192 781 LINE SMOOTH",
"187 769 OFFCURVE",
"192 765 OFFCURVE",
"201 759 CURVE SMOOTH",
"330 669 OFFCURVE",
"437 584 OFFCURVE",
"544 485 CURVE SMOOTH",
"553 476 OFFCURVE",
"552 468 OFFCURVE",
"543 461 CURVE SMOOTH",
"509 435 OFFCURVE",
"465 398 OFFCURVE",
"428 356 CURVE SMOOTH",
"175 63 OFFCURVE",
"139 -408 OFFCURVE",
"365 -613 CURVE SMOOTH",
"530 -762 OFFCURVE",
"832 -771 OFFCURVE",
"1097 -732 CURVE SMOOTH"
);
},
{
closed = 1;
nodes = (
"688 564 OFFCURVE",
"680 567 OFFCURVE",
"673 574 CURVE SMOOTH",
"539 709 OFFCURVE",
"419 808 OFFCURVE",
"373 843 CURVE SMOOTH",
"365 849 OFFCURVE",
"366 861 OFFCURVE",
"376 865 CURVE SMOOTH",
"663 975 OFFCURVE",
"943 957 OFFCURVE",
"1075 805 CURVE SMOOTH",
"1083 796 OFFCURVE",
"1081 787 OFFCURVE",
"1070 781 CURVE SMOOTH",
"697 569 LINE SMOOTH"
);
}
);
};
layerId = "00FED3EE-B3F5-49E6-B91A-35FC52169726";
name = Regular;
paths = (
{
closed = 1;
nodes = (
"1224 -486 OFFCURVE",
"1068 -505 OFFCURVE",
"913 -505 CURVE SMOOTH",
"618 -505 OFFCURVE",
"344 -414 OFFCURVE",
"344 -160 CURVE SMOOTH",
"344 16 OFFCURVE",
"479 216 OFFCURVE",
"645 330 CURVE SMOOTH",
"650 333 OFFCURVE",
"656 333 OFFCURVE",
"660 329 CURVE SMOOTH",
"936 11 OFFCURVE",
"1121 0 OFFCURVE",
"1292 0 CURVE SMOOTH",
"1344 0 LINE",
"1372 33 OFFCURVE",
"1385 66 OFFCURVE",
"1385 100 CURVE SMOOTH",
"1385 133 OFFCURVE",
"1372 166 OFFCURVE",
"1344 199 CURVE",
"1287 199 LINE SMOOTH",
"1041 199 OFFCURVE",
"922 308 OFFCURVE",
"799 437 CURVE SMOOTH",
"795 441 OFFCURVE",
"795 443 OFFCURVE",
"800 446 CURVE SMOOTH",
"943 541 OFFCURVE",
"1206 657 OFFCURVE",
"1206 839 CURVE SMOOTH",
"1206 1035 OFFCURVE",
"949 1132 OFFCURVE",
"736 1132 CURVE SMOOTH",
"586 1132 OFFCURVE",
"393 1070 OFFCURVE",
"286 1023 CURVE SMOOTH",
"275 1018 OFFCURVE",
"270 1011 OFFCURVE",
"266 1001 CURVE",
"180 783 LINE",
"178 772 OFFCURVE",
"188 766 OFFCURVE",
"195 761 CURVE SMOOTH",
"327 669 OFFCURVE",
"433 584 OFFCURVE",
"537 488 CURVE SMOOTH",
"541 484 OFFCURVE",
"541 482 OFFCURVE",
"537 479 CURVE SMOOTH",
"341 331 OFFCURVE",
"207 52 OFFCURVE",
"207 -198 CURVE SMOOTH",
"207 -565 OFFCURVE",
"469 -726 OFFCURVE",
"858 -726 CURVE SMOOTH",
"935 -726 OFFCURVE",
"1013 -720 OFFCURVE",
"1088 -709 CURVE SMOOTH",
"1291 -678 OFFCURVE",
"1339 -639 OFFCURVE",
"1395 -498 CURVE SMOOTH",
"1402 -470 OFFCURVE",
"1382 -458 OFFCURVE",
"1357 -461 CURVE SMOOTH"
);
},
{
closed = 1;
nodes = (
"377 862 OFFCURVE",
"377 865 OFFCURVE",
"380 866 CURVE SMOOTH",
"502 913 OFFCURVE",
"621 936 OFFCURVE",
"727 936 CURVE SMOOTH",
"872 936 OFFCURVE",
"994 892 OFFCURVE",
"1067 808 CURVE SMOOTH",
"1071 805 OFFCURVE",
"1071 803 OFFCURVE",
"1065 800 CURVE SMOOTH",
"692 588 LINE SMOOTH",
"688 586 OFFCURVE",
"685 586 OFFCURVE",
"680 591 CURVE SMOOTH",
"546 726 OFFCURVE",
"425 826 OFFCURVE",
"379 861 CURVE SMOOTH"
);
}
);
width = 1320;
}
);
unicode = FECA;
},
{
glyphname = "ain-ar.medi";
lastChange = "2016-03-15 08:57:43 +0000";
layers = (
{
anchors = (
{
name = bottom;
position = "{610, -173}";
},
{
name = top;
position = "{658, 1032}";
}
);
layerId = "93A312F7-B931-4485-B08E-C367313EB5E7";
name = SemiLight;
paths = (
{
closed = 1;
nodes = (
"46 0 LINE SMOOTH",
"218 0 OFFCURVE",
"444 18 OFFCURVE",
"603 120 CURVE SMOOTH",
"612 126 OFFCURVE",
"619 123 OFFCURVE",
"627 118 CURVE SMOOTH",
"772 24 OFFCURVE",
"981 0 OFFCURVE",
"1173 0 CURVE SMOOTH",
"1239 0 LINE",
"1287 60 OFFCURVE",
"1287 119 OFFCURVE",
"1239 179 CURVE",
"1173 179 LINE SMOOTH",
"1057 179 OFFCURVE",
"867 190 OFFCURVE",
"793 209 CURVE SMOOTH",
"777 213 OFFCURVE",
"775 223 OFFCURVE",
"787 231 CURVE SMOOTH",
"910 317 OFFCURVE",
"1094 446 OFFCURVE",
"1093 557 CURVE SMOOTH",
"1091 761 OFFCURVE",
"841 858 OFFCURVE",
"658 857 CURVE SMOOTH",
"509 856 OFFCURVE",
"321 791 OFFCURVE",
"214 744 CURVE SMOOTH",
"206 741 OFFCURVE",
"202 735 OFFCURVE",
"199 727 CURVE SMOOTH",
"128 514 LINE SMOOTH",
"124 504 OFFCURVE",
"128 496 OFFCURVE",
"137 491 CURVE SMOOTH",
"250 431 OFFCURVE",
"375 347 OFFCURVE",
"492 245 CURVE SMOOTH",
"503 236 OFFCURVE",
"500 225 OFFCURVE",
"488 222 CURVE SMOOTH",
"365 192 OFFCURVE",
"198 179 OFFCURVE",
"46 179 CURVE SMOOTH",
"-20 179 LINE SMOOTH",
"-138 179 OFFCURVE",
"-138 0 OFFCURVE",
"-20 0 CURVE SMOOTH"
);
},
{
closed = 1;
nodes = (
"633 290 OFFCURVE",
"626 292 OFFCURVE",
"618 301 CURVE SMOOTH",
"495 431 OFFCURVE",
"340 537 OFFCURVE",
"286 572 CURVE SMOOTH",
"277 578 OFFCURVE",
"278 590 OFFCURVE",
"287 594 CURVE SMOOTH",
"426 649 OFFCURVE",
"550 681 OFFCURVE",
"639 679 CURVE SMOOTH",
"736 677 OFFCURVE",
"898 638 OFFCURVE",
"971 555 CURVE SMOOTH",
"978 547 OFFCURVE",
"975 538 OFFCURVE",
"966 531 CURVE SMOOTH",
"642 297 LINE SMOOTH"
);
}
);
width = 1219;
},
{
anchors = (
{
name = bottom;
position = "{610, -183}";
},
{
name = top;
position = "{658, 1072}";
}
);
layerId = "00FED3EE-B3F5-49E6-B91A-35FC52169726";
name = Regular;
paths = (
{
closed = 1;
nodes = (
"46 0 LINE SMOOTH",
"218 0 OFFCURVE",
"447 18 OFFCURVE",
"608 122 CURVE SMOOTH",
"612 124 OFFCURVE",
"615 124 OFFCURVE",
"622 120 CURVE SMOOTH",
"769 24 OFFCURVE",
"980 0 OFFCURVE",
"1173 0 CURVE SMOOTH",
"1244 0 LINE",
"1272 33 OFFCURVE",
"1285 66 OFFCURVE",
"1285 100 CURVE SMOOTH",
"1285 133 OFFCURVE",
"1272 166 OFFCURVE",
"1244 199 CURVE",
"1173 199 LINE SMOOTH",
"1057 199 OFFCURVE",
"869 210 OFFCURVE",
"795 229 CURVE SMOOTH",
"792 230 OFFCURVE",
"791 231 OFFCURVE",
"793 233 CURVE SMOOTH",
"916 319 OFFCURVE",
"1103 450 OFFCURVE",
"1103 566 CURVE SMOOTH",
"1103 775 OFFCURVE",
"847 877 OFFCURVE",
"661 877 CURVE SMOOTH",
"510 877 OFFCURVE",
"318 810 OFFCURVE",
"210 763 CURVE SMOOTH",
"201 759 OFFCURVE",
"194 752 OFFCURVE",
"190 741 CURVE",
"117 516 LINE",
"116 508 OFFCURVE",
"121 499 OFFCURVE",
"132 492 CURVE SMOOTH",
"252 428 OFFCURVE",
"376 343 OFFCURVE",
"485 247 CURVE SMOOTH",
"490 244 OFFCURVE",
"490 243 OFFCURVE",
"486 242 CURVE SMOOTH",
"363 212 OFFCURVE",
"198 199 OFFCURVE",
"46 199 CURVE SMOOTH",
"-20 199 LINE SMOOTH",
"-86 199 OFFCURVE",
"-118 149 OFFCURVE",
"-118 100 CURVE SMOOTH",
"-118 50 OFFCURVE",
"-86 0 OFFCURVE",
"-20 0 CURVE SMOOTH"
);
},
{
closed = 1;
nodes = (
"632 312 OFFCURVE",
"631 312 OFFCURVE",
"625 318 CURVE SMOOTH",
"502 449 OFFCURVE",
"346 555 OFFCURVE",
"291 590 CURVE SMOOTH",
"289 592 OFFCURVE",
"289 594 OFFCURVE",
"291 595 CURVE SMOOTH",
"430 650 OFFCURVE",
"547 679 OFFCURVE",
"631 679 CURVE SMOOTH",
"726 679 OFFCURVE",
"891 641 OFFCURVE",
"963 558 CURVE SMOOTH",
"966 556 OFFCURVE",
"965 553 OFFCURVE",
"960 549 CURVE SMOOTH",
"636 315 LINE SMOOTH"
);
}
);
width = 1220;
}
);
unicode = FECC;
},
{
glyphname = "ain-ar.init";
lastChange = "2016-03-27 02:14:10 +0000";
layers = (
{
anchors = (
{
name = bottom;
position = "{603, -161}";
},
{
name = top;
position = "{591, 1157}";
}
);
layerId = "93A312F7-B931-4485-B08E-C367313EB5E7";
name = SemiLight;
paths = (
{
closed = 1;
nodes = (
"46 0 LINE SMOOTH",
"454 0 OFFCURVE",
"692 64 OFFCURVE",
"1102 210 CURVE SMOOTH",
"1111 213 OFFCURVE",
"1116 220 OFFCURVE",
"1118 229 CURVE SMOOTH",
"1151 383 LINE SMOOTH",
"1154 396 OFFCURVE",
"1134 405 OFFCURVE",
"1121 399 CURVE SMOOTH",
"946 324 OFFCURVE",
"773 267 OFFCURVE",
"593 230 CURVE SMOOTH",
"574 226 OFFCURVE",
"559 229 OFFCURVE",
"547 244 CURVE SMOOTH",
"423 402 OFFCURVE",
"360 536 OFFCURVE",
"325 683 CURVE SMOOTH",
"323 693 OFFCURVE",
"323 701 OFFCURVE",
"332 707 CURVE SMOOTH",
"500 820 OFFCURVE",
"698 819 OFFCURVE",
"907 733 CURVE SMOOTH",
"919 728 OFFCURVE",
"930 734 OFFCURVE",
"928 745 CURVE SMOOTH",
"910 872 LINE SMOOTH",
"909 882 OFFCURVE",
"907 887 OFFCURVE",
"899 892 CURVE SMOOTH",
"607 1064 OFFCURVE",
"213 964 OFFCURVE",
"191 639 CURVE",
"189 520 OFFCURVE",
"247 376 OFFCURVE",
"374 194 CURVE",
"258 178 OFFCURVE",
"133 179 OFFCURVE",
"46 179 CURVE SMOOTH",
"-20 179 LINE SMOOTH",
"-138 179 OFFCURVE",
"-138 0 OFFCURVE",
"-20 0 CURVE SMOOTH"
);
}
);
width = 1289;
},
{
anchors = (
{
name = bottom;
position = "{603, -181}";
},
{
name = top;
position = "{591, 1197}";
}
);
layerId = "00FED3EE-B3F5-49E6-B91A-35FC52169726";
name = Regular;
paths = (
{
closed = 1;
nodes = (
"46 0 LINE SMOOTH",
"455 0 OFFCURVE",
"695 64 OFFCURVE",
"1105 211 CURVE SMOOTH",
"1117 214 OFFCURVE",
"1125 224 OFFCURVE",
"1128 237 CURVE SMOOTH",
"1161 391 LINE SMOOTH",
"1166 413 OFFCURVE",
"1137 428 OFFCURVE",
"1117 418 CURVE SMOOTH",
"984 361 OFFCURVE",
"660 248 OFFCURVE",
"578 248 CURVE SMOOTH",
"568 248 OFFCURVE",
"561 252 OFFCURVE",
"555 260 CURVE SMOOTH",
"439 408 OFFCURVE",
"372 541 OFFCURVE",
"335 695 CURVE SMOOTH",
"333 704 OFFCURVE",
"334 706 OFFCURVE",
"338 709 CURVE SMOOTH",
"423 766 OFFCURVE",
"518 795 OFFCURVE",
"622 795 CURVE SMOOTH",
"710 795 OFFCURVE",
"804 775 OFFCURVE",
"903 734 CURVE SMOOTH",
"907 732 OFFCURVE",
"912 731 OFFCURVE",
"915 731 CURVE SMOOTH",
"930 731 OFFCURVE",
"940 742 OFFCURVE",
"938 757 CURVE SMOOTH",
"920 883 LINE SMOOTH",
"918 897 OFFCURVE",
"914 904 OFFCURVE",
"904 910 CURVE SMOOTH",
"808 967 OFFCURVE",
"701 994 OFFCURVE",
"599 994 CURVE SMOOTH",
"387 994 OFFCURVE",
"197 874 OFFCURVE",
"181 650 CURVE SMOOTH",
"181 495 OFFCURVE",
"250 367 OFFCURVE",
"356 212 CURVE",
"277 202 OFFCURVE",
"172 199 OFFCURVE",
"46 199 CURVE SMOOTH",
"-20 199 LINE SMOOTH",
"-86 199 OFFCURVE",
"-118 149 OFFCURVE",
"-118 100 CURVE SMOOTH",
"-118 50 OFFCURVE",
"-86 0 OFFCURVE",
"-20 0 CURVE SMOOTH"
);
}
);
width = 1302;
}
);
leftKerningGroup = all;
unicode = FECB;
},
{
glyphname = "dotlessfeh-ar";
lastChange = "2016-03-27 02:14:10 +0000";
layers = (
{
anchors = (
{
name = bottom;
position = "{848, -216}";
},
{
name = top;
position = "{1350, 1293}";
}
);
layerId = "93A312F7-B931-4485-B08E-C367313EB5E7";
name = SemiLight;
paths = (
{
closed = 1;
nodes = (
"902 -47 OFFCURVE",
"1176 1 OFFCURVE",
"1381 54 CURVE SMOOTH",
"1688 135 OFFCURVE",
"1708 338 OFFCURVE",
"1708 506 CURVE",
"1690 800 OFFCURVE",
"1544 1116 OFFCURVE",
"1355 1116 CURVE SMOOTH",
"1124 1116 OFFCURVE",
"1011 831 OFFCURVE",
"1011 595 CURVE SMOOTH",
"1011 289 OFFCURVE",
"1382 322 OFFCURVE",
"1563 409 CURVE SMOOTH",
"1579 417 OFFCURVE",
"1594 408 OFFCURVE",
"1595 390 CURVE SMOOTH",
"1598 296 LINE",
"1474 236 OFFCURVE",
"1081 138 OFFCURVE",
"750 144 CURVE SMOOTH",
"480 148 OFFCURVE",
"258 223 OFFCURVE",
"279 454 CURVE SMOOTH",
"293 596 LINE SMOOTH",
"294 606 OFFCURVE",
"288 613 OFFCURVE",
"277 614 CURVE SMOOTH",
"214 620 LINE SMOOTH",
"204 621 OFFCURVE",
"195 614 OFFCURVE",
"194 604 CURVE SMOOTH",
"178 454 LINE SMOOTH",
"139 106 OFFCURVE",
"301 -31 OFFCURVE",
"666 -41 CURVE SMOOTH"
);
},
{
closed = 1;
nodes = (
"1129 559 OFFCURVE",
"1112 574 OFFCURVE",
"1112 580 CURVE SMOOTH",
"1114 773 OFFCURVE",
"1187 925 OFFCURVE",
"1314 925 CURVE SMOOTH",
"1428 925 OFFCURVE",
"1543 743 OFFCURVE",
"1578 558 CURVE",
"1580 550 OFFCURVE",
"1332 488 OFFCURVE",
"1163 547 CURVE SMOOTH"
);
}
);
width = 1846;
},
{
anchors = (
{
name = bottom;
position = "{866, -246}";
},
{
name = top;
position = "{1368, 1323}";
}
);
layerId = "00FED3EE-B3F5-49E6-B91A-35FC52169726";
name = Regular;
paths = (
{
closed = 1;
nodes = (
"180 53 OFFCURVE",
"381 -52 OFFCURVE",
"725 -52 CURVE SMOOTH",
"952 -52 OFFCURVE",
"1208 -6 OFFCURVE",
"1402 44 CURVE SMOOTH",
"1685 119 OFFCURVE",
"1738 299 OFFCURVE",
"1738 457 CURVE SMOOTH",
"1738 734 OFFCURVE",
"1591 1126 OFFCURVE",
"1373 1126 CURVE SMOOTH",
"1135 1126 OFFCURVE",
"1019 833 OFFCURVE",
"1019 595 CURVE SMOOTH",
"1019 402 OFFCURVE",
"1161 339 OFFCURVE",
"1313 339 CURVE SMOOTH",
"1411 339 OFFCURVE",
"1514 365 OFFCURVE",
"1585 400 CURVE SMOOTH",
"1595 405 OFFCURVE",
"1602 400 OFFCURVE",
"1603 389 CURVE SMOOTH",
"1606 302 LINE",
"1481 244 OFFCURVE",
"1116 154 OFFCURVE",
"798 154 CURVE SMOOTH",
"537 154 OFFCURVE",
"306 213 OFFCURVE",
"306 424 CURVE SMOOTH",
"306 445 OFFCURVE",
"309 473 OFFCURVE",
"321 595 CURVE SMOOTH",
"323 611 OFFCURVE",
"312 622 OFFCURVE",
"296 624 CURVE SMOOTH",
"233 630 LINE SMOOTH",
"217 632 OFFCURVE",
"204 620 OFFCURVE",
"202 605 CURVE SMOOTH",
"185 445 OFFCURVE",
"180 398 OFFCURVE",
"180 359 CURVE SMOOTH"
);
},
{
closed = 1;
nodes = (
"1236 530 OFFCURVE",
"1143 565 OFFCURVE",
"1140 580 CURVE",
"1140 782 OFFCURVE",
"1219 915 OFFCURVE",
"1332 915 CURVE SMOOTH",
"1433 915 OFFCURVE",
"1549 750 OFFCURVE",
"1586 556 CURVE",
"1584 555 OFFCURVE",
"1482 530 OFFCURVE",
"1364 530 CURVE SMOOTH"
);
}
);
width = 1878;
}
);
leftKerningGroup = all;
unicode = 06A1;
},
{
glyphname = "dotlessfeh-ar.fina";
lastChange = "2016-03-15 09:02:02 +0000";
layers = (
{
anchors = (
{
name = bottom;
position = "{848, -230}";
},
{
name = top;
position = "{1633, 1174}";
}
);
layerId = "93A312F7-B931-4485-B08E-C367313EB5E7";
name = SemiLight;
paths = (
{
closed = 1;
nodes = (
"950 -57 OFFCURVE",
"1290 2 OFFCURVE",
"1516 86 CURVE SMOOTH",
"1523 89 OFFCURVE",
"1528 88 OFFCURVE",
"1536 85 CURVE SMOOTH",
"1667 36 OFFCURVE",
"1843 0 OFFCURVE",
"2031 0 CURVE SMOOTH",
"2097 0 LINE",
"2145 60 OFFCURVE",
"2145 119 OFFCURVE",
"2097 179 CURVE",
"2031 179 LINE SMOOTH",
"1912 179 OFFCURVE",
"1771 190 OFFCURVE",
"1771 190 CURVE SMOOTH",
"1771 190 OFFCURVE",
"1916 420 OFFCURVE",
"1916 527 CURVE SMOOTH",
"1917 811 OFFCURVE",
"1745 999 OFFCURVE",
"1633 1002 CURVE SMOOTH",
"1439 1006 OFFCURVE",
"1252 699 OFFCURVE",
"1255 427 CURVE SMOOTH",
"1256 344 OFFCURVE",
"1270 275 OFFCURVE",
"1306 197 CURVE",
"1145 164 OFFCURVE",
"923 131 OFFCURVE",
"750 135 CURVE SMOOTH",
"480 139 OFFCURVE",
"258 214 OFFCURVE",
"279 445 CURVE SMOOTH",
"293 633 LINE SMOOTH",
"294 643 OFFCURVE",
"288 650 OFFCURVE",
"277 651 CURVE SMOOTH",
"214 657 LINE SMOOTH",
"204 658 OFFCURVE",
"196 651 OFFCURVE",
"195 641 CURVE SMOOTH",
"178 445 LINE SMOOTH",
"139 97 OFFCURVE",
"301 -41 OFFCURVE",
"666 -51 CURVE SMOOTH"
);
},
{
closed = 1;
nodes = (
"1447 283 OFFCURVE",
"1342 369 OFFCURVE",
"1354 507 CURVE SMOOTH",
"1363 615 OFFCURVE",
"1483 790 OFFCURVE",
"1593 790 CURVE SMOOTH",
"1732 790 OFFCURVE",
"1800 523 OFFCURVE",
"1814 463 CURVE SMOOTH",
"1816 454 OFFCURVE",
"1814 447 OFFCURVE",
"1809 440 CURVE SMOOTH",
"1758 363 OFFCURVE",
"1697 294 OFFCURVE",
"1623 237 CURVE SMOOTH",
"1616 231 OFFCURVE",
"1609 230 OFFCURVE",
"1600 233 CURVE SMOOTH"
);
}
);
width = 2077;
},
{
anchors = (
{
name = bottom;
position = "{846, -250}";
},
{
name = top;
position = "{1651, 1224}";
}
);
layerId = "00FED3EE-B3F5-49E6-B91A-35FC52169726";
name = Regular;
paths = (
{
closed = 1;
nodes = (
"1460 305 OFFCURVE",
"1381 387 OFFCURVE",
"1381 496 CURVE SMOOTH",
"1381 614 OFFCURVE",
"1505 790 OFFCURVE",
"1611 790 CURVE SMOOTH",
"1742 790 OFFCURVE",
"1808 531 OFFCURVE",
"1822 471 CURVE SMOOTH",
"1824 465 OFFCURVE",
"1822 461 OFFCURVE",
"1819 456 CURVE SMOOTH",
"1766 375 OFFCURVE",
"1703 309 OFFCURVE",
"1635 255 CURVE SMOOTH",
"1630 251 OFFCURVE",
"1627 250 OFFCURVE",
"1621 252 CURVE SMOOTH"
);
},
{
closed = 1;
nodes = (
"1838 261 OFFCURVE",
"1944 446 OFFCURVE",
"1944 539 CURVE SMOOTH",
"1944 830 OFFCURVE",
"1764 1022 OFFCURVE",
"1647 1022 CURVE SMOOTH",
"1456 1022 OFFCURVE",
"1263 727 OFFCURVE",
"1263 443 CURVE SMOOTH",
"1263 358 OFFCURVE",
"1277 289 OFFCURVE",
"1310 214 CURVE",
"1159 184 OFFCURVE",
"961 155 OFFCURVE",
"798 155 CURVE SMOOTH",
"537 155 OFFCURVE",
"306 214 OFFCURVE",
"306 425 CURVE SMOOTH",
"306 440 OFFCURVE",
"309 489 OFFCURVE",
"321 642 CURVE SMOOTH",
"323 658 OFFCURVE",
"312 669 OFFCURVE",
"296 671 CURVE SMOOTH",
"233 677 LINE SMOOTH",
"218 678 OFFCURVE",
"205 668 OFFCURVE",
"203 652 CURVE SMOOTH",
"184 439 OFFCURVE",
"180 393 OFFCURVE",
"180 360 CURVE SMOOTH",
"180 52 OFFCURVE",
"381 -51 OFFCURVE",
"724 -51 CURVE SMOOTH",
"1001 -51 OFFCURVE",
"1322 6 OFFCURVE",
"1537 87 CURVE SMOOTH",
"1541 88 OFFCURVE",
"1544 88 OFFCURVE",
"1550 86 CURVE SMOOTH",
"1697 31 OFFCURVE",
"1876 0 OFFCURVE",
"2049 0 CURVE SMOOTH",
"2120 0 LINE",
"2148 33 OFFCURVE",
"2161 66 OFFCURVE",
"2161 100 CURVE SMOOTH",
"2161 133 OFFCURVE",
"2148 166 OFFCURVE",
"2120 199 CURVE",
"2049 199 LINE SMOOTH",
"1955 199 OFFCURVE",
"1847 206 OFFCURVE",
"1806 209 CURVE"
);
}
);
width = 2096;
}
);
},
{
glyphname = "dotlessfeh-ar.medi";
lastChange = "2016-03-15 09:02:25 +0000";
layers = (
{
anchors = (
{
name = bottom;
position = "{491, -174}";
},
{
name = top;
position = "{536, 1174}";
}
);
layerId = "93A312F7-B931-4485-B08E-C367313EB5E7";
name = SemiLight;
paths = (
{
closed = 1;
nodes = (
"46 0 LINE SMOOTH",
"247 0 OFFCURVE",
"384 36 OFFCURVE",
"491 90 CURVE",
"623 38 OFFCURVE",
"804 0 OFFCURVE",
"997 0 CURVE SMOOTH",
"1063 0 LINE",
"1111 60 OFFCURVE",
"1111 119 OFFCURVE",
"1063 179 CURVE",
"997 179 LINE SMOOTH",
"879 179 OFFCURVE",
"737 190 OFFCURVE",
"737 190 CURVE",
"789 260 OFFCURVE",
"876 389 OFFCURVE",
"877 522 CURVE SMOOTH",
"880 752 OFFCURVE",
"761 998 OFFCURVE",
"599 1002 CURVE SMOOTH",
"405 1006 OFFCURVE",
"217 699 OFFCURVE",
"221 427 CURVE SMOOTH",
"222 321 OFFCURVE",
"253 248 OFFCURVE",
"290 193 CURVE",
"241 187 OFFCURVE",
"135 179 OFFCURVE",
"46 179 CURVE SMOOTH",
"-20 179 LINE SMOOTH",
"-138 179 OFFCURVE",
"-138 0 OFFCURVE",
"-20 0 CURVE SMOOTH"
);
},
{
closed = 1;
nodes = (
"414 282 OFFCURVE",
"308 368 OFFCURVE",
"320 507 CURVE SMOOTH",
"329 615 OFFCURVE",
"450 790 OFFCURVE",
"559 790 CURVE SMOOTH",
"702 790 OFFCURVE",
"777 511 OFFCURVE",
"790 459 CURVE SMOOTH",
"791 454 OFFCURVE",
"791 450 OFFCURVE",
"787 445 CURVE SMOOTH",
"723 361 OFFCURVE",
"655 292 OFFCURVE",
"585 236 CURVE SMOOTH",
"580 232 OFFCURVE",
"575 230 OFFCURVE",
"569 232 CURVE SMOOTH"
);
}
);
width = 1043;
},
{
anchors = (
{
name = bottom;
position = "{491, -184}";
},
{
name = top;
position = "{597, 1224}";
}
);
layerId = "00FED3EE-B3F5-49E6-B91A-35FC52169726";
name = Regular;
paths = (
{
closed = 1;
nodes = (
"410 304 OFFCURVE",
"329 386 OFFCURVE",
"329 496 CURVE SMOOTH",
"329 613 OFFCURVE",
"453 790 OFFCURVE",
"559 790 CURVE SMOOTH",
"694 790 OFFCURVE",
"767 518 OFFCURVE",
"780 467 CURVE SMOOTH",
"781 464 OFFCURVE",
"781 463 OFFCURVE",
"779 461 CURVE SMOOTH",
"717 380 OFFCURVE",
"651 311 OFFCURVE",
"579 254 CURVE SMOOTH",
"575 251 OFFCURVE",
"574 251 OFFCURVE",
"572 251 CURVE SMOOTH"
);
},
{
closed = 1;
nodes = (
"809 282 OFFCURVE",
"886 405 OFFCURVE",
"887 532 CURVE SMOOTH",
"890 789 OFFCURVE",
"755 1022 OFFCURVE",
"595 1022 CURVE SMOOTH",
"404 1022 OFFCURVE",
"211 729 OFFCURVE",
"211 446 CURVE SMOOTH",
"211 342 OFFCURVE",
"238 266 OFFCURVE",
"273 211 CURVE",
"219 205 OFFCURVE",
"126 199 OFFCURVE",
"46 199 CURVE SMOOTH",
"-20 199 LINE SMOOTH",
"-86 199 OFFCURVE",
"-118 149 OFFCURVE",
"-118 100 CURVE SMOOTH",
"-118 50 OFFCURVE",
"-86 0 OFFCURVE",
"-20 0 CURVE SMOOTH",
"46 0 LINE SMOOTH",
"226 0 OFFCURVE",
"370 29 OFFCURVE",
"491 89 CURVE",
"638 32 OFFCURVE",
"820 0 OFFCURVE",
"997 0 CURVE SMOOTH",
"1068 0 LINE",
"1096 33 OFFCURVE",
"1109 66 OFFCURVE",
"1109 100 CURVE SMOOTH",
"1109 133 OFFCURVE",
"1096 166 OFFCURVE",
"1068 199 CURVE",
"997 199 LINE SMOOTH",
"905 199 OFFCURVE",
"798 206 OFFCURVE",
"756 209 CURVE"
);
}
);
width = 1044;
}
);
},
{
glyphname = "dotlessfeh-ar.init";
lastChange = "2016-03-27 02:14:10 +0000";
layers = (
{
anchors = (
{
name = bottom;
position = "{399, -173}";
},
{
name = top;
position = "{418, 1280}";
}
);
layerId = "93A312F7-B931-4485-B08E-C367313EB5E7";
name = SemiLight;
paths = (
{
closed = 1;
nodes = (
"46 0 LINE SMOOTH",
"222 0 OFFCURVE",
"360 -3 OFFCURVE",
"528 35 CURVE SMOOTH",
"844 107 OFFCURVE",
"867 291 OFFCURVE",
"853 520 CURVE SMOOTH",
"836 814 OFFCURVE",
"690 1129 OFFCURVE",
"500 1129 CURVE SMOOTH",
"269 1129 OFFCURVE",
"156 845 OFFCURVE",
"156 608 CURVE SMOOTH",
"156 302 OFFCURVE",
"532 336 OFFCURVE",
"713 423 CURVE SMOOTH",
"729 431 OFFCURVE",
"745 422 OFFCURVE",
"745 404 CURVE SMOOTH",
"744 284 LINE SMOOTH",
"744 278 OFFCURVE",
"742 272 OFFCURVE",
"735 269 CURVE SMOOTH",
"499 173 OFFCURVE",
"105 179 OFFCURVE",
"46 179 CURVE SMOOTH",
"-20 179 LINE SMOOTH",
"-138 179 OFFCURVE",
"-138 0 OFFCURVE",
"-20 0 CURVE SMOOTH"
);
},
{
closed = 1;
nodes = (
"275 573 OFFCURVE",
"258 588 OFFCURVE",
"258 593 CURVE SMOOTH",
"260 787 OFFCURVE",
"332 938 OFFCURVE",
"460 938 CURVE SMOOTH",
"574 938 OFFCURVE",
"689 757 OFFCURVE",
"723 572 CURVE",
"726 564 OFFCURVE",
"477 501 OFFCURVE",
"308 561 CURVE SMOOTH"
);
}
);
width = 995;
},
{
anchors = (
{
name = bottom;
position = "{399, -193}";
},
{
name = top;
position = "{498, 1350}";
}
);
layerId = "00FED3EE-B3F5-49E6-B91A-35FC52169726";
name = Regular;
paths = (
{
closed = 1;
nodes = (
"46 0 LINE SMOOTH",
"266 0 OFFCURVE",
"384 2 OFFCURVE",
"530 35 CURVE SMOOTH",
"812 100 OFFCURVE",
"866 254 OFFCURVE",
"866 445 CURVE SMOOTH",
"866 750 OFFCURVE",
"727 1149 OFFCURVE",
"500 1149 CURVE SMOOTH",
"262 1149 OFFCURVE",
"146 857 OFFCURVE",
"146 618 CURVE SMOOTH",
"146 426 OFFCURVE",
"289 363 OFFCURVE",
"442 363 CURVE SMOOTH",
"542 363 OFFCURVE",
"645 389 OFFCURVE",
"717 424 CURVE SMOOTH",
"727 429 OFFCURVE",
"735 424 OFFCURVE",
"735 414 CURVE SMOOTH",
"734 294 LINE SMOOTH",
"734 290 OFFCURVE",
"733 289 OFFCURVE",
"731 288 CURVE SMOOTH",
"570 223 OFFCURVE",
"323 199 OFFCURVE",
"46 199 CURVE SMOOTH",
"-20 199 LINE SMOOTH",
"-86 199 OFFCURVE",
"-118 149 OFFCURVE",
"-118 100 CURVE SMOOTH",
"-118 50 OFFCURVE",
"-86 0 OFFCURVE",
"-20 0 CURVE SMOOTH"
);
},
{
closed = 1;
nodes = (
"330 544 OFFCURVE",
"263 591 OFFCURVE",
"257 598 CURVE",
"259 811 OFFCURVE",
"340 949 OFFCURVE",
"458 949 CURVE SMOOTH",
"566 949 OFFCURVE",
"687 776 OFFCURVE",
"724 572 CURVE",
"719 568 OFFCURVE",
"616 544 OFFCURVE",
"498 544 CURVE SMOOTH"
);
}
);
width = 1006;
}
);
leftKerningGroup = all;
},
{
glyphname = "dotlessqaf-ar";
lastChange = "2016-03-15 09:05:25 +0000";
layers = (
{
anchors = (
{
name = bottom;
position = "{766, -702}";
},
{
name = top;
position = "{1025, 993}";
}
);
layerId = "93A312F7-B931-4485-B08E-C367313EB5E7";
name = SemiLight;
paths = (
{
closed = 1;
nodes = (
"814 -529 OFFCURVE",
"1295 -466 OFFCURVE",
"1429 -269 CURVE SMOOTH",
"1483 -191 OFFCURVE",
"1488 -83 OFFCURVE",
"1493 57 CURVE SMOOTH",
"1503 386 OFFCURVE",
"1340 802 OFFCURVE",
"1109 802 CURVE SMOOTH",
"877 802 OFFCURVE",
"742 471 OFFCURVE",
"742 235 CURVE SMOOTH",
"742 -125 OFFCURVE",
"1134 -83 OFFCURVE",
"1343 24 CURVE SMOOTH",
"1355 30 OFFCURVE",
"1364 25 OFFCURVE",
"1363 12 CURVE SMOOTH",
"1354 -190 LINE SMOOTH",
"1354 -199 OFFCURVE",
"1348 -205 OFFCURVE",
"1339 -208 CURVE SMOOTH",
"1273 -232 OFFCURVE",
"986 -328 OFFCURVE",
"641 -328 CURVE SMOOTH",
"436 -328 OFFCURVE",
"283 -233 OFFCURVE",
"294 -8 CURVE SMOOTH",
"296 14 OFFCURVE",
"299 37 OFFCURVE",
"343 275 CURVE SMOOTH",
"345 286 OFFCURVE",
"339 294 OFFCURVE",
"329 297 CURVE SMOOTH",
"251 313 LINE SMOOTH",
"240 315 OFFCURVE",
"232 309 OFFCURVE",
"230 299 CURVE SMOOTH",
"187 40 LINE SMOOTH",
"129 -252 OFFCURVE",
"245 -529 OFFCURVE",
"613 -529 CURVE SMOOTH"
);
},
{
closed = 1;
nodes = (
"1175 131 OFFCURVE",
"1012 116 OFFCURVE",
"877 177 CURVE SMOOTH",
"868 181 OFFCURVE",
"866 187 OFFCURVE",
"865 197 CURVE SMOOTH",
"854 370 OFFCURVE",
"919 611 OFFCURVE",
"1068 611 CURVE SMOOTH",
"1199 611 OFFCURVE",
"1336 396 OFFCURVE",
"1354 189 CURVE SMOOTH",
"1355 178 OFFCURVE",
"1349 171 OFFCURVE",
"1339 169 CURVE SMOOTH"
);
}
);
width = 1631;
},
{
anchors = (
{
name = bottom;
position = "{733, -732}";
},
{
name = top;
position = "{1130, 1023}";
}
);
layerId = "00FED3EE-B3F5-49E6-B91A-35FC52169726";
name = Regular;
paths = (
{
closed = 1;
nodes = (
"832 -529 OFFCURVE",
"1318 -465 OFFCURVE",
"1454 -265 CURVE SMOOTH",
"1510 -184 OFFCURVE",
"1515 -73 OFFCURVE",
"1520 67 CURVE SMOOTH",
"1530 398 OFFCURVE",
"1364 822 OFFCURVE",
"1126 822 CURVE SMOOTH",
"887 822 OFFCURVE",
"749 483 OFFCURVE",
"749 245 CURVE SMOOTH",
"749 25 OFFCURVE",
"896 -46 OFFCURVE",
"1060 -46 CURVE SMOOTH",
"1167 -46 OFFCURVE",
"1281 -15 OFFCURVE",
"1365 25 CURVE SMOOTH",
"1370 28 OFFCURVE",
"1370 27 OFFCURVE",
"1370 23 CURVE SMOOTH",
"1361 -180 LINE SMOOTH",
"1361 -184 OFFCURVE",
"1359 -187 OFFCURVE",
"1353 -189 CURVE SMOOTH",
"1287 -213 OFFCURVE",
"1001 -308 OFFCURVE",
"658 -308 CURVE SMOOTH",
"433 -308 OFFCURVE",
"311 -197 OFFCURVE",
"321 2 CURVE SMOOTH",
"322 23 OFFCURVE",
"326 45 OFFCURVE",
"370 283 CURVE SMOOTH",
"373 299 OFFCURVE",
"365 313 OFFCURVE",
"349 317 CURVE SMOOTH",
"270 333 LINE SMOOTH",
"254 336 OFFCURVE",
"240 327 OFFCURVE",
"237 311 CURVE SMOOTH",
"188 20 OFFCURVE",
"180 -22 OFFCURVE",
"180 -86 CURVE SMOOTH",
"180 -326 OFFCURVE",
"314 -529 OFFCURVE",
"630 -529 CURVE SMOOTH"
);
},
{
closed = 1;
nodes = (
"1259 167 OFFCURVE",
"1177 156 OFFCURVE",
"1104 156 CURVE SMOOTH",
"1025 156 OFFCURVE",
"957 169 OFFCURVE",
"898 196 CURVE SMOOTH",
"894 198 OFFCURVE",
"893 200 OFFCURVE",
"892 208 CURVE SMOOTH",
"879 383 OFFCURVE",
"947 611 OFFCURVE",
"1085 611 CURVE SMOOTH",
"1206 611 OFFCURVE",
"1343 407 OFFCURVE",
"1361 198 CURVE SMOOTH",
"1362 193 OFFCURVE",
"1359 190 OFFCURVE",
"1354 189 CURVE SMOOTH"
);
}
);
width = 1660;
}
);
unicode = 066F;
},
{
glyphname = "dotlessqaf-ar.fina";
lastChange = "2016-03-15 09:05:58 +0000";
layers = (
{
anchors = (
{
name = bottom;
position = "{766, -702}";
},
{
name = top;
position = "{1025, 974}";
}
);
layerId = "93A312F7-B931-4485-B08E-C367313EB5E7";
name = SemiLight;
paths = (
{
closed = 1;
nodes = (
"814 -530 OFFCURVE",
"1295 -467 OFFCURVE",
"1429 -270 CURVE SMOOTH",
"1477 -202 OFFCURVE",
"1487 -113 OFFCURVE",
"1492 0 CURVE",
"1682 0 LINE",
"1730 60 OFFCURVE",
"1730 119 OFFCURVE",
"1682 179 CURVE",
"1489 179 LINE",
"1463 480 OFFCURVE",
"1312 800 OFFCURVE",
"1109 800 CURVE SMOOTH",
"877 800 OFFCURVE",
"719 493 OFFCURVE",
"719 256 CURVE SMOOTH",
"719 -69 OFFCURVE",
"1103 -41 OFFCURVE",
"1341 3 CURVE SMOOTH",
"1354 6 OFFCURVE",
"1359 -1 OFFCURVE",
"1359 -13 CURVE SMOOTH",
"1352 -190 LINE SMOOTH",
"1352 -199 OFFCURVE",
"1348 -206 OFFCURVE",
"1339 -209 CURVE SMOOTH",
"1273 -233 OFFCURVE",
"986 -329 OFFCURVE",
"641 -329 CURVE SMOOTH",
"436 -329 OFFCURVE",
"283 -235 OFFCURVE",
"294 -9 CURVE SMOOTH",
"296 13 OFFCURVE",
"300 36 OFFCURVE",
"344 274 CURVE SMOOTH",
"346 285 OFFCURVE",
"340 294 OFFCURVE",
"330 296 CURVE SMOOTH",
"252 312 LINE SMOOTH",
"241 314 OFFCURVE",
"233 308 OFFCURVE",
"231 298 CURVE SMOOTH",
"187 39 LINE SMOOTH",
"129 -253 OFFCURVE",
"245 -530 OFFCURVE",
"613 -530 CURVE SMOOTH"
);
},
{
closed = 1;
nodes = (
"1140 148 OFFCURVE",
"944 159 OFFCURVE",
"833 213 CURVE SMOOTH",
"828 215 OFFCURVE",
"825 221 OFFCURVE",
"825 230 CURVE SMOOTH",
"816 401 OFFCURVE",
"919 610 OFFCURVE",
"1068 610 CURVE SMOOTH",
"1203 610 OFFCURVE",
"1343 384 OFFCURVE",
"1355 171 CURVE"
);
}
);
width = 1662;
},
{
anchors = (
{
name = bottom;
position = "{723, -730}";
},
{
name = top;
position = "{1127, 1024}";
}
);
layerId = "00FED3EE-B3F5-49E6-B91A-35FC52169726";
name = Regular;
paths = (
{
closed = 1;
nodes = (
"832 -530 OFFCURVE",
"1318 -466 OFFCURVE",
"1454 -266 CURVE SMOOTH",
"1502 -198 OFFCURVE",
"1513 -109 OFFCURVE",
"1519 0 CURVE",
"1704 0 LINE",
"1732 33 OFFCURVE",
"1745 66 OFFCURVE",
"1745 100 CURVE SMOOTH",
"1745 133 OFFCURVE",
"1732 166 OFFCURVE",
"1704 199 CURVE",
"1515 199 LINE",
"1487 499 OFFCURVE",
"1333 820 OFFCURVE",
"1126 820 CURVE SMOOTH",
"888 820 OFFCURVE",
"726 505 OFFCURVE",
"726 266 CURVE SMOOTH",
"726 73 OFFCURVE",
"858 -23 OFFCURVE",
"1105 -23 CURVE SMOOTH",
"1180 -23 OFFCURVE",
"1265 -15 OFFCURVE",
"1360 3 CURVE SMOOTH",
"1365 4 OFFCURVE",
"1366 4 OFFCURVE",
"1366 -3 CURVE SMOOTH",
"1359 -180 LINE SMOOTH",
"1359 -185 OFFCURVE",
"1357 -188 OFFCURVE",
"1353 -190 CURVE SMOOTH",
"1287 -214 OFFCURVE",
"1001 -309 OFFCURVE",
"658 -309 CURVE SMOOTH",
"433 -309 OFFCURVE",
"311 -198 OFFCURVE",
"321 1 CURVE SMOOTH",
"322 22 OFFCURVE",
"327 44 OFFCURVE",
"371 282 CURVE SMOOTH",
"374 298 OFFCURVE",
"364 313 OFFCURVE",
"349 316 CURVE SMOOTH",
"271 332 LINE SMOOTH",
"255 335 OFFCURVE",
"241 326 OFFCURVE",
"238 310 CURVE SMOOTH",
"187 18 OFFCURVE",
"180 -21 OFFCURVE",
"180 -87 CURVE SMOOTH",
"180 -327 OFFCURVE",
"314 -530 OFFCURVE",
"630 -530 CURVE SMOOTH"
);
},
{
closed = 1;
nodes = (
"1285 179 OFFCURVE",
"1213 173 OFFCURVE",
"1147 173 CURVE SMOOTH",
"1023 173 OFFCURVE",
"921 193 OFFCURVE",
"854 232 CURVE SMOOTH",
"853 233 OFFCURVE",
"852 238 OFFCURVE",
"852 240 CURVE SMOOTH",
"852 417 OFFCURVE",
"938 610 OFFCURVE",
"1085 610 CURVE SMOOTH",
"1208 610 OFFCURVE",
"1346 401 OFFCURVE",
"1361 190 CURVE"
);
}
);
width = 1680;
}
);
},
{
glyphname = "dotlesskaf-ar";
lastChange = "2016-03-27 02:41:24 +0000";
layers = (
{
anchors = (
{
name = bottom;
position = "{775, -215}";
},
{
name = top;
position = "{722, 928}";
}
);
layerId = "93A312F7-B931-4485-B08E-C367313EB5E7";
name = SemiLight;
paths = (
{
closed = 1;
nodes = (
"537 -32 OFFCURVE",
"745 -23 OFFCURVE",
"911 -5 CURVE SMOOTH",
"1275 36 OFFCURVE",
"1367 201 OFFCURVE",
"1362 598 CURVE SMOOTH",
"1348 1520 LINE SMOOTH",
"1348 1534 OFFCURVE",
"1340 1541 OFFCURVE",
"1327 1532 CURVE SMOOTH",
"1208 1449 LINE SMOOTH",
"1199 1442 OFFCURVE",
"1197 1439 OFFCURVE",
"1197 1428 CURVE SMOOTH",
"1229 683 OFFCURVE",
"1239 382 OFFCURVE",
"1220 261 CURVE SMOOTH",
"1218 250 OFFCURVE",
"1216 245 OFFCURVE",
"1205 241 CURVE SMOOTH",
"1015 174 OFFCURVE",
"506 143 OFFCURVE",
"193 222 CURVE SMOOTH",
"182 225 OFFCURVE",
"175 221 OFFCURVE",
"174 208 CURVE SMOOTH",
"163 28 OFFCURVE",
"198 7 OFFCURVE",
"370 -13 CURVE SMOOTH"
);
}
);
width = 1500;
},
{
anchors = (
{
name = bottom;
position = "{693, -225}";
},
{
name = top;
position = "{750, 938}";
}
);
layerId = "00FED3EE-B3F5-49E6-B91A-35FC52169726";
name = Regular;
paths = (
{
closed = 1;
nodes = (
"453 -20 OFFCURVE",
"525 -24 OFFCURVE",
"598 -24 CURVE SMOOTH",
"1196 -24 OFFCURVE",
"1396 64 OFFCURVE",
"1390 608 CURVE SMOOTH",
"1376 1530 LINE SMOOTH",
"1376 1546 OFFCURVE",
"1367 1556 OFFCURVE",
"1355 1556 CURVE SMOOTH",
"1350 1556 OFFCURVE",
"1345 1554 OFFCURVE",
"1339 1550 CURVE SMOOTH",
"1220 1467 LINE SMOOTH",
"1208 1458 OFFCURVE",
"1205 1452 OFFCURVE",
"1205 1438 CURVE SMOOTH",
"1219 1106 OFFCURVE",
"1237 735 OFFCURVE",
"1237 490 CURVE SMOOTH",
"1237 395 OFFCURVE",
"1235 320 OFFCURVE",
"1228 273 CURVE SMOOTH",
"1226 263 OFFCURVE",
"1226 263 OFFCURVE",
"1220 260 CURVE SMOOTH",
"1110 222 OFFCURVE",
"893 195 OFFCURVE",
"670 195 CURVE SMOOTH",
"508 195 OFFCURVE",
"344 209 OFFCURVE",
"213 242 CURVE SMOOTH",
"196 246 OFFCURVE",
"182 237 OFFCURVE",
"182 219 CURVE SMOOTH",
"179 40 OFFCURVE",
"198 9 OFFCURVE",
"387 -13 CURVE SMOOTH"
);
}
);
width = 1530;
}
);
},
{
glyphname = "dotlesskaf-ar.fina";
lastChange = "2016-03-15 09:09:20 +0000";
layers = (
{
anchors = (
{
name = bottom;
position = "{775, -215}";
},
{
name = top;
position = "{721, 928}";
}
);
layerId = "93A312F7-B931-4485-B08E-C367313EB5E7";
name = SemiLight;
paths = (
{
closed = 1;
nodes = (
"537 -32 OFFCURVE",
"722 -23 OFFCURVE",
"888 -5 CURVE SMOOTH",
"1098 18 OFFCURVE",
"1233 78 OFFCURVE",
"1279 206 CURVE",
"1323 78 OFFCURVE",
"1406 0 OFFCURVE",
"1564 0 CURVE SMOOTH",
"1699 0 LINE",
"1747 60 OFFCURVE",
"1747 119 OFFCURVE",
"1699 179 CURVE",
"1612 179 LINE SMOOTH",
"1512 179 OFFCURVE",
"1367 208 OFFCURVE",
"1366 308 CURVE SMOOTH",
"1348 1520 LINE SMOOTH",
"1348 1534 OFFCURVE",
"1340 1541 OFFCURVE",
"1327 1532 CURVE SMOOTH",
"1208 1449 LINE SMOOTH",
"1199 1442 OFFCURVE",
"1197 1439 OFFCURVE",
"1197 1428 CURVE SMOOTH",
"1229 683 OFFCURVE",
"1239 382 OFFCURVE",
"1220 261 CURVE SMOOTH",
"1218 250 OFFCURVE",
"1216 245 OFFCURVE",
"1205 241 CURVE SMOOTH",
"1015 174 OFFCURVE",
"506 143 OFFCURVE",
"193 222 CURVE SMOOTH",
"182 225 OFFCURVE",
"175 221 OFFCURVE",
"174 208 CURVE SMOOTH",
"163 28 OFFCURVE",
"198 7 OFFCURVE",
"370 -13 CURVE SMOOTH"
);
}
);
width = 1679;
},
{
anchors = (
{
name = bottom;
position = "{673, -225}";
},
{
name = top;
position = "{739, 938}";
}
);
layerId = "00FED3EE-B3F5-49E6-B91A-35FC52169726";
name = Regular;
paths = (
{
closed = 1;
nodes = (
"453 -20 OFFCURVE",
"521 -24 OFFCURVE",
"590 -24 CURVE SMOOTH",
"891 -24 OFFCURVE",
"1210 6 OFFCURVE",
"1296 189 CURVE",
"1348 61 OFFCURVE",
"1440 0 OFFCURVE",
"1582 0 CURVE SMOOTH",
"1722 0 LINE",
"1750 33 OFFCURVE",
"1763 66 OFFCURVE",
"1763 100 CURVE SMOOTH",
"1763 133 OFFCURVE",
"1750 166 OFFCURVE",
"1722 199 CURVE",
"1630 199 LINE SMOOTH",
"1531 199 OFFCURVE",
"1395 226 OFFCURVE",
"1394 318 CURVE SMOOTH",
"1376 1530 LINE SMOOTH",
"1376 1546 OFFCURVE",
"1367 1556 OFFCURVE",
"1355 1556 CURVE SMOOTH",
"1350 1556 OFFCURVE",
"1345 1554 OFFCURVE",
"1339 1550 CURVE SMOOTH",
"1220 1467 LINE SMOOTH",
"1209 1459 OFFCURVE",
"1205 1453 OFFCURVE",
"1205 1442 CURVE SMOOTH",
"1205 1441 OFFCURVE",
"1205 1439 OFFCURVE",
"1205 1438 CURVE SMOOTH",
"1219 1106 OFFCURVE",
"1237 735 OFFCURVE",
"1237 490 CURVE SMOOTH",
"1237 395 OFFCURVE",
"1235 320 OFFCURVE",
"1228 273 CURVE SMOOTH",
"1226 263 OFFCURVE",
"1226 263 OFFCURVE",
"1220 260 CURVE SMOOTH",
"1110 222 OFFCURVE",
"893 195 OFFCURVE",
"670 195 CURVE SMOOTH",
"508 195 OFFCURVE",
"344 209 OFFCURVE",
"213 242 CURVE SMOOTH",
"196 246 OFFCURVE",
"182 237 OFFCURVE",
"182 219 CURVE SMOOTH",
"180 41 OFFCURVE",
"201 9 OFFCURVE",
"387 -13 CURVE SMOOTH"
);
}
);
width = 1698;
}
);
userData = {
com.typemytype.robofont.guides = (
{
angle = 0;
isGlobal = 0;
x = "-180";
y = 1345;
}
);
};
},
{
glyphname = "kaf-ar.medi";
lastChange = "2016-03-15 23:14:01 +0000";
layers = (
{
anchors = (
{
name = bottom;
position = "{389, -171}";
},
{
name = top;
position = "{505, 1512}";
}
);
layerId = "93A312F7-B931-4485-B08E-C367313EB5E7";
name = SemiLight;
paths = (
{
closed = 1;
nodes = (
"46 0 LINE SMOOTH",
"252 0 OFFCURVE",
"481 44 OFFCURVE",
"619 101 CURVE SMOOTH",
"637 108 OFFCURVE",
"653 117 OFFCURVE",
"696 193 CURVE SMOOTH",
"703 206 OFFCURVE",
"712 207 OFFCURVE",
"720 195 CURVE SMOOTH",
"827 38 OFFCURVE",
"926 0 OFFCURVE",
"1002 0 CURVE SMOOTH",
"1068 0 LINE",
"1116 60 OFFCURVE",
"1116 119 OFFCURVE",
"1068 179 CURVE",
"1002 179 LINE SMOOTH",
"873 179 OFFCURVE",
"814 224 OFFCURVE",
"751 347 CURVE SMOOTH",
"622 598 OFFCURVE",
"534 849 OFFCURVE",
"201 1057 CURVE SMOOTH",
"189 1065 OFFCURVE",
"190 1075 OFFCURVE",
"204 1080 CURVE SMOOTH",
"942 1310 LINE SMOOTH",
"951 1313 OFFCURVE",
"957 1318 OFFCURVE",
"958 1328 CURVE SMOOTH",
"976 1474 LINE SMOOTH",
"978 1487 OFFCURVE",
"971 1493 OFFCURVE",
"958 1489 CURVE SMOOTH",
"192 1236 LINE SMOOTH",
"183 1233 OFFCURVE",
"179 1229 OFFCURVE",
"175 1221 CURVE SMOOTH",
"54 969 LINE SMOOTH",
"50 961 OFFCURVE",
"53 951 OFFCURVE",
"62 946 CURVE SMOOTH",
"437 742 OFFCURVE",
"577 421 OFFCURVE",
"633 282 CURVE SMOOTH",
"637 273 OFFCURVE",
"633 264 OFFCURVE",
"623 260 CURVE SMOOTH",
"475 199 OFFCURVE",
"256 179 OFFCURVE",
"46 179 CURVE SMOOTH",
"-20 179 LINE SMOOTH",
"-138 179 OFFCURVE",
"-138 0 OFFCURVE",
"-20 0 CURVE SMOOTH"
);
}
);
width = 1048;
},
{
anchors = (
{
name = bottom;
position = "{389, -191}";
},
{
name = top;
position = "{565, 1642}";
}
);
layerId = "00FED3EE-B3F5-49E6-B91A-35FC52169726";
name = Regular;
paths = (
{
closed = 1;
nodes = (
"46 0 LINE SMOOTH",
"253 0 OFFCURVE",
"484 44 OFFCURVE",
"623 102 CURVE SMOOTH",
"650 112 OFFCURVE",
"669 136 OFFCURVE",
"705 198 CURVE SMOOTH",
"708 203 OFFCURVE",
"709 203 OFFCURVE",
"712 199 CURVE SMOOTH",
"802 68 OFFCURVE",
"899 0 OFFCURVE",
"1002 0 CURVE SMOOTH",
"1073 0 LINE",
"1101 33 OFFCURVE",
"1114 66 OFFCURVE",
"1114 100 CURVE SMOOTH",
"1114 133 OFFCURVE",
"1101 166 OFFCURVE",
"1073 199 CURVE",
"1002 199 LINE SMOOTH",
"881 199 OFFCURVE",
"824 237 OFFCURVE",
"760 362 CURVE SMOOTH",
"631 612 OFFCURVE",
"542 866 OFFCURVE",
"206 1075 CURVE SMOOTH",
"203 1078 OFFCURVE",
"203 1079 OFFCURVE",
"207 1081 CURVE SMOOTH",
"945 1310 LINE SMOOTH",
"959 1315 OFFCURVE",
"967 1324 OFFCURVE",
"968 1337 CURVE SMOOTH",
"986 1483 LINE SMOOTH",
"988 1499 OFFCURVE",
"979 1511 OFFCURVE",
"965 1511 CURVE SMOOTH",
"962 1511 OFFCURVE",
"959 1510 OFFCURVE",
"955 1509 CURVE SMOOTH",
"189 1255 LINE SMOOTH",
"178 1252 OFFCURVE",
"171 1246 OFFCURVE",
"166 1235 CURVE SMOOTH",
"45 983 LINE SMOOTH",
"43 979 OFFCURVE",
"42 975 OFFCURVE",
"42 972 CURVE SMOOTH",
"42 962 OFFCURVE",
"48 953 OFFCURVE",
"57 947 CURVE SMOOTH",
"429 745 OFFCURVE",
"568 427 OFFCURVE",
"624 288 CURVE SMOOTH",
"626 284 OFFCURVE",
"624 281 OFFCURVE",
"619 279 CURVE SMOOTH",
"491 227 OFFCURVE",
"294 199 OFFCURVE",
"46 199 CURVE SMOOTH",
"-20 199 LINE SMOOTH",
"-86 199 OFFCURVE",
"-118 149 OFFCURVE",
"-118 100 CURVE SMOOTH",
"-118 50 OFFCURVE",
"-86 0 OFFCURVE",
"-20 0 CURVE SMOOTH"
);
}
);
width = 1049;
}
);
unicode = FEDC;
},
{
glyphname = "kaf-ar.init";
lastChange = "2016-03-27 02:42:33 +0000";
layers = (
{
anchors = (
{
name = bottom;
position = "{388, -171}";
},
{
name = top;
position = "{454, 1464}";
}
);
layerId = "93A312F7-B931-4485-B08E-C367313EB5E7";
name = SemiLight;
paths = (
{
closed = 1;
nodes = (
"46 0 LINE SMOOTH",
"184 0 OFFCURVE",
"339 17 OFFCURVE",
"469 57 CURVE SMOOTH",
"633 110 OFFCURVE",
"726 197 OFFCURVE",
"705 377 CURVE SMOOTH",
"666 718 OFFCURVE",
"369 958 OFFCURVE",
"170 1059 CURVE SMOOTH",
"156 1066 OFFCURVE",
"158 1076 OFFCURVE",
"173 1081 CURVE SMOOTH",
"827 1287 LINE SMOOTH",
"836 1290 OFFCURVE",
"842 1295 OFFCURVE",
"843 1305 CURVE SMOOTH",
"861 1450 LINE SMOOTH",
"863 1463 OFFCURVE",
"856 1470 OFFCURVE",
"843 1466 CURVE SMOOTH",
"158 1236 LINE SMOOTH",
"148 1233 OFFCURVE",
"144 1229 OFFCURVE",
"140 1221 CURVE SMOOTH",
"21 971 LINE SMOOTH",
"16 961 OFFCURVE",
"20 953 OFFCURVE",
"29 948 CURVE SMOOTH",
"407 743 OFFCURVE",
"573 453 OFFCURVE",
"619 298 CURVE SMOOTH",
"622 288 OFFCURVE",
"619 281 OFFCURVE",
"610 276 CURVE SMOOTH",
"438 191 OFFCURVE",
"247 179 OFFCURVE",
"46 179 CURVE SMOOTH",
"-20 179 LINE SMOOTH",
"-138 179 OFFCURVE",
"-138 0 OFFCURVE",
"-20 0 CURVE SMOOTH"
);
}
);
width = 846;
},
{
anchors = (
{
name = bottom;
position = "{348, -201}";
},
{
name = top;
position = "{474, 1634}";
}
);
layerId = "00FED3EE-B3F5-49E6-B91A-35FC52169726";
name = Regular;
paths = (
{
closed = 1;
nodes = (
"46 0 LINE SMOOTH",
"379 0 OFFCURVE",
"718 70 OFFCURVE",
"718 338 CURVE SMOOTH",
"718 644 OFFCURVE",
"450 937 OFFCURVE",
"175 1078 CURVE SMOOTH",
"172 1079 OFFCURVE",
"172 1080 OFFCURVE",
"176 1082 CURVE SMOOTH",
"830 1287 LINE SMOOTH",
"844 1292 OFFCURVE",
"852 1301 OFFCURVE",
"853 1314 CURVE SMOOTH",
"871 1459 LINE SMOOTH",
"873 1476 OFFCURVE",
"864 1489 OFFCURVE",
"849 1487 CURVE",
"155 1255 LINE",
"143 1251 OFFCURVE",
"137 1246 OFFCURVE",
"131 1235 CURVE",
"9 972 LINE",
"8 963 OFFCURVE",
"14 955 OFFCURVE",
"24 949 CURVE SMOOTH",
"400 746 OFFCURVE",
"564 459 OFFCURVE",
"609 305 CURVE SMOOTH",
"611 300 OFFCURVE",
"610 297 OFFCURVE",
"605 295 CURVE SMOOTH",
"435 211 OFFCURVE",
"247 199 OFFCURVE",
"46 199 CURVE SMOOTH",
"-20 199 LINE SMOOTH",
"-86 199 OFFCURVE",
"-118 149 OFFCURVE",
"-118 100 CURVE SMOOTH",
"-118 50 OFFCURVE",
"-86 0 OFFCURVE",
"-20 0 CURVE SMOOTH"
);
}
);
width = 860;
}
);
leftKerningGroup = k;
unicode = FEDB;
},
{
glyphname = "keheh-ar";
lastChange = "2016-03-27 02:32:01 +0000";
layers = (
{
anchors = (
{
name = bottom;
position = "{785, -202}";
},
{
name = top;
position = "{603, 1081}";
}
);
layerId = "93A312F7-B931-4485-B08E-C367313EB5E7";
name = SemiLight;
paths = (
{
closed = 1;
nodes = (
"1025 -39 OFFCURVE",
"1349 46 OFFCURVE",
"1494 110 CURVE SMOOTH",
"1497 111 OFFCURVE",
"1499 116 OFFCURVE",
"1503 124 CURVE SMOOTH",
"1539 202 OFFCURVE",
"1572 315 OFFCURVE",
"1564 373 CURVE SMOOTH",
"1525 647 OFFCURVE",
"1243 952 OFFCURVE",
"1044 1058 CURVE SMOOTH",
"1030 1066 OFFCURVE",
"1033 1077 OFFCURVE",
"1047 1081 CURVE SMOOTH",
"1702 1287 LINE SMOOTH",
"1711 1290 OFFCURVE",
"1717 1295 OFFCURVE",
"1718 1305 CURVE SMOOTH",
"1736 1450 LINE SMOOTH",
"1738 1463 OFFCURVE",
"1731 1470 OFFCURVE",
"1718 1466 CURVE SMOOTH",
"1033 1236 LINE SMOOTH",
"1023 1233 OFFCURVE",
"1019 1229 OFFCURVE",
"1015 1221 CURVE SMOOTH",
"895 969 LINE SMOOTH",
"891 960 OFFCURVE",
"893 951 OFFCURVE",
"903 946 CURVE SMOOTH",
"1281 742 OFFCURVE",
"1432 450 OFFCURVE",
"1478 293 CURVE SMOOTH",
"1481 283 OFFCURVE",
"1478 277 OFFCURVE",
"1467 273 CURVE SMOOTH",
"1346 223 OFFCURVE",
"1067 150 OFFCURVE",
"750 155 CURVE SMOOTH",
"480 160 OFFCURVE",
"256 235 OFFCURVE",
"279 466 CURVE SMOOTH",
"293 607 LINE SMOOTH",
"294 618 OFFCURVE",
"288 625 OFFCURVE",
"277 626 CURVE SMOOTH",
"214 631 LINE SMOOTH",
"204 632 OFFCURVE",
"195 626 OFFCURVE",
"194 615 CURVE SMOOTH",
"178 466 LINE SMOOTH",
"141 117 OFFCURVE",
"301 -20 OFFCURVE",
"666 -30 CURVE SMOOTH"
);
}
);
width = 1703;
},
{
anchors = (
{
name = bottom;
position = "{802, -232}";
},
{
name = top;
position = "{610, 1101}";
}
);
layerId = "00FED3EE-B3F5-49E6-B91A-35FC52169726";
name = Regular;
paths = (
{
closed = 1;
nodes = (
"180 69 OFFCURVE",
"382 -31 OFFCURVE",
"735 -31 CURVE SMOOTH",
"1074 -31 OFFCURVE",
"1376 50 OFFCURVE",
"1515 111 CURVE SMOOTH",
"1520 113 OFFCURVE",
"1524 118 OFFCURVE",
"1529 130 CURVE SMOOTH",
"1561 200 OFFCURVE",
"1592 301 OFFCURVE",
"1592 364 CURVE SMOOTH",
"1592 596 OFFCURVE",
"1287 959 OFFCURVE",
"1066 1077 CURVE SMOOTH",
"1062 1079 OFFCURVE",
"1063 1080 OFFCURVE",
"1067 1081 CURVE SMOOTH",
"1722 1287 LINE SMOOTH",
"1736 1292 OFFCURVE",
"1744 1301 OFFCURVE",
"1745 1314 CURVE SMOOTH",
"1763 1459 LINE SMOOTH",
"1765 1476 OFFCURVE",
"1756 1489 OFFCURVE",
"1741 1487 CURVE",
"1047 1255 LINE",
"1035 1251 OFFCURVE",
"1029 1246 OFFCURVE",
"1023 1235 CURVE",
"900 970 LINE",
"898 960 OFFCURVE",
"905 953 OFFCURVE",
"916 947 CURVE SMOOTH",
"1291 745 OFFCURVE",
"1440 456 OFFCURVE",
"1485 300 CURVE SMOOTH",
"1487 295 OFFCURVE",
"1487 295 OFFCURVE",
"1481 292 CURVE SMOOTH",
"1364 245 OFFCURVE",
"1101 175 OFFCURVE",
"798 175 CURVE SMOOTH",
"540 175 OFFCURVE",
"304 233 OFFCURVE",
"304 445 CURVE SMOOTH",
"304 454 OFFCURVE",
"306 474 OFFCURVE",
"320 616 CURVE SMOOTH",
"322 632 OFFCURVE",
"311 644 OFFCURVE",
"295 646 CURVE SMOOTH",
"232 651 LINE SMOOTH",
"216 653 OFFCURVE",
"202 642 OFFCURVE",
"201 626 CURVE SMOOTH",
"183 455 OFFCURVE",
"180 433 OFFCURVE",
"180 384 CURVE SMOOTH"
);
}
);
width = 1733;
}
);
leftKerningGroup = k;
unicode = 06A9;
},
{
glyphname = "keheh-ar.fina";
lastChange = "2016-03-15 09:15:56 +0000";
layers = (
{
anchors = (
{
name = bottom;
position = "{785, -202}";
},
{
name = top;
position = "{624, 1202}";
}
);
layerId = "93A312F7-B931-4485-B08E-C367313EB5E7";
name = SemiLight;
paths = (
{
closed = 1;
nodes = (
"979 -38 OFFCURVE",
"1304 21 OFFCURVE",
"1465 87 CURVE SMOOTH",
"1485 95 OFFCURVE",
"1498 113 OFFCURVE",
"1548 210 CURVE",
"1659 37 OFFCURVE",
"1763 0 OFFCURVE",
"1842 0 CURVE SMOOTH",
"1899 0 LINE",
"1947 60 OFFCURVE",
"1947 119 OFFCURVE",
"1899 179 CURVE",
"1842 179 LINE SMOOTH",
"1713 179 OFFCURVE",
"1655 220 OFFCURVE",
"1592 343 CURVE SMOOTH",
"1459 599 OFFCURVE",
"1370 861 OFFCURVE",
"1018 1072 CURVE",
"1782 1310 LINE SMOOTH",
"1792 1313 OFFCURVE",
"1798 1318 OFFCURVE",
"1799 1328 CURVE SMOOTH",
"1817 1474 LINE SMOOTH",
"1819 1487 OFFCURVE",
"1811 1493 OFFCURVE",
"1799 1489 CURVE SMOOTH",
"1033 1236 LINE SMOOTH",
"1023 1233 OFFCURVE",
"1019 1229 OFFCURVE",
"1015 1221 CURVE SMOOTH",
"895 969 LINE SMOOTH",
"891 960 OFFCURVE",
"894 951 OFFCURVE",
"903 946 CURVE SMOOTH",
"1293 734 OFFCURVE",
"1428 392 OFFCURVE",
"1479 262 CURVE",
"1347 214 OFFCURVE",
"1081 150 OFFCURVE",
"750 155 CURVE SMOOTH",
"480 160 OFFCURVE",
"256 235 OFFCURVE",
"279 466 CURVE SMOOTH",
"293 607 LINE SMOOTH",
"294 618 OFFCURVE",
"288 625 OFFCURVE",
"277 626 CURVE SMOOTH",
"214 631 LINE SMOOTH",
"204 632 OFFCURVE",
"195 626 OFFCURVE",
"194 615 CURVE SMOOTH",
"178 466 LINE SMOOTH",
"141 117 OFFCURVE",
"301 -20 OFFCURVE",
"666 -30 CURVE SMOOTH"
);
}
);
width = 1879;
},
{
anchors = (
{
name = bottom;
position = "{802, -192}";
},
{
name = top;
position = "{630, 1200}";
}
);
layerId = "00FED3EE-B3F5-49E6-B91A-35FC52169726";
name = Regular;
paths = (
{
closed = 1;
nodes = (
"180 64 OFFCURVE",
"388 -31 OFFCURVE",
"741 -31 CURVE SMOOTH",
"1037 -31 OFFCURVE",
"1334 25 OFFCURVE",
"1486 88 CURVE SMOOTH",
"1508 97 OFFCURVE",
"1523 117 OFFCURVE",
"1566 200 CURVE",
"1655 67 OFFCURVE",
"1752 0 OFFCURVE",
"1859 0 CURVE SMOOTH",
"1921 0 LINE",
"1949 33 OFFCURVE",
"1962 66 OFFCURVE",
"1962 100 CURVE SMOOTH",
"1962 133 OFFCURVE",
"1949 166 OFFCURVE",
"1921 199 CURVE",
"1859 199 LINE SMOOTH",
"1736 199 OFFCURVE",
"1680 235 OFFCURVE",
"1618 358 CURVE SMOOTH",
"1488 608 OFFCURVE",
"1399 868 OFFCURVE",
"1059 1079 CURVE",
"1802 1310 LINE SMOOTH",
"1816 1315 OFFCURVE",
"1825 1324 OFFCURVE",
"1826 1337 CURVE SMOOTH",
"1844 1483 LINE SMOOTH",
"1846 1499 OFFCURVE",
"1837 1511 OFFCURVE",
"1824 1510 CURVE",
"1047 1255 LINE",
"1035 1252 OFFCURVE",
"1029 1246 OFFCURVE",
"1023 1235 CURVE",
"900 971 LINE",
"898 962 OFFCURVE",
"906 953 OFFCURVE",
"915 947 CURVE SMOOTH",
"1293 742 OFFCURVE",
"1429 414 OFFCURVE",
"1483 278 CURVE",
"1353 233 OFFCURVE",
"1109 175 OFFCURVE",
"804 175 CURVE SMOOTH",
"544 175 OFFCURVE",
"304 230 OFFCURVE",
"304 445 CURVE SMOOTH",
"304 454 OFFCURVE",
"304 460 OFFCURVE",
"320 616 CURVE SMOOTH",
"321 632 OFFCURVE",
"311 644 OFFCURVE",
"295 646 CURVE SMOOTH",
"232 651 LINE SMOOTH",
"216 653 OFFCURVE",
"202 642 OFFCURVE",
"201 626 CURVE SMOOTH",
"183 455 OFFCURVE",
"180 433 OFFCURVE",
"180 384 CURVE SMOOTH"
);
}
);
width = 1897;
}
);
unicode = FB8F;
},
{
glyphname = "gaf-ar";
lastChange = "2016-03-27 02:31:52 +0000";
layers = (
{
anchors = (
{
name = bottom;
position = "{785, -202}";
},
{
name = top;
position = "{635, 1212}";
}
);
layerId = "93A312F7-B931-4485-B08E-C367313EB5E7";
name = SemiLight;
paths = (
{
closed = 1;
nodes = (
"1025 -39 OFFCURVE",
"1349 46 OFFCURVE",
"1494 110 CURVE SMOOTH",
"1497 111 OFFCURVE",
"1499 116 OFFCURVE",
"1503 124 CURVE SMOOTH",
"1539 202 OFFCURVE",
"1572 315 OFFCURVE",
"1564 373 CURVE SMOOTH",
"1525 647 OFFCURVE",
"1243 952 OFFCURVE",
"1044 1058 CURVE SMOOTH",
"1030 1066 OFFCURVE",
"1033 1077 OFFCURVE",
"1047 1081 CURVE SMOOTH",
"1702 1287 LINE SMOOTH",
"1711 1290 OFFCURVE",
"1717 1295 OFFCURVE",
"1718 1305 CURVE SMOOTH",
"1736 1450 LINE SMOOTH",
"1738 1463 OFFCURVE",
"1731 1470 OFFCURVE",
"1718 1466 CURVE SMOOTH",
"1033 1236 LINE SMOOTH",
"1023 1233 OFFCURVE",
"1019 1229 OFFCURVE",
"1015 1221 CURVE SMOOTH",
"895 969 LINE SMOOTH",
"891 960 OFFCURVE",
"893 951 OFFCURVE",
"903 946 CURVE SMOOTH",
"1281 742 OFFCURVE",
"1432 450 OFFCURVE",
"1478 293 CURVE SMOOTH",
"1481 283 OFFCURVE",
"1478 277 OFFCURVE",
"1467 273 CURVE SMOOTH",
"1346 223 OFFCURVE",
"1067 150 OFFCURVE",
"750 155 CURVE SMOOTH",
"480 160 OFFCURVE",
"256 235 OFFCURVE",
"279 466 CURVE SMOOTH",
"293 607 LINE SMOOTH",
"294 618 OFFCURVE",
"288 625 OFFCURVE",
"277 626 CURVE SMOOTH",
"214 631 LINE SMOOTH",
"204 632 OFFCURVE",
"195 626 OFFCURVE",
"194 615 CURVE SMOOTH",
"178 466 LINE SMOOTH",
"141 117 OFFCURVE",
"301 -20 OFFCURVE",
"666 -30 CURVE SMOOTH"
);
},
{
closed = 1;
nodes = (
"1569 1576 LINE SMOOTH",
"1578 1579 OFFCURVE",
"1583 1585 OFFCURVE",
"1585 1593 CURVE SMOOTH",
"1605 1670 LINE SMOOTH",
"1608 1683 OFFCURVE",
"1601 1690 OFFCURVE",
"1588 1686 CURVE SMOOTH",
"1156 1547 LINE SMOOTH",
"1147 1544 OFFCURVE",
"1143 1541 OFFCURVE",
"1139 1532 CURVE SMOOTH",
"1102 1448 LINE SMOOTH",
"1096 1434 OFFCURVE",
"1103 1426 OFFCURVE",
"1117 1431 CURVE SMOOTH"
);
}
);
width = 1703;
},
{
anchors = (
{
name = bottom;
position = "{802, -232}";
},
{
name = top;
position = "{610, 1180}";
}
);
layerId = "00FED3EE-B3F5-49E6-B91A-35FC52169726";
name = Regular;
paths = (
{
closed = 1;
nodes = (
"382 -31 OFFCURVE",
"735 -31 CURVE SMOOTH",
"1074 -31 OFFCURVE",
"1376 50 OFFCURVE",
"1515 111 CURVE SMOOTH",
"1520 113 OFFCURVE",
"1524 117 OFFCURVE",
"1529 130 CURVE SMOOTH",
"1561 200 OFFCURVE",
"1592 301 OFFCURVE",
"1592 364 CURVE SMOOTH",
"1592 596 OFFCURVE",
"1287 959 OFFCURVE",
"1066 1077 CURVE SMOOTH",
"1062 1079 OFFCURVE",
"1062 1080 OFFCURVE",
"1067 1081 CURVE SMOOTH",
"1722 1287 LINE SMOOTH",
"1736 1292 OFFCURVE",
"1744 1301 OFFCURVE",
"1745 1314 CURVE SMOOTH",
"1763 1459 LINE SMOOTH",
"1765 1476 OFFCURVE",
"1756 1487 OFFCURVE",
"1741 1487 CURVE",
"1047 1255 LINE",
"1035 1252 OFFCURVE",
"1029 1246 OFFCURVE",
"1023 1235 CURVE",
"900 970 LINE",
"899 959 OFFCURVE",
"905 952 OFFCURVE",
"916 947 CURVE SMOOTH",
"1291 745 OFFCURVE",
"1440 456 OFFCURVE",
"1485 300 CURVE SMOOTH",
"1487 295 OFFCURVE",
"1487 295 OFFCURVE",
"1481 292 CURVE SMOOTH",
"1364 245 OFFCURVE",
"1101 175 OFFCURVE",
"798 175 CURVE SMOOTH",
"540 175 OFFCURVE",
"304 233 OFFCURVE",
"304 445 CURVE SMOOTH",
"304 454 OFFCURVE",
"304 460 OFFCURVE",
"320 616 CURVE SMOOTH",
"321 632 OFFCURVE",
"311 644 OFFCURVE",
"295 646 CURVE SMOOTH",
"232 651 LINE SMOOTH",
"216 653 OFFCURVE",
"202 642 OFFCURVE",
"201 626 CURVE SMOOTH",
"183 455 OFFCURVE",
"180 433 OFFCURVE",
"180 384 CURVE SMOOTH",
"180 69 OFFCURVE"
);
},
{
closed = 1;
nodes = (
"1589 1576 LINE",
"1601 1580 OFFCURVE",
"1609 1589 OFFCURVE",
"1612 1601 CURVE SMOOTH",
"1632 1677 LINE SMOOTH",
"1636 1695 OFFCURVE",
"1626 1707 OFFCURVE",
"1611 1707 CURVE",
"1170 1567 LINE",
"1158 1562 OFFCURVE",
"1152 1557 OFFCURVE",
"1147 1546 CURVE",
"1107 1449 LINE",
"1106 1438 OFFCURVE",
"1114 1430 OFFCURVE",
"1126 1430 CURVE"
);
}
);
width = 1733;
}
);
leftKerningGroup = k;
unicode = 06AF;
},
{
glyphname = "gaf-ar.fina";
lastChange = "2016-03-15 09:20:07 +0000";
layers = (
{
anchors = (
{
name = bottom;
position = "{785, -202}";
},
{
name = top;
position = "{598, 1218}";
}
);
layerId = "93A312F7-B931-4485-B08E-C367313EB5E7";
name = SemiLight;
paths = (
{
closed = 1;
nodes = (
"917 -37 OFFCURVE",
"1176 0 OFFCURVE",
"1352 49 CURVE SMOOTH",
"1480 84 OFFCURVE",
"1489 117 OFFCURVE",
"1536 187 CURVE SMOOTH",
"1546 201 OFFCURVE",
"1554 202 OFFCURVE",
"1562 190 CURVE SMOOTH",
"1667 33 OFFCURVE",
"1766 0 OFFCURVE",
"1842 0 CURVE SMOOTH",
"1899 0 LINE",
"1947 60 OFFCURVE",
"1947 119 OFFCURVE",
"1899 179 CURVE",
"1842 179 LINE SMOOTH",
"1713 179 OFFCURVE",
"1655 220 OFFCURVE",
"1592 343 CURVE SMOOTH",
"1463 593 OFFCURVE",
"1374 849 OFFCURVE",
"1042 1057 CURVE SMOOTH",
"1029 1065 OFFCURVE",
"1030 1076 OFFCURVE",
"1044 1080 CURVE SMOOTH",
"1782 1310 LINE SMOOTH",
"1792 1313 OFFCURVE",
"1798 1318 OFFCURVE",
"1799 1328 CURVE SMOOTH",
"1817 1474 LINE SMOOTH",
"1819 1487 OFFCURVE",
"1811 1493 OFFCURVE",
"1799 1489 CURVE SMOOTH",
"1033 1236 LINE SMOOTH",
"1023 1233 OFFCURVE",
"1019 1229 OFFCURVE",
"1015 1221 CURVE SMOOTH",
"895 969 LINE SMOOTH",
"891 960 OFFCURVE",
"894 951 OFFCURVE",
"903 946 CURVE SMOOTH",
"1278 742 OFFCURVE",
"1418 417 OFFCURVE",
"1473 278 CURVE SMOOTH",
"1477 268 OFFCURVE",
"1473 259 OFFCURVE",
"1463 256 CURVE SMOOTH",
"1326 209 OFFCURVE",
"1068 150 OFFCURVE",
"750 155 CURVE SMOOTH",
"480 160 OFFCURVE",
"256 235 OFFCURVE",
"279 466 CURVE SMOOTH",
"293 607 LINE SMOOTH",
"294 618 OFFCURVE",
"288 625 OFFCURVE",
"277 626 CURVE SMOOTH",
"214 631 LINE SMOOTH",
"204 632 OFFCURVE",
"195 626 OFFCURVE",
"194 615 CURVE SMOOTH",
"178 466 LINE SMOOTH",
"141 117 OFFCURVE",
"301 -20 OFFCURVE",
"666 -30 CURVE SMOOTH"
);
},
{
closed = 1;
nodes = (
"1649 1599 LINE SMOOTH",
"1658 1602 OFFCURVE",
"1663 1608 OFFCURVE",
"1665 1616 CURVE SMOOTH",
"1686 1693 LINE SMOOTH",
"1690 1706 OFFCURVE",
"1681 1713 OFFCURVE",
"1669 1709 CURVE SMOOTH",
"1156 1547 LINE SMOOTH",
"1148 1544 OFFCURVE",
"1143 1541 OFFCURVE",
"1139 1532 CURVE SMOOTH",
"1102 1447 LINE SMOOTH",
"1096 1433 OFFCURVE",
"1103 1425 OFFCURVE",
"1117 1430 CURVE SMOOTH"
);
}
);
width = 1879;
},
{
anchors = (
{
name = bottom;
position = "{785, -232}";
},
{
name = top;
position = "{588, 1180}";
}
);
layerId = "00FED3EE-B3F5-49E6-B91A-35FC52169726";
name = Regular;
paths = (
{
closed = 1;
nodes = (
"163 62 OFFCURVE",
"372 -31 OFFCURVE",
"728 -31 CURVE SMOOTH",
"960 -31 OFFCURVE",
"1193 4 OFFCURVE",
"1355 49 CURVE SMOOTH",
"1488 86 OFFCURVE",
"1498 123 OFFCURVE",
"1544 191 CURVE SMOOTH",
"1545 193 OFFCURVE",
"1549 199 OFFCURVE",
"1554 194 CURVE SMOOTH",
"1640 65 OFFCURVE",
"1736 0 OFFCURVE",
"1842 0 CURVE SMOOTH",
"1904 0 LINE",
"1932 33 OFFCURVE",
"1945 66 OFFCURVE",
"1945 100 CURVE SMOOTH",
"1945 133 OFFCURVE",
"1932 166 OFFCURVE",
"1904 199 CURVE",
"1842 199 LINE SMOOTH",
"1719 199 OFFCURVE",
"1663 235 OFFCURVE",
"1601 358 CURVE SMOOTH",
"1472 607 OFFCURVE",
"1382 866 OFFCURVE",
"1047 1075 CURVE SMOOTH",
"1043 1078 OFFCURVE",
"1043 1079 OFFCURVE",
"1047 1080 CURVE SMOOTH",
"1785 1310 LINE SMOOTH",
"1799 1315 OFFCURVE",
"1808 1324 OFFCURVE",
"1809 1337 CURVE SMOOTH",
"1827 1483 LINE SMOOTH",
"1829 1499 OFFCURVE",
"1820 1510 OFFCURVE",
"1807 1510 CURVE",
"1030 1255 LINE",
"1018 1252 OFFCURVE",
"1012 1246 OFFCURVE",
"1006 1235 CURVE",
"883 971 LINE",
"881 960 OFFCURVE",
"889 953 OFFCURVE",
"898 947 CURVE SMOOTH",
"1270 745 OFFCURVE",
"1409 423 OFFCURVE",
"1464 284 CURVE SMOOTH",
"1466 280 OFFCURVE",
"1464 277 OFFCURVE",
"1460 276 CURVE SMOOTH",
"1328 231 OFFCURVE",
"1087 175 OFFCURVE",
"788 175 CURVE SMOOTH",
"527 175 OFFCURVE",
"287 230 OFFCURVE",
"287 445 CURVE SMOOTH",
"287 454 OFFCURVE",
"287 460 OFFCURVE",
"303 616 CURVE SMOOTH",
"304 632 OFFCURVE",
"294 644 OFFCURVE",
"278 646 CURVE SMOOTH",
"215 651 LINE SMOOTH",
"199 653 OFFCURVE",
"185 642 OFFCURVE",
"184 626 CURVE SMOOTH",
"166 455 OFFCURVE",
"163 433 OFFCURVE",
"163 384 CURVE SMOOTH"
);
},
{
closed = 1;
nodes = (
"1652 1599 LINE",
"1664 1603 OFFCURVE",
"1672 1612 OFFCURVE",
"1675 1624 CURVE",
"1697 1709 LINE",
"1697 1721 OFFCURVE",
"1688 1731 OFFCURVE",
"1676 1730 CURVE",
"1153 1567 LINE",
"1141 1562 OFFCURVE",
"1135 1557 OFFCURVE",
"1130 1546 CURVE",
"1090 1448 LINE",
"1090 1437 OFFCURVE",
"1097 1429 OFFCURVE",
"1109 1429 CURVE"
);
}
);
width = 1880;
}
);
unicode = FB93;
},
{
glyphname = "gaf-ar.medi";
lastChange = "2016-03-15 09:21:15 +0000";
layers = (
{
anchors = (
{
name = bottom;
position = "{389, -171}";
},
{
name = top;
position = "{550, 1679}";
}
);
layerId = "93A312F7-B931-4485-B08E-C367313EB5E7";
name = SemiLight;
paths = (
{
closed = 1;
nodes = (
"46 0 LINE SMOOTH",
"231 0 OFFCURVE",
"434 36 OFFCURVE",
"573 84 CURVE SMOOTH",
"653 112 OFFCURVE",
"657 118 OFFCURVE",
"707 215 CURVE",
"819 41 OFFCURVE",
"922 0 OFFCURVE",
"1002 0 CURVE SMOOTH",
"1058 0 LINE",
"1106 60 OFFCURVE",
"1106 119 OFFCURVE",
"1058 179 CURVE",
"1002 179 LINE SMOOTH",
"873 179 OFFCURVE",
"814 224 OFFCURVE",
"751 347 CURVE SMOOTH",
"619 604 OFFCURVE",
"529 861 OFFCURVE",
"177 1072 CURVE",
"942 1310 LINE SMOOTH",
"951 1313 OFFCURVE",
"957 1318 OFFCURVE",
"958 1328 CURVE SMOOTH",
"976 1474 LINE SMOOTH",
"978 1487 OFFCURVE",
"971 1493 OFFCURVE",
"958 1489 CURVE SMOOTH",
"192 1236 LINE SMOOTH",
"183 1233 OFFCURVE",
"179 1229 OFFCURVE",
"175 1221 CURVE SMOOTH",
"54 969 LINE SMOOTH",
"50 961 OFFCURVE",
"53 951 OFFCURVE",
"62 946 CURVE SMOOTH",
"452 734 OFFCURVE",
"588 397 OFFCURVE",
"638 267 CURVE",
"491 200 OFFCURVE",
"263 179 OFFCURVE",
"46 179 CURVE SMOOTH",
"-20 179 LINE SMOOTH",
"-138 179 OFFCURVE",
"-138 0 OFFCURVE",
"-20 0 CURVE SMOOTH"
);
},
{
closed = 1;
nodes = (
"808 1599 LINE SMOOTH",
"818 1602 OFFCURVE",
"823 1608 OFFCURVE",
"825 1616 CURVE SMOOTH",
"845 1693 LINE SMOOTH",
"848 1706 OFFCURVE",
"841 1713 OFFCURVE",
"828 1709 CURVE SMOOTH",
"315 1547 LINE SMOOTH",
"307 1544 OFFCURVE",
"302 1541 OFFCURVE",
"298 1532 CURVE SMOOTH",
"261 1447 LINE SMOOTH",
"255 1433 OFFCURVE",
"262 1425 OFFCURVE",
"276 1430 CURVE SMOOTH"
);
}
);
width = 1038;
},
{
anchors = (
{
name = bottom;
position = "{389, -192}";
},
{
name = top;
position = "{540, 1882}";
}
);
layerId = "00FED3EE-B3F5-49E6-B91A-35FC52169726";
name = Regular;
paths = (
{
closed = 1;
nodes = (
"46 0 LINE SMOOTH",
"232 0 OFFCURVE",
"437 36 OFFCURVE",
"576 85 CURVE SMOOTH",
"653 111 OFFCURVE",
"663 119 OFFCURVE",
"708 205 CURVE",
"799 69 OFFCURVE",
"897 0 OFFCURVE",
"1002 0 CURVE SMOOTH",
"1063 0 LINE",
"1091 33 OFFCURVE",
"1104 66 OFFCURVE",
"1104 100 CURVE SMOOTH",
"1104 133 OFFCURVE",
"1091 166 OFFCURVE",
"1063 199 CURVE",
"1002 199 LINE SMOOTH",
"881 199 OFFCURVE",
"824 237 OFFCURVE",
"760 362 CURVE SMOOTH",
"632 611 OFFCURVE",
"541 866 OFFCURVE",
"208 1076 CURVE SMOOTH",
"205 1078 OFFCURVE",
"205 1079 OFFCURVE",
"208 1080 CURVE SMOOTH",
"945 1310 LINE SMOOTH",
"959 1315 OFFCURVE",
"967 1324 OFFCURVE",
"968 1337 CURVE SMOOTH",
"986 1483 LINE SMOOTH",
"988 1499 OFFCURVE",
"979 1511 OFFCURVE",
"965 1511 CURVE",
"189 1255 LINE",
"178 1252 OFFCURVE",
"171 1246 OFFCURVE",
"166 1235 CURVE",
"42 972 LINE",
"42 962 OFFCURVE",
"48 953 OFFCURVE",
"57 947 CURVE SMOOTH",
"436 742 OFFCURVE",
"573 418 OFFCURVE",
"625 282 CURVE",
"499 228 OFFCURVE",
"300 199 OFFCURVE",
"46 199 CURVE SMOOTH",
"-20 199 LINE SMOOTH",
"-86 199 OFFCURVE",
"-118 149 OFFCURVE",
"-118 100 CURVE SMOOTH",
"-118 50 OFFCURVE",
"-86 0 OFFCURVE",
"-20 0 CURVE SMOOTH"
);
},
{
closed = 1;
nodes = (
"811 1599 LINE",
"823 1603 OFFCURVE",
"832 1612 OFFCURVE",
"835 1624 CURVE SMOOTH",
"855 1700 LINE SMOOTH",
"859 1718 OFFCURVE",
"849 1730 OFFCURVE",
"834 1730 CURVE",
"312 1567 LINE",
"300 1563 OFFCURVE",
"294 1557 OFFCURVE",
"289 1546 CURVE",
"249 1448 LINE",
"249 1437 OFFCURVE",
"256 1429 OFFCURVE",
"268 1429 CURVE"
);
}
);
width = 1039;
}
);
unicode = FB95;
},
{
glyphname = "gaf-ar.init";
lastChange = "2016-03-27 02:00:09 +0000";
layers = (
{
anchors = (
{
name = bottom;
position = "{388, -171}";
},
{
name = top;
position = "{425, 1723}";
}
);
layerId = "93A312F7-B931-4485-B08E-C367313EB5E7";
name = SemiLight;
paths = (
{
closed = 1;
nodes = (
"46 0 LINE SMOOTH",
"248 0 OFFCURVE",
"489 38 OFFCURVE",
"630 129 CURVE SMOOTH",
"637 133 OFFCURVE",
"640 138 OFFCURVE",
"644 146 CURVE SMOOTH",
"680 223 OFFCURVE",
"712 320 OFFCURVE",
"705 377 CURVE SMOOTH",
"666 718 OFFCURVE",
"369 958 OFFCURVE",
"170 1059 CURVE SMOOTH",
"156 1066 OFFCURVE",
"158 1076 OFFCURVE",
"173 1081 CURVE SMOOTH",
"827 1287 LINE SMOOTH",
"836 1290 OFFCURVE",
"842 1295 OFFCURVE",
"843 1305 CURVE SMOOTH",
"861 1450 LINE SMOOTH",
"863 1463 OFFCURVE",
"856 1470 OFFCURVE",
"843 1466 CURVE SMOOTH",
"158 1236 LINE SMOOTH",
"148 1233 OFFCURVE",
"144 1229 OFFCURVE",
"140 1221 CURVE SMOOTH",
"21 971 LINE SMOOTH",
"16 961 OFFCURVE",
"20 953 OFFCURVE",
"29 948 CURVE SMOOTH",
"407 743 OFFCURVE",
"573 453 OFFCURVE",
"619 298 CURVE SMOOTH",
"622 288 OFFCURVE",
"619 281 OFFCURVE",
"610 276 CURVE SMOOTH",
"438 191 OFFCURVE",
"247 179 OFFCURVE",
"46 179 CURVE SMOOTH",
"-20 179 LINE SMOOTH",
"-138 179 OFFCURVE",
"-138 0 OFFCURVE",
"-20 0 CURVE SMOOTH"
);
},
{
closed = 1;
nodes = (
"693 1576 LINE SMOOTH",
"703 1579 OFFCURVE",
"707 1585 OFFCURVE",
"710 1593 CURVE SMOOTH",
"730 1670 LINE SMOOTH",
"733 1683 OFFCURVE",
"726 1690 OFFCURVE",
"713 1686 CURVE SMOOTH",
"281 1547 LINE SMOOTH",
"271 1544 OFFCURVE",
"267 1541 OFFCURVE",
"263 1532 CURVE SMOOTH",
"227 1448 LINE SMOOTH",
"221 1434 OFFCURVE",
"228 1427 OFFCURVE",
"241 1431 CURVE SMOOTH"
);
}
);
width = 892;
},
{
anchors = (
{
name = bottom;
position = "{388, -191}";
},
{
name = top;
position = "{485, 1873}";
}
);
layerId = "00FED3EE-B3F5-49E6-B91A-35FC52169726";
name = Regular;
paths = (
{
closed = 1;
nodes = (
"46 0 LINE SMOOTH",
"249 0 OFFCURVE",
"493 38 OFFCURVE",
"635 131 CURVE SMOOTH",
"642 135 OFFCURVE",
"647 140 OFFCURVE",
"653 152 CURVE SMOOTH",
"686 222 OFFCURVE",
"716 311 OFFCURVE",
"716 371 CURVE SMOOTH",
"716 651 OFFCURVE",
"428 948 OFFCURVE",
"175 1078 CURVE SMOOTH",
"172 1079 OFFCURVE",
"172 1080 OFFCURVE",
"176 1082 CURVE SMOOTH",
"830 1287 LINE SMOOTH",
"844 1292 OFFCURVE",
"852 1301 OFFCURVE",
"853 1314 CURVE SMOOTH",
"871 1459 LINE SMOOTH",
"873 1476 OFFCURVE",
"864 1487 OFFCURVE",
"849 1487 CURVE",
"155 1255 LINE",
"143 1252 OFFCURVE",
"137 1246 OFFCURVE",
"131 1235 CURVE",
"9 972 LINE",
"8 962 OFFCURVE",
"14 955 OFFCURVE",
"24 949 CURVE SMOOTH",
"400 746 OFFCURVE",
"564 459 OFFCURVE",
"609 305 CURVE SMOOTH",
"611 300 OFFCURVE",
"610 298 OFFCURVE",
"605 295 CURVE SMOOTH",
"435 211 OFFCURVE",
"247 199 OFFCURVE",
"46 199 CURVE SMOOTH",
"-20 199 LINE SMOOTH",
"-86 199 OFFCURVE",
"-118 149 OFFCURVE",
"-118 100 CURVE SMOOTH",
"-118 50 OFFCURVE",
"-86 0 OFFCURVE",
"-20 0 CURVE SMOOTH"
);
},
{
closed = 1;
nodes = (
"696 1576 LINE",
"708 1580 OFFCURVE",
"715 1587 OFFCURVE",
"720 1600 CURVE SMOOTH",
"740 1677 LINE SMOOTH",
"744 1695 OFFCURVE",
"734 1707 OFFCURVE",
"719 1707 CURVE",
"278 1567 LINE",
"265 1563 OFFCURVE",
"259 1557 OFFCURVE",
"254 1546 CURVE",
"215 1449 LINE",
"215 1437 OFFCURVE",
"223 1430 OFFCURVE",
"235 1430 CURVE"
);
}
);
width = 856;
}
);
leftKerningGroup = k;
unicode = FB94;
},
{
glyphname = "lam-ar";
lastChange = "2016-03-27 02:44:36 +0000";
layers = (
{
anchors = (
{
name = bottom;
position = "{703, -697}";
},
{
name = top;
position = "{651, 577}";
}
);
layerId = "93A312F7-B931-4485-B08E-C367313EB5E7";
name = SemiLight;
paths = (
{
closed = 1;
nodes = (
"839 -524 OFFCURVE",
"1297 -432 OFFCURVE",
"1304 -151 CURVE",
"1264 1541 LINE SMOOTH",
"1264 1556 OFFCURVE",
"1253 1559 OFFCURVE",
"1242 1550 CURVE SMOOTH",
"1102 1444 LINE SMOOTH",
"1095 1439 OFFCURVE",
"1093 1432 OFFCURVE",
"1093 1423 CURVE SMOOTH",
"1179 -218 LINE",
"1179 -218 OFFCURVE",
"905 -330 OFFCURVE",
"604 -330 CURVE SMOOTH",
"397 -330 OFFCURVE",
"240 -218 OFFCURVE",
"308 29 CURVE",
"378 332 LINE SMOOTH",
"381 343 OFFCURVE",
"375 351 OFFCURVE",
"365 353 CURVE SMOOTH",
"294 369 LINE SMOOTH",
"284 371 OFFCURVE",
"277 368 OFFCURVE",
"274 357 CURVE SMOOTH",
"200 47 LINE",
"128 -213 OFFCURVE",
"179 -524 OFFCURVE",
"564 -524 CURVE SMOOTH"
);
}
);
width = 1442;
},
{
anchors = (
{
name = bottom;
position = "{720, -717}";
},
{
name = top;
position = "{668, 667}";
}
);
layerId = "00FED3EE-B3F5-49E6-B91A-35FC52169726";
name = Regular;
paths = (
{
closed = 1;
nodes = (
"857 -524 OFFCURVE",
"1324 -430 OFFCURVE",
"1331 -141 CURVE",
"1291 1551 LINE",
"1291 1566 OFFCURVE",
"1282 1575 OFFCURVE",
"1271 1575 CURVE SMOOTH",
"1265 1575 OFFCURVE",
"1259 1573 OFFCURVE",
"1253 1568 CURVE",
"1113 1462 LINE SMOOTH",
"1104 1456 OFFCURVE",
"1100 1446 OFFCURVE",
"1100 1433 CURVE SMOOTH",
"1186 -201 LINE",
"1142 -218 OFFCURVE",
"893 -310 OFFCURVE",
"621 -310 CURVE SMOOTH",
"429 -310 OFFCURVE",
"319 -219 OFFCURVE",
"319 -69 CURVE SMOOTH",
"319 -24 OFFCURVE",
"328 10 OFFCURVE",
"405 340 CURVE SMOOTH",
"409 355 OFFCURVE",
"400 370 OFFCURVE",
"384 373 CURVE SMOOTH",
"313 389 LINE SMOOTH",
"297 392 OFFCURVE",
"286 385 OFFCURVE",
"281 370 CURVE SMOOTH",
"194 14 OFFCURVE",
"180 -41 OFFCURVE",
"180 -133 CURVE SMOOTH",
"180 -337 OFFCURVE",
"282 -524 OFFCURVE",
"581 -524 CURVE SMOOTH"
);
}
);
width = 1471;
}
);
unicode = 0644;
},
{
glyphname = "lam-ar.fina";
lastChange = "2016-03-15 13:21:23 +0000";
layers = (
{
anchors = (
{
name = bottom;
position = "{703, -697}";
},
{
name = top;
position = "{688, 616}";
}
);
layerId = "93A312F7-B931-4485-B08E-C367313EB5E7";
name = SemiLight;
paths = (
{
closed = 1;
nodes = (
"839 -524 OFFCURVE",
"1297 -432 OFFCURVE",
"1304 -151 CURVE",
"1301 46 LINE SMOOTH",
"1301 60 OFFCURVE",
"1309 64 OFFCURVE",
"1321 56 CURVE SMOOTH",
"1367 25 OFFCURVE",
"1431 0 OFFCURVE",
"1540 0 CURVE SMOOTH",
"1606 0 LINE",
"1654 60 OFFCURVE",
"1654 119 OFFCURVE",
"1606 179 CURVE",
"1540 179 LINE SMOOTH",
"1486 179 OFFCURVE",
"1380 200 OFFCURVE",
"1309 222 CURVE SMOOTH",
"1300 225 OFFCURVE",
"1295 232 OFFCURVE",
"1295 241 CURVE SMOOTH",
"1264 1541 LINE SMOOTH",
"1264 1555 OFFCURVE",
"1253 1559 OFFCURVE",
"1242 1550 CURVE SMOOTH",
"1102 1444 LINE SMOOTH",
"1095 1439 OFFCURVE",
"1093 1432 OFFCURVE",
"1093 1423 CURVE SMOOTH",
"1178 -204 LINE SMOOTH",
"1178 -213 OFFCURVE",
"1174 -221 OFFCURVE",
"1165 -224 CURVE SMOOTH",
"1105 -246 OFFCURVE",
"865 -330 OFFCURVE",
"604 -330 CURVE SMOOTH",
"397 -330 OFFCURVE",
"240 -218 OFFCURVE",
"308 29 CURVE",
"378 332 LINE SMOOTH",
"381 343 OFFCURVE",
"375 351 OFFCURVE",
"365 353 CURVE SMOOTH",
"294 369 LINE SMOOTH",
"284 371 OFFCURVE",
"277 368 OFFCURVE",
"274 357 CURVE SMOOTH",
"200 47 LINE",
"128 -213 OFFCURVE",
"179 -524 OFFCURVE",
"564 -524 CURVE SMOOTH"
);
}
);
width = 1586;
},
{
anchors = (
{
name = bottom;
position = "{720, -717}";
},
{
name = top;
position = "{705, 706}";
}
);
layerId = "00FED3EE-B3F5-49E6-B91A-35FC52169726";
name = Regular;
paths = (
{
closed = 1;
nodes = (
"857 -524 OFFCURVE",
"1324 -430 OFFCURVE",
"1331 -141 CURVE",
"1328 56 LINE SMOOTH",
"1328 60 OFFCURVE",
"1329 60 OFFCURVE",
"1332 58 CURVE SMOOTH",
"1379 26 OFFCURVE",
"1446 0 OFFCURVE",
"1557 0 CURVE SMOOTH",
"1628 0 LINE",
"1656 33 OFFCURVE",
"1669 66 OFFCURVE",
"1669 100 CURVE SMOOTH",
"1669 133 OFFCURVE",
"1656 166 OFFCURVE",
"1628 199 CURVE",
"1557 199 LINE SMOOTH",
"1507 199 OFFCURVE",
"1404 218 OFFCURVE",
"1329 242 CURVE SMOOTH",
"1324 243 OFFCURVE",
"1322 246 OFFCURVE",
"1322 251 CURVE SMOOTH",
"1291 1551 LINE SMOOTH",
"1291 1566 OFFCURVE",
"1282 1575 OFFCURVE",
"1271 1575 CURVE SMOOTH",
"1265 1575 OFFCURVE",
"1259 1573 OFFCURVE",
"1253 1568 CURVE SMOOTH",
"1113 1462 LINE SMOOTH",
"1105 1457 OFFCURVE",
"1100 1448 OFFCURVE",
"1100 1436 CURVE",
"1185 -195 LINE",
"1185 -201 OFFCURVE",
"1185 -202 OFFCURVE",
"1179 -205 CURVE SMOOTH",
"1119 -227 OFFCURVE",
"880 -310 OFFCURVE",
"621 -310 CURVE SMOOTH",
"429 -310 OFFCURVE",
"319 -219 OFFCURVE",
"319 -69 CURVE SMOOTH",
"319 -24 OFFCURVE",
"328 10 OFFCURVE",
"405 340 CURVE SMOOTH",
"409 355 OFFCURVE",
"400 370 OFFCURVE",
"384 373 CURVE SMOOTH",
"313 389 LINE SMOOTH",
"297 392 OFFCURVE",
"286 385 OFFCURVE",
"281 370 CURVE SMOOTH",
"194 14 OFFCURVE",
"180 -41 OFFCURVE",
"180 -133 CURVE SMOOTH",
"180 -337 OFFCURVE",
"282 -524 OFFCURVE",
"581 -524 CURVE SMOOTH"
);
}
);
width = 1604;
}
);
unicode = FEDE;
},
{
glyphname = "lam-ar.medi";
lastChange = "2016-03-15 13:21:37 +0000";
layers = (
{
anchors = (
{
name = bottom;
position = "{337, -171}";
},
{
name = top;
position = "{311, 1722}";
}
);
layerId = "93A312F7-B931-4485-B08E-C367313EB5E7";
name = SemiLight;
paths = (
{
closed = 1;
nodes = (
"46 0 LINE SMOOTH",
"144 0 OFFCURVE",
"277 40 OFFCURVE",
"355 107 CURVE SMOOTH",
"363 114 OFFCURVE",
"371 114 OFFCURVE",
"378 107 CURVE SMOOTH",
"430 61 OFFCURVE",
"497 0 OFFCURVE",
"656 0 CURVE SMOOTH",
"722 0 LINE",
"770 60 OFFCURVE",
"770 119 OFFCURVE",
"722 179 CURVE",
"656 179 LINE SMOOTH",
"601 179 OFFCURVE",
"496 201 OFFCURVE",
"424 223 CURVE SMOOTH",
"415 226 OFFCURVE",
"411 233 OFFCURVE",
"411 243 CURVE SMOOTH",
"391 1528 LINE SMOOTH",
"391 1543 OFFCURVE",
"382 1547 OFFCURVE",
"370 1539 CURVE SMOOTH",
"240 1447 LINE SMOOTH",
"233 1442 OFFCURVE",
"230 1435 OFFCURVE",
"230 1425 CURVE SMOOTH",
"286 239 LINE SMOOTH",
"286 230 OFFCURVE",
"283 223 OFFCURVE",
"274 220 CURVE SMOOTH",
"215 200 OFFCURVE",
"131 179 OFFCURVE",
"46 179 CURVE SMOOTH",
"-20 179 LINE SMOOTH",
"-138 179 OFFCURVE",
"-138 0 OFFCURVE",
"-20 0 CURVE SMOOTH"
);
}
);
width = 702;
},
{
anchors = (
{
name = bottom;
position = "{337, -191}";
},
{
name = top;
position = "{311, 1732}";
}
);
layerId = "00FED3EE-B3F5-49E6-B91A-35FC52169726";
name = Regular;
paths = (
{
closed = 1;
nodes = (
"46 0 LINE SMOOTH",
"155 0 OFFCURVE",
"288 46 OFFCURVE",
"362 109 CURVE SMOOTH",
"366 113 OFFCURVE",
"368 113 OFFCURVE",
"371 110 CURVE SMOOTH",
"461 31 OFFCURVE",
"531 0 OFFCURVE",
"656 0 CURVE SMOOTH",
"727 0 LINE",
"755 33 OFFCURVE",
"768 66 OFFCURVE",
"768 100 CURVE SMOOTH",
"768 133 OFFCURVE",
"755 166 OFFCURVE",
"727 199 CURVE",
"656 199 LINE SMOOTH",
"602 199 OFFCURVE",
"498 221 OFFCURVE",
"427 243 CURVE SMOOTH",
"423 244 OFFCURVE",
"421 247 OFFCURVE",
"421 253 CURVE SMOOTH",
"401 1538 LINE SMOOTH",
"401 1554 OFFCURVE",
"393 1563 OFFCURVE",
"381 1563 CURVE SMOOTH",
"376 1563 OFFCURVE",
"370 1561 OFFCURVE",
"364 1557 CURVE SMOOTH",
"234 1465 LINE SMOOTH",
"225 1458 OFFCURVE",
"220 1448 OFFCURVE",
"220 1435 CURVE SMOOTH",
"276 249 LINE SMOOTH",
"276 243 OFFCURVE",
"275 241 OFFCURVE",
"271 239 CURVE SMOOTH",
"193 213 OFFCURVE",
"114 199 OFFCURVE",
"46 199 CURVE SMOOTH",
"-20 199 LINE SMOOTH",
"-86 199 OFFCURVE",
"-118 149 OFFCURVE",
"-118 100 CURVE SMOOTH",
"-118 50 OFFCURVE",
"-86 0 OFFCURVE",
"-20 0 CURVE SMOOTH"
);
}
);
width = 703;
}
);
unicode = FEE0;
},
{
glyphname = "lam-ar.init";
lastChange = "2016-03-27 02:14:10 +0000";
layers = (
{
anchors = (
{
name = bottom;
position = "{148, -173}";
},
{
name = top;
position = "{241, 1727}";
}
);
layerId = "93A312F7-B931-4485-B08E-C367313EB5E7";
name = SemiLight;
paths = (
{
closed = 1;
nodes = (
"46 0 LINE SMOOTH",
"311 0 OFFCURVE",
"420 100 OFFCURVE",
"401 373 CURVE SMOOTH",
"323 1529 LINE SMOOTH",
"322 1543 OFFCURVE",
"314 1548 OFFCURVE",
"302 1540 CURVE SMOOTH",
"171 1447 LINE SMOOTH",
"164 1442 OFFCURVE",
"160 1435 OFFCURVE",
"161 1425 CURVE SMOOTH",
"298 240 LINE SMOOTH",
"299 230 OFFCURVE",
"296 223 OFFCURVE",
"285 220 CURVE SMOOTH",
"222 200 OFFCURVE",
"109 179 OFFCURVE",
"46 179 CURVE SMOOTH",
"-20 179 LINE SMOOTH",
"-138 179 OFFCURVE",
"-138 0 OFFCURVE",
"-20 0 CURVE SMOOTH"
);
}
);
width = 542;
},
{
anchors = (
{
name = bottom;
position = "{178, -193}";
},
{
name = top;
position = "{241, 1737}";
}
);
layerId = "00FED3EE-B3F5-49E6-B91A-35FC52169726";
name = Regular;
paths = (
{
closed = 1;
nodes = (
"46 0 LINE SMOOTH",
"303 0 OFFCURVE",
"413 95 OFFCURVE",
"413 325 CURVE",
"333 1540 LINE",
"332 1555 OFFCURVE",
"324 1564 OFFCURVE",
"313 1564 CURVE SMOOTH",
"308 1564 OFFCURVE",
"302 1562 OFFCURVE",
"296 1558 CURVE SMOOTH",
"165 1465 LINE SMOOTH",
"155 1458 OFFCURVE",
"150 1447 OFFCURVE",
"151 1434 CURVE SMOOTH",
"288 249 LINE SMOOTH",
"289 243 OFFCURVE",
"287 241 OFFCURVE",
"282 240 CURVE SMOOTH",
"220 220 OFFCURVE",
"108 199 OFFCURVE",
"46 199 CURVE SMOOTH",
"-20 199 LINE SMOOTH",
"-86 199 OFFCURVE",
"-118 149 OFFCURVE",
"-118 100 CURVE SMOOTH",
"-118 50 OFFCURVE",
"-86 0 OFFCURVE",
"-20 0 CURVE SMOOTH"
);
}
);
width = 553;
}
);
leftKerningGroup = all;
unicode = FEDF;
},
{
glyphname = "meem-ar";
lastChange = "2016-03-27 02:11:46 +0000";
layers = (
{
anchors = (
{
name = bottom;
position = "{298, -957}";
},
{
name = top;
position = "{638, 1056}";
}
);
layerId = "93A312F7-B931-4485-B08E-C367313EB5E7";
name = SemiLight;
paths = (
{
closed = 1;
nodes = (
"356 -619 LINE SMOOTH",
"366 -615 OFFCURVE",
"368 -608 OFFCURVE",
"367 -598 CURVE SMOOTH",
"285 35 LINE SMOOTH",
"282 55 OFFCURVE",
"291 69 OFFCURVE",
"311 76 CURVE SMOOTH",
"523 148 OFFCURVE",
"802 159 OFFCURVE",
"1034 138 CURVE SMOOTH",
"1055 136 OFFCURVE",
"1067 147 OFFCURVE",
"1072 168 CURVE SMOOTH",
"1109 335 LINE SMOOTH",
"1112 350 OFFCURVE",
"1113 361 OFFCURVE",
"1113 376 CURVE SMOOTH",
"1112 424 OFFCURVE",
"1097 477 OFFCURVE",
"1071 528 CURVE SMOOTH",
"980 710 OFFCURVE",
"766 882 OFFCURVE",
"636 882 CURVE SMOOTH",
"406 882 OFFCURVE",
"340 631 OFFCURVE",
"339 454 CURVE SMOOTH",
"338 250 LINE",
"243 198 OFFCURVE",
"162 94 OFFCURVE",
"175 -137 CURVE SMOOTH",
"205 -660 LINE SMOOTH",
"206 -673 OFFCURVE",
"214 -678 OFFCURVE",
"226 -673 CURVE SMOOTH"
);
},
{
closed = 1;
nodes = (
"489 294 OFFCURVE",
"474 301 OFFCURVE",
"468 323 CURVE SMOOTH",
"436 434 LINE SMOOTH",
"431 451 OFFCURVE",
"432 462 OFFCURVE",
"437 478 CURVE SMOOTH",
"467 568 OFFCURVE",
"519 685 OFFCURVE",
"615 685 CURVE SMOOTH",
"757 685 OFFCURVE",
"920 513 OFFCURVE",
"1014 316 CURVE",
"837 330 OFFCURVE",
"668 328 OFFCURVE",
"509 298 CURVE SMOOTH"
);
}
);
width = 1251;
},
{
anchors = (
{
name = bottom;
position = "{314, -847}";
},
{
name = top;
position = "{654, 1096}";
}
);
layerId = "00FED3EE-B3F5-49E6-B91A-35FC52169726";
name = Regular;
paths = (
{
closed = 1;
nodes = (
"376 -618 LINE",
"389 -613 OFFCURVE",
"395 -603 OFFCURVE",
"393 -587 CURVE SMOOTH",
"311 46 LINE SMOOTH",
"309 62 OFFCURVE",
"315 71 OFFCURVE",
"330 77 CURVE SMOOTH",
"480 127 OFFCURVE",
"662 148 OFFCURVE",
"838 148 CURVE SMOOTH",
"911 148 OFFCURVE",
"982 144 OFFCURVE",
"1049 138 CURVE SMOOTH",
"1074 136 OFFCURVE",
"1092 149 OFFCURVE",
"1098 176 CURVE SMOOTH",
"1126 293 OFFCURVE",
"1139 351 OFFCURVE",
"1139 386 CURVE SMOOTH",
"1135 590 OFFCURVE",
"848 902 OFFCURVE",
"652 902 CURVE SMOOTH",
"414 902 OFFCURVE",
"346 642 OFFCURVE",
"345 464 CURVE SMOOTH",
"344 266 LINE",
"234 203 OFFCURVE",
"180 89 OFFCURVE",
"180 -80 CURVE",
"211 -651 LINE",
"213 -666 OFFCURVE",
"226 -679 OFFCURVE",
"238 -675 CURVE"
);
},
{
closed = 1;
nodes = (
"553 317 OFFCURVE",
"515 317 CURVE SMOOTH",
"504 317 OFFCURVE",
"497 323 OFFCURVE",
"494 336 CURVE SMOOTH",
"464 441 OFFCURVE",
"459 454 OFFCURVE",
"459 464 CURVE SMOOTH",
"459 470 OFFCURVE",
"460 477 OFFCURVE",
"463 485 CURVE SMOOTH",
"507 619 OFFCURVE",
"562 685 OFFCURVE",
"631 685 CURVE SMOOTH",
"753 685 OFFCURVE",
"909 545 OFFCURVE",
"1010 343 CURVE SMOOTH",
"1011 340 OFFCURVE",
"1010 337 OFFCURVE",
"1006 337 CURVE SMOOTH",
"942 342 OFFCURVE",
"881 344 OFFCURVE",
"823 344 CURVE SMOOTH",
"622 344 OFFCURVE"
);
}
);
width = 1279;
}
);
leftKerningGroup = all;
unicode = 0645;
},
{
glyphname = "meem-ar.fina";
lastChange = "2016-03-15 13:33:47 +0000";
layers = (
{
anchors = (
{
name = bottom;
position = "{337, -956}";
},
{
name = top;
position = "{883, 837}";
}
);
layerId = "93A312F7-B931-4485-B08E-C367313EB5E7";
name = SemiLight;
paths = (
{
closed = 1;
nodes = (
"378 -629 LINE SMOOTH",
"387 -625 OFFCURVE",
"392 -618 OFFCURVE",
"391 -608 CURVE SMOOTH",
"290 244 LINE SMOOTH",
"289 253 OFFCURVE",
"295 259 OFFCURVE",
"302 265 CURVE SMOOTH",
"353 308 OFFCURVE",
"409 340 OFFCURVE",
"463 359 CURVE SMOOTH",
"484 366 OFFCURVE",
"496 354 OFFCURVE",
"496 339 CURVE SMOOTH",
"496 110 OFFCURVE",
"564 -125 OFFCURVE",
"753 -212 CURVE SMOOTH",
"867 -263 OFFCURVE",
"910 -235 OFFCURVE",
"991 -112 CURVE SMOOTH",
"1128 95 LINE SMOOTH",
"1135 106 OFFCURVE",
"1143 106 OFFCURVE",
"1152 98 CURVE SMOOTH",
"1228 30 OFFCURVE",
"1323 0 OFFCURVE",
"1458 0 CURVE SMOOTH",
"1478 0 LINE",
"1526 60 OFFCURVE",
"1526 119 OFFCURVE",
"1478 179 CURVE",
"1412 179 LINE SMOOTH",
"1181 179 OFFCURVE",
"1067 429 OFFCURVE",
"972 620 CURVE SMOOTH",
"954 657 OFFCURVE",
"925 669 OFFCURVE",
"883 662 CURVE SMOOTH",
"314 564 OFFCURVE",
"153 358 OFFCURVE",
"174 86 CURVE SMOOTH",
"233 -670 LINE SMOOTH",
"234 -684 OFFCURVE",
"241 -689 OFFCURVE",
"254 -683 CURVE SMOOTH"
);
},
{
closed = 1;
nodes = (
"770 -56 OFFCURVE",
"596 106 OFFCURVE",
"596 371 CURVE SMOOTH",
"596 392 OFFCURVE",
"604 401 OFFCURVE",
"613 405 CURVE SMOOTH",
"692 437 OFFCURVE",
"776 461 OFFCURVE",
"868 474 CURVE SMOOTH",
"877 475 OFFCURVE",
"885 471 OFFCURVE",
"890 462 CURVE SMOOTH",
"938 369 OFFCURVE",
"990 281 OFFCURVE",
"1042 220 CURVE SMOOTH",
"1048 213 OFFCURVE",
"1051 205 OFFCURVE",
"1047 197 CURVE SMOOTH",
"917 -56 LINE SMOOTH",
"911 -68 OFFCURVE",
"906 -70 OFFCURVE",
"896 -69 CURVE SMOOTH"
);
}
);
width = 1458;
},
{
anchors = (
{
name = bottom;
position = "{345, -856}";
},
{
name = top;
position = "{891, 897}";
}
);
layerId = "00FED3EE-B3F5-49E6-B91A-35FC52169726";
name = Regular;
paths = (
{
closed = 1;
nodes = (
"400 -628 LINE",
"413 -622 OFFCURVE",
"420 -611 OFFCURVE",
"419 -597 CURVE SMOOTH",
"318 255 LINE SMOOTH",
"318 258 OFFCURVE",
"319 259 OFFCURVE",
"327 267 CURVE SMOOTH",
"366 306 OFFCURVE",
"461 361 OFFCURVE",
"492 361 CURVE SMOOTH",
"500 361 OFFCURVE",
"504 357 OFFCURVE",
"504 349 CURVE SMOOTH",
"504 70 OFFCURVE",
"599 -134 OFFCURVE",
"767 -211 CURVE SMOOTH",
"804 -228 OFFCURVE",
"834 -237 OFFCURVE",
"861 -237 CURVE SMOOTH",
"917 -237 OFFCURVE",
"958 -198 OFFCURVE",
"1017 -107 CURVE SMOOTH",
"1154 99 LINE SMOOTH",
"1157 104 OFFCURVE",
"1158 105 OFFCURVE",
"1163 101 CURVE SMOOTH",
"1241 31 OFFCURVE",
"1338 0 OFFCURVE",
"1476 0 CURVE SMOOTH",
"1501 0 LINE",
"1529 33 OFFCURVE",
"1542 66 OFFCURVE",
"1542 100 CURVE SMOOTH",
"1542 133 OFFCURVE",
"1529 166 OFFCURVE",
"1501 199 CURVE",
"1430 199 LINE SMOOTH",
"1205 199 OFFCURVE",
"1094 443 OFFCURVE",
"999 634 CURVE",
"985 663 OFFCURVE",
"946 686 OFFCURVE",
"899 682 CURVE",
"408 597 OFFCURVE",
"180 427 OFFCURVE",
"180 139 CURVE",
"241 -661 LINE",
"242 -677 OFFCURVE",
"255 -687 OFFCURVE",
"267 -685 CURVE"
);
},
{
closed = 1;
nodes = (
"792 -36 OFFCURVE",
"624 120 OFFCURVE",
"624 381 CURVE SMOOTH",
"624 395 OFFCURVE",
"627 402 OFFCURVE",
"635 406 CURVE SMOOTH",
"719 440 OFFCURVE",
"802 462 OFFCURVE",
"887 474 CURVE SMOOTH",
"893 475 OFFCURVE",
"896 473 OFFCURVE",
"899 467 CURVE SMOOTH",
"955 359 OFFCURVE",
"1006 278 OFFCURVE",
"1052 224 CURVE",
"1054 221 OFFCURVE",
"1055 217 OFFCURVE",
"1053 211 CURVE",
"926 -41 LINE SMOOTH",
"922 -48 OFFCURVE",
"922 -49 OFFCURVE",
"915 -49 CURVE SMOOTH"
);
}
);
width = 1477;
}
);
unicode = FEE2;
},
{
glyphname = "meem-ar.medi";
lastChange = "2016-04-12 17:41:20 +0000";
layers = (
{
anchors = (
{
name = bottom;
position = "{662, -200}";
},
{
name = top;
position = "{742, 999}";
}
);
layerId = "93A312F7-B931-4485-B08E-C367313EB5E7";
name = SemiLight;
paths = (
{
closed = 1;
nodes = (
"923 -27 OFFCURVE",
"976 26 OFFCURVE",
"1028 129 CURVE",
"1091 37 OFFCURVE",
"1195 0 OFFCURVE",
"1274 0 CURVE SMOOTH",
"1340 0 LINE",
"1388 60 OFFCURVE",
"1388 119 OFFCURVE",
"1340 179 CURVE",
"1320 179 LINE SMOOTH",
"1121 179 OFFCURVE",
"1053 284 OFFCURVE",
"1013 374 CURVE SMOOTH",
"861 719 LINE SMOOTH",
"839 770 OFFCURVE",
"782 865 OFFCURVE",
"695 845 CURVE SMOOTH",
"478 795 OFFCURVE",
"287 494 OFFCURVE",
"248 229 CURVE SMOOTH",
"247 220 OFFCURVE",
"241 215 OFFCURVE",
"232 212 CURVE SMOOTH",
"181 195 OFFCURVE",
"101 179 OFFCURVE",
"0 179 CURVE SMOOTH",
"-20 179 LINE SMOOTH",
"-138 179 OFFCURVE",
"-138 0 OFFCURVE",
"-20 0 CURVE SMOOTH",
"0 0 LINE SMOOTH",
"132 0 OFFCURVE",
"212 22 OFFCURVE",
"290 99 CURVE SMOOTH",
"296 105 OFFCURVE",
"304 107 OFFCURVE",
"313 105 CURVE SMOOTH",
"744 12 LINE SMOOTH"
);
},
{
closed = 1;
nodes = (
"371 285 LINE SMOOTH",
"361 288 OFFCURVE",
"356 294 OFFCURVE",
"359 306 CURVE SMOOTH",
"413 494 OFFCURVE",
"564 613 OFFCURVE",
"679 657 CURVE SMOOTH",
"697 664 OFFCURVE",
"703 646 OFFCURVE",
"705 642 CURVE SMOOTH",
"922 169 LINE SMOOTH",
"928 156 OFFCURVE",
"921 148 OFFCURVE",
"907 151 CURVE SMOOTH"
);
}
);
width = 1320;
},
{
anchors = (
{
name = bottom;
position = "{662, -190}";
},
{
name = top;
position = "{722, 1079}";
}
);
layerId = "00FED3EE-B3F5-49E6-B91A-35FC52169726";
name = Regular;
paths = (
{
closed = 1;
nodes = (
"313 106 OFFCURVE",
"766 -1 OFFCURVE",
"845 -1 CURVE SMOOTH",
"945 -1 OFFCURVE",
"990 47 OFFCURVE",
"1029 120 CURVE",
"1087 46 OFFCURVE",
"1180 0 OFFCURVE",
"1274 0 CURVE SMOOTH",
"1345 0 LINE",
"1373 33 OFFCURVE",
"1386 66 OFFCURVE",
"1386 100 CURVE SMOOTH",
"1386 133 OFFCURVE",
"1373 166 OFFCURVE",
"1345 199 CURVE",
"1320 199 LINE SMOOTH",
"1126 199 OFFCURVE",
"1062 299 OFFCURVE",
"1022 388 CURVE SMOOTH",
"870 733 LINE SMOOTH",
"841 802 OFFCURVE",
"790 872 OFFCURVE",
"693 865 CURVE",
"472 814 OFFCURVE",
"277 508 OFFCURVE",
"238 240 CURVE SMOOTH",
"238 236 OFFCURVE",
"236 234 OFFCURVE",
"229 231 CURVE SMOOTH",
"167 211 OFFCURVE",
"85 199 OFFCURVE",
"0 199 CURVE SMOOTH",
"-20 199 LINE SMOOTH",
"-86 199 OFFCURVE",
"-118 149 OFFCURVE",
"-118 100 CURVE SMOOTH",
"-118 50 OFFCURVE",
"-86 0 OFFCURVE",
"-20 0 CURVE SMOOTH",
"0 0 LINE SMOOTH",
"142 0 OFFCURVE",
"221 27 OFFCURVE",
"297 102 CURVE SMOOTH",
"300 105 OFFCURVE",
"302 106 OFFCURVE",
"306 106 CURVE SMOOTH"
);
},
{
closed = 1;
nodes = (
"373 305 LINE SMOOTH",
"368 306 OFFCURVE",
"367 308 OFFCURVE",
"369 314 CURVE SMOOTH",
"422 498 OFFCURVE",
"569 614 OFFCURVE",
"683 658 CURVE SMOOTH",
"689 660 OFFCURVE",
"691 658 OFFCURVE",
"696 648 CURVE SMOOTH",
"911 179 LINE SMOOTH",
"912 176 OFFCURVE",
"910 171 OFFCURVE",
"905 172 CURVE SMOOTH"
);
}
);
width = 1321;
}
);
unicode = FEE4;
},
{
glyphname = "meem-ar.init";
lastChange = "2016-03-27 02:14:35 +0000";
layers = (
{
anchors = (
{
name = bottom;
position = "{619, -230}";
},
{
name = top;
position = "{751, 1011}";
}
);
layerId = "93A312F7-B931-4485-B08E-C367313EB5E7";
name = SemiLight;
paths = (
{
closed = 1;
nodes = (
"46 0 LINE SMOOTH",
"141 0 OFFCURVE",
"236 72 OFFCURVE",
"351 216 CURVE",
"419 147 OFFCURVE",
"426 130 OFFCURVE",
"742 32 CURVE SMOOTH",
"858 -4 OFFCURVE",
"931 -25 OFFCURVE",
"1022 68 CURVE SMOOTH",
"1075 122 OFFCURVE",
"1104 200 OFFCURVE",
"1083 311 CURVE SMOOTH",
"1033 574 OFFCURVE",
"933 838 OFFCURVE",
"751 838 CURVE SMOOTH",
"516 838 OFFCURVE",
"407 546 OFFCURVE",
"277 351 CURVE SMOOTH",
"184 213 OFFCURVE",
"131 179 OFFCURVE",
"0 179 CURVE SMOOTH",
"-20 179 LINE SMOOTH",
"-138 179 OFFCURVE",
"-138 0 OFFCURVE",
"-20 0 CURVE SMOOTH"
);
},
{
closed = 1;
nodes = (
"429 329 LINE SMOOTH",
"419 333 OFFCURVE",
"414 340 OFFCURVE",
"420 351 CURVE SMOOTH",
"469 442 OFFCURVE",
"562 638 OFFCURVE",
"703 638 CURVE SMOOTH",
"836 638 OFFCURVE",
"898 387 OFFCURVE",
"944 184 CURVE SMOOTH",
"947 170 OFFCURVE",
"932 149 OFFCURVE",
"915 155 CURVE SMOOTH"
);
}
);
width = 1265;
},
{
anchors = (
{
name = bottom;
position = "{619, -180}";
},
{
name = top;
position = "{751, 1051}";
}
);
layerId = "00FED3EE-B3F5-49E6-B91A-35FC52169726";
name = Regular;
paths = (
{
closed = 1;
nodes = (
"46 0 LINE SMOOTH",
"139 0 OFFCURVE",
"234 65 OFFCURVE",
"352 211 CURVE",
"412 150 OFFCURVE",
"432 128 OFFCURVE",
"739 32 CURVE SMOOTH",
"793 15 OFFCURVE",
"839 1 OFFCURVE",
"883 1 CURVE SMOOTH",
"1001 1 OFFCURVE",
"1100 121 OFFCURVE",
"1100 253 CURVE SMOOTH",
"1100 485 OFFCURVE",
"949 858 OFFCURVE",
"751 858 CURVE SMOOTH",
"509 858 OFFCURVE",
"398 561 OFFCURVE",
"269 367 CURVE SMOOTH",
"177 230 OFFCURVE",
"127 199 OFFCURVE",
"0 199 CURVE SMOOTH",
"-20 199 LINE SMOOTH",
"-86 199 OFFCURVE",
"-118 149 OFFCURVE",
"-118 100 CURVE SMOOTH",
"-118 50 OFFCURVE",
"-86 0 OFFCURVE",
"-20 0 CURVE SMOOTH"
);
},
{
closed = 1;
nodes = (
"432 348 LINE",
"426 351 OFFCURVE",
"427 352 OFFCURVE",
"429 356 CURVE SMOOTH",
"478 447 OFFCURVE",
"568 638 OFFCURVE",
"703 638 CURVE SMOOTH",
"828 638 OFFCURVE",
"888 395 OFFCURVE",
"934 192 CURVE SMOOTH",
"936 184 OFFCURVE",
"928 174 OFFCURVE",
"920 174 CURVE"
);
}
);
width = 1240;
}
);
leftKerningGroup = all;
unicode = FEE3;
},
{
glyphname = "noonghunna-ar";
lastChange = "2016-03-15 13:42:06 +0000";
layers = (
{
anchors = (
{
name = bottom;
position = "{734, -704}";
},
{
name = top;
position = "{707, 422}";
}
);
layerId = "93A312F7-B931-4485-B08E-C367313EB5E7";
name = SemiLight;
paths = (
{
closed = 1;
nodes = (
"818 -531 OFFCURVE",
"1196 -427 OFFCURVE",
"1316 -271 CURVE SMOOTH",
"1370 -201 OFFCURVE",
"1366 -125 OFFCURVE",
"1349 6 CURVE SMOOTH",
"1278 569 LINE SMOOTH",
"1276 588 OFFCURVE",
"1259 593 OFFCURVE",
"1245 583 CURVE SMOOTH",
"1134 501 LINE SMOOTH",
"1130 498 OFFCURVE",
"1128 492 OFFCURVE",
"1129 486 CURVE SMOOTH",
"1236 -177 LINE SMOOTH",
"1237 -184 OFFCURVE",
"1232 -190 OFFCURVE",
"1226 -194 CURVE SMOOTH",
"1167 -233 OFFCURVE",
"929 -330 OFFCURVE",
"619 -330 CURVE SMOOTH",
"393 -330 OFFCURVE",
"249 -215 OFFCURVE",
"305 61 CURVE SMOOTH",
"339 228 LINE SMOOTH",
"341 239 OFFCURVE",
"334 246 OFFCURVE",
"323 248 CURVE SMOOTH",
"250 259 LINE SMOOTH",
"240 261 OFFCURVE",
"232 255 OFFCURVE",
"230 245 CURVE SMOOTH",
"189 38 LINE SMOOTH",
"131 -254 OFFCURVE",
"223 -531 OFFCURVE",
"591 -531 CURVE SMOOTH"
);
}
);
width = 1497;
},
{
anchors = (
{
name = bottom;
position = "{751, -724}";
},
{
name = top;
position = "{724, 432}";
}
);
layerId = "00FED3EE-B3F5-49E6-B91A-35FC52169726";
name = Regular;
paths = (
{
closed = 1;
nodes = (
"836 -531 OFFCURVE",
"1219 -426 OFFCURVE",
"1341 -267 CURVE SMOOTH",
"1375 -222 OFFCURVE",
"1387 -175 OFFCURVE",
"1387 -114 CURVE SMOOTH",
"1387 -56 OFFCURVE",
"1381 -17 OFFCURVE",
"1305 580 CURVE SMOOTH",
"1303 598 OFFCURVE",
"1291 608 OFFCURVE",
"1276 608 CURVE SMOOTH",
"1270 608 OFFCURVE",
"1263 606 OFFCURVE",
"1256 601 CURVE SMOOTH",
"1145 519 LINE SMOOTH",
"1139 515 OFFCURVE",
"1136 506 OFFCURVE",
"1136 498 CURVE",
"1243 -169 LINE",
"1243 -170 OFFCURVE",
"1242 -173 OFFCURVE",
"1237 -176 CURVE SMOOTH",
"1179 -214 OFFCURVE",
"944 -310 OFFCURVE",
"636 -310 CURVE SMOOTH",
"429 -310 OFFCURVE",
"320 -215 OFFCURVE",
"320 -40 CURVE SMOOTH",
"320 16 OFFCURVE",
"327 43 OFFCURVE",
"366 236 CURVE SMOOTH",
"369 252 OFFCURVE",
"359 265 OFFCURVE",
"342 268 CURVE SMOOTH",
"268 279 LINE SMOOTH",
"254 281 OFFCURVE",
"240 273 OFFCURVE",
"237 257 CURVE SMOOTH",
"188 10 OFFCURVE",
"180 -20 OFFCURVE",
"180 -104 CURVE SMOOTH",
"180 -337 OFFCURVE",
"299 -531 OFFCURVE",
"608 -531 CURVE SMOOTH"
);
}
);
width = 1527;
}
);
unicode = 06BA;
},
{
glyphname = "noonghunna-ar.fina";
lastChange = "2016-03-15 13:43:10 +0000";
layers = (
{
anchors = (
{
name = bottom;
position = "{736, -704}";
},
{
name = top;
position = "{709, 422}";
}
);
layerId = "93A312F7-B931-4485-B08E-C367313EB5E7";
name = SemiLight;
paths = (
{
closed = 1;
nodes = (
"820 -531 OFFCURVE",
"1199 -427 OFFCURVE",
"1318 -271 CURVE SMOOTH",
"1367 -208 OFFCURVE",
"1368 -170 OFFCURVE",
"1346 62 CURVE",
"1397 22 OFFCURVE",
"1451 0 OFFCURVE",
"1620 0 CURVE SMOOTH",
"1686 0 LINE",
"1734 60 OFFCURVE",
"1734 119 OFFCURVE",
"1686 179 CURVE",
"1620 179 LINE SMOOTH",
"1397 179 OFFCURVE",
"1333 198 OFFCURVE",
"1306 365 CURVE",
"1295 490 LINE SMOOTH",
"1293 508 OFFCURVE",
"1276 514 OFFCURVE",
"1262 504 CURVE SMOOTH",
"1152 422 LINE SMOOTH",
"1148 419 OFFCURVE",
"1145 413 OFFCURVE",
"1146 407 CURVE SMOOTH",
"1238 -177 LINE SMOOTH",
"1239 -184 OFFCURVE",
"1236 -191 OFFCURVE",
"1229 -194 CURVE SMOOTH",
"1146 -233 OFFCURVE",
"931 -330 OFFCURVE",
"621 -330 CURVE SMOOTH",
"384 -330 OFFCURVE",
"249 -215 OFFCURVE",
"307 61 CURVE SMOOTH",
"342 228 LINE SMOOTH",
"344 239 OFFCURVE",
"336 246 OFFCURVE",
"325 248 CURVE SMOOTH",
"252 259 LINE SMOOTH",
"243 260 OFFCURVE",
"234 255 OFFCURVE",
"232 245 CURVE SMOOTH",
"191 38 LINE SMOOTH",
"133 -254 OFFCURVE",
"202 -531 OFFCURVE",
"593 -531 CURVE SMOOTH"
);
}
);
width = 1666;
},
{
anchors = (
{
name = bottom;
position = "{753, -724}";
},
{
name = top;
position = "{726, 432}";
}
);
layerId = "00FED3EE-B3F5-49E6-B91A-35FC52169726";
name = Regular;
paths = (
{
closed = 1;
nodes = (
"838 -531 OFFCURVE",
"1222 -426 OFFCURVE",
"1343 -267 CURVE SMOOTH",
"1374 -227 OFFCURVE",
"1387 -196 OFFCURVE",
"1387 -124 CURVE SMOOTH",
"1387 -82 OFFCURVE",
"1382 -27 OFFCURVE",
"1375 51 CURVE",
"1423 18 OFFCURVE",
"1486 0 OFFCURVE",
"1637 0 CURVE SMOOTH",
"1708 0 LINE",
"1736 33 OFFCURVE",
"1749 66 OFFCURVE",
"1749 100 CURVE SMOOTH",
"1749 133 OFFCURVE",
"1736 166 OFFCURVE",
"1708 199 CURVE",
"1637 199 LINE SMOOTH",
"1415 199 OFFCURVE",
"1359 216 OFFCURVE",
"1333 377 CURVE",
"1322 501 LINE SMOOTH",
"1320 518 OFFCURVE",
"1307 529 OFFCURVE",
"1293 529 CURVE SMOOTH",
"1286 529 OFFCURVE",
"1280 527 OFFCURVE",
"1273 522 CURVE SMOOTH",
"1163 440 LINE SMOOTH",
"1157 436 OFFCURVE",
"1153 426 OFFCURVE",
"1153 418 CURVE",
"1245 -169 LINE",
"1246 -172 OFFCURVE",
"1244 -174 OFFCURVE",
"1242 -175 CURVE SMOOTH",
"1159 -214 OFFCURVE",
"946 -310 OFFCURVE",
"638 -310 CURVE SMOOTH",
"429 -310 OFFCURVE",
"321 -220 OFFCURVE",
"321 -47 CURVE SMOOTH",
"321 13 OFFCURVE",
"328 44 OFFCURVE",
"369 236 CURVE SMOOTH",
"372 252 OFFCURVE",
"361 265 OFFCURVE",
"344 268 CURVE SMOOTH",
"270 279 LINE SMOOTH",
"255 281 OFFCURVE",
"242 271 OFFCURVE",
"239 257 CURVE SMOOTH",
"190 6 OFFCURVE",
"180 -30 OFFCURVE",
"180 -123 CURVE SMOOTH",
"180 -386 OFFCURVE",
"329 -531 OFFCURVE",
"610 -531 CURVE SMOOTH"
);
}
);
width = 1684;
}
);
unicode = FB9F;
},
{
glyphname = "heh-ar";
lastChange = "2016-04-12 01:22:32 +0000";
layers = (
{
anchors = (
{
name = bottom;
position = "{443, -228}";
},
{
name = top;
position = "{419, 1066}";
}
);
layerId = "93A312F7-B931-4485-B08E-C367313EB5E7";
name = SemiLight;
paths = (
{
closed = 1;
nodes = (
"668 -56 OFFCURVE",
"856 148 OFFCURVE",
"897 384 CURVE SMOOTH",
"928 560 OFFCURVE",
"658 748 OFFCURVE",
"438 884 CURVE SMOOTH",
"423 893 OFFCURVE",
"408 889 OFFCURVE",
"399 875 CURVE SMOOTH",
"276 661 OFFCURVE",
"179 485 OFFCURVE",
"172 286 CURVE SMOOTH",
"165 88 OFFCURVE",
"269 -56 OFFCURVE",
"446 -56 CURVE SMOOTH"
);
},
{
closed = 1;
nodes = (
"362 125 OFFCURVE",
"275 210 OFFCURVE",
"271 343 CURVE SMOOTH",
"269 439 OFFCURVE",
"312 538 OFFCURVE",
"384 663 CURVE SMOOTH",
"393 679 OFFCURVE",
"407 681 OFFCURVE",
"423 672 CURVE SMOOTH",
"587 586 OFFCURVE",
"688 499 OFFCURVE",
"789 402 CURVE SMOOTH",
"800 391 OFFCURVE",
"800 378 OFFCURVE",
"795 365 CURVE SMOOTH",
"736 210 OFFCURVE",
"607 120 OFFCURVE",
"466 123 CURVE SMOOTH"
);
}
);
width = 999;
},
{
anchors = (
{
name = bottom;
position = "{481, -258}";
},
{
name = top;
position = "{434, 1116}";
}
);
layerId = "00FED3EE-B3F5-49E6-B91A-35FC52169726";
name = Regular;
paths = (
{
closed = 1;
nodes = (
"694 -56 OFFCURVE",
"928 194 OFFCURVE",
"928 422 CURVE SMOOTH",
"928 595 OFFCURVE",
"669 773 OFFCURVE",
"461 903 CURVE SMOOTH",
"454 907 OFFCURVE",
"447 909 OFFCURVE",
"440 909 CURVE SMOOTH",
"428 909 OFFCURVE",
"416 902 OFFCURVE",
"409 890 CURVE SMOOTH",
"282 670 OFFCURVE",
"180 488 OFFCURVE",
"180 278 CURVE SMOOTH",
"180 78 OFFCURVE",
"292 -56 OFFCURVE",
"464 -56 CURVE SMOOTH"
);
},
{
closed = 1;
nodes = (
"382 143 OFFCURVE",
"299 232 OFFCURVE",
"299 359 CURVE SMOOTH",
"299 451 OFFCURVE",
"341 546 OFFCURVE",
"411 668 CURVE SMOOTH",
"415 674 OFFCURVE",
"419 677 OFFCURVE",
"424 677 CURVE SMOOTH",
"427 677 OFFCURVE",
"431 676 OFFCURVE",
"436 673 CURVE SMOOTH",
"599 588 OFFCURVE",
"699 502 OFFCURVE",
"800 405 CURVE SMOOTH",
"804 401 OFFCURVE",
"806 396 OFFCURVE",
"806 390 CURVE SMOOTH",
"806 387 OFFCURVE",
"806 383 OFFCURVE",
"804 379 CURVE SMOOTH",
"748 233 OFFCURVE",
"628 143 OFFCURVE",
"491 143 CURVE SMOOTH"
);
}
);
width = 1068;
}
);
leftKerningGroup = all;
unicode = 0647;
},
{
glyphname = "heh-ar.fina";
lastChange = "2016-03-15 13:44:44 +0000";
layers = (
{
anchors = (
{
name = bottom;
position = "{505, -164}";
},
{
name = top;
position = "{696, 1271}";
}
);
layerId = "93A312F7-B931-4485-B08E-C367313EB5E7";
name = SemiLight;
paths = (
{
closed = 1;
nodes = (
"1150 0 LINE",
"1198 60 OFFCURVE",
"1198 119 OFFCURVE",
"1150 179 CURVE",
"1084 179 LINE SMOOTH",
"928 179 OFFCURVE",
"847 240 OFFCURVE",
"831 414 CURVE SMOOTH",
"770 1091 LINE SMOOTH",
"769 1104 OFFCURVE",
"760 1109 OFFCURVE",
"749 1102 CURVE SMOOTH",
"627 1022 LINE SMOOTH",
"620 1017 OFFCURVE",
"616 1011 OFFCURVE",
"618 1000 CURVE SMOOTH",
"650 802 LINE SMOOTH",
"652 792 OFFCURVE",
"647 784 OFFCURVE",
"638 780 CURVE SMOOTH",
"411 666 OFFCURVE",
"193 494 OFFCURVE",
"173 212 CURVE SMOOTH",
"172 204 OFFCURVE",
"174 184 OFFCURVE",
"176 176 CURVE SMOOTH",
"199 75 OFFCURVE",
"389 49 OFFCURVE",
"552 54 CURVE SMOOTH",
"705 59 OFFCURVE",
"735 123 OFFCURVE",
"754 198 CURVE",
"810 57 OFFCURVE",
"910 0 OFFCURVE",
"1084 0 CURVE SMOOTH"
);
},
{
closed = 1;
nodes = (
"574 210 OFFCURVE",
"358 235 OFFCURVE",
"263 297 CURVE SMOOTH",
"258 300 OFFCURVE",
"256 307 OFFCURVE",
"261 317 CURVE SMOOTH",
"315 429 OFFCURVE",
"466 553 OFFCURVE",
"657 638 CURVE SMOOTH",
"668 643 OFFCURVE",
"675 638 OFFCURVE",
"677 627 CURVE SMOOTH",
"730 263 LINE SMOOTH",
"732 252 OFFCURVE",
"727 247 OFFCURVE",
"716 244 CURVE SMOOTH"
);
}
);
width = 1130;
},
{
anchors = (
{
name = bottom;
position = "{522, -184}";
},
{
name = top;
position = "{713, 1301}";
}
);
layerId = "00FED3EE-B3F5-49E6-B91A-35FC52169726";
name = Regular;
paths = (
{
closed = 1;
nodes = (
"1172 0 LINE",
"1200 33 OFFCURVE",
"1213 66 OFFCURVE",
"1213 100 CURVE SMOOTH",
"1213 133 OFFCURVE",
"1200 166 OFFCURVE",
"1172 199 CURVE",
"1101 199 LINE SMOOTH",
"943 199 OFFCURVE",
"873 264 OFFCURVE",
"858 425 CURVE SMOOTH",
"797 1102 LINE SMOOTH",
"796 1117 OFFCURVE",
"787 1125 OFFCURVE",
"776 1125 CURVE SMOOTH",
"771 1125 OFFCURVE",
"766 1124 OFFCURVE",
"761 1120 CURVE SMOOTH",
"639 1040 LINE SMOOTH",
"629 1033 OFFCURVE",
"625 1024 OFFCURVE",
"625 1014 CURVE",
"657 810 LINE",
"658 805 OFFCURVE",
"656 802 OFFCURVE",
"651 799 CURVE SMOOTH",
"352 649 OFFCURVE",
"197 460 OFFCURVE",
"180 223 CURVE SMOOTH",
"180 86 OFFCURVE",
"351 53 OFFCURVE",
"527 53 CURVE SMOOTH",
"648 53 OFFCURVE",
"738 70 OFFCURVE",
"773 178 CURVE",
"832 54 OFFCURVE",
"932 0 OFFCURVE",
"1101 0 CURVE SMOOTH"
);
},
{
closed = 1;
nodes = (
"687 254 OFFCURVE",
"638 249 OFFCURVE",
"587 249 CURVE SMOOTH",
"471 249 OFFCURVE",
"350 273 OFFCURVE",
"286 315 CURVE SMOOTH",
"285 316 OFFCURVE",
"284 317 OFFCURVE",
"287 323 CURVE SMOOTH",
"341 434 OFFCURVE",
"491 556 OFFCURVE",
"678 639 CURVE SMOOTH",
"682 641 OFFCURVE",
"683 641 OFFCURVE",
"684 635 CURVE SMOOTH",
"737 272 LINE SMOOTH",
"738 267 OFFCURVE",
"738 266 OFFCURVE",
"730 264 CURVE SMOOTH"
);
}
);
width = 1148;
}
);
unicode = FEEA;
},
{
glyphname = "heh-ar.medi";
lastChange = "2016-03-15 13:45:48 +0000";
layers = (
{
anchors = (
{
name = bottom;
position = "{576, -718}";
},
{
name = top;
position = "{635, 1195}";
}
);
layerId = "93A312F7-B931-4485-B08E-C367313EB5E7";
name = SemiLight;
paths = (
{
closed = 1;
nodes = (
"804 -562 OFFCURVE",
"819 -556 OFFCURVE",
"822 -546 CURVE SMOOTH",
"901 -246 OFFCURVE",
"802 -86 OFFCURVE",
"719 -8 CURVE SMOOTH",
"714 -4 OFFCURVE",
"726 0 OFFCURVE",
"741 0 CURVE SMOOTH",
"977 0 LINE",
"1025 60 OFFCURVE",
"1025 119 OFFCURVE",
"977 179 CURVE",
"911 179 LINE SMOOTH",
"802 179 OFFCURVE",
"735 169 OFFCURVE",
"618 158 CURVE SMOOTH",
"603 157 OFFCURVE",
"599 162 OFFCURVE",
"611 173 CURVE SMOOTH",
"834 375 OFFCURVE",
"799 428 OFFCURVE",
"781 895 CURVE SMOOTH",
"781 906 OFFCURVE",
"776 912 OFFCURVE",
"768 916 CURVE SMOOTH",
"644 986 LINE SMOOTH",
"636 991 OFFCURVE",
"628 991 OFFCURVE",
"620 984 CURVE SMOOTH",
"381 784 OFFCURVE",
"237 521 OFFCURVE",
"161 194 CURVE SMOOTH",
"159 184 OFFCURVE",
"153 179 OFFCURVE",
"143 179 CURVE SMOOTH",
"-20 179 LINE SMOOTH",
"-138 179 OFFCURVE",
"-138 0 OFFCURVE",
"-20 0 CURVE SMOOTH",
"137 0 LINE SMOOTH",
"147 0 OFFCURVE",
"154 -7 OFFCURVE",
"155 -18 CURVE SMOOTH",
"192 -365 OFFCURVE",
"450 -572 OFFCURVE",
"793 -562 CURVE SMOOTH"
);
},
{
closed = 1;
nodes = (
"515 -388 OFFCURVE",
"320 -197 OFFCURVE",
"307 -2 CURVE SMOOTH",
"306 9 OFFCURVE",
"313 15 OFFCURVE",
"324 15 CURVE SMOOTH",
"552 8 OFFCURVE",
"716 -163 OFFCURVE",
"766 -362 CURVE SMOOTH",
"769 -374 OFFCURVE",
"764 -382 OFFCURVE",
"751 -382 CURVE SMOOTH"
);
},
{
closed = 1;
nodes = (
"307 174 OFFCURVE",
"297 177 OFFCURVE",
"299 191 CURVE SMOOTH",
"334 415 OFFCURVE",
"458 623 OFFCURVE",
"610 760 CURVE SMOOTH",
"619 768 OFFCURVE",
"626 762 OFFCURVE",
"627 747 CURVE SMOOTH",
"650 323 OFFCURVE",
"650 339 OFFCURVE",
"626 322 CURVE SMOOTH",
"526 250 OFFCURVE",
"424 206 OFFCURVE",
"319 177 CURVE SMOOTH"
);
}
);
width = 957;
},
{
anchors = (
{
name = bottom;
position = "{576, -768}";
},
{
name = top;
position = "{615, 1195}";
}
);
layerId = "00FED3EE-B3F5-49E6-B91A-35FC52169726";
name = Regular;
paths = (
{
closed = 1;
nodes = (
"810 -562 OFFCURVE",
"828 -552 OFFCURVE",
"832 -539 CURVE SMOOTH",
"852 -461 OFFCURVE",
"863 -389 OFFCURVE",
"863 -323 CURVE SMOOTH",
"863 -192 OFFCURVE",
"821 -86 OFFCURVE",
"734 -4 CURVE SMOOTH",
"730 -1 OFFCURVE",
"735 0 OFFCURVE",
"741 0 CURVE SMOOTH",
"982 0 LINE",
"1010 33 OFFCURVE",
"1023 66 OFFCURVE",
"1023 100 CURVE SMOOTH",
"1023 133 OFFCURVE",
"1010 166 OFFCURVE",
"982 199 CURVE",
"911 199 LINE SMOOTH",
"801 199 OFFCURVE",
"739 191 OFFCURVE",
"622 167 CURVE SMOOTH",
"617 166 OFFCURVE",
"617 169 OFFCURVE",
"621 172 CURVE SMOOTH",
"772 309 OFFCURVE",
"806 383 OFFCURVE",
"806 553 CURVE SMOOTH",
"806 639 OFFCURVE",
"797 750 OFFCURVE",
"791 905 CURVE SMOOTH",
"791 918 OFFCURVE",
"785 929 OFFCURVE",
"772 935 CURVE SMOOTH",
"773 935 LINE SMOOTH",
"649 1005 LINE SMOOTH",
"644 1008 OFFCURVE",
"638 1010 OFFCURVE",
"633 1010 CURVE SMOOTH",
"626 1010 OFFCURVE",
"619 1007 OFFCURVE",
"613 1002 CURVE SMOOTH",
"381 807 OFFCURVE",
"231 548 OFFCURVE",
"151 206 CURVE SMOOTH",
"150 201 OFFCURVE",
"148 199 OFFCURVE",
"143 199 CURVE SMOOTH",
"-20 199 LINE SMOOTH",
"-86 199 OFFCURVE",
"-118 149 OFFCURVE",
"-118 100 CURVE SMOOTH",
"-118 50 OFFCURVE",
"-86 0 OFFCURVE",
"-20 0 CURVE SMOOTH",
"137 0 LINE SMOOTH",
"142 0 OFFCURVE",
"144 -3 OFFCURVE",
"145 -9 CURVE SMOOTH",
"181 -375 OFFCURVE",
"378 -562 OFFCURVE",
"763 -562 CURVE SMOOTH",
"773 -562 OFFCURVE",
"783 -562 OFFCURVE",
"793 -562 CURVE SMOOTH"
);
},
{
closed = 1;
nodes = (
"483 -368 OFFCURVE",
"330 -213 OFFCURVE",
"317 19 CURVE SMOOTH",
"317 23 OFFCURVE",
"318 25 OFFCURVE",
"324 25 CURVE SMOOTH",
"569 19 OFFCURVE",
"702 -110 OFFCURVE",
"756 -354 CURVE SMOOTH",
"758 -361 OFFCURVE",
"757 -362 OFFCURVE",
"751 -362 CURVE SMOOTH"
);
},
{
closed = 1;
nodes = (
"308 185 OFFCURVE",
"308 186 OFFCURVE",
"309 190 CURVE SMOOTH",
"342 399 OFFCURVE",
"452 615 OFFCURVE",
"613 760 CURVE SMOOTH",
"615 762 OFFCURVE",
"617 763 OFFCURVE",
"617 756 CURVE",
"635 382 LINE",
"635 343 OFFCURVE",
"628 336 OFFCURVE",
"620 330 CURVE SMOOTH",
"530 265 OFFCURVE",
"432 219 OFFCURVE",
"316 187 CURVE SMOOTH"
);
}
);
width = 958;
}
);
unicode = FEEC;
},
{
glyphname = "heh-ar.init";
lastChange = "2016-03-27 02:14:35 +0000";
layers = (
{
anchors = (
{
name = bottom;
position = "{651, -97}";
},
{
name = top;
position = "{711, 1264}";
}
);
layerId = "93A312F7-B931-4485-B08E-C367313EB5E7";
name = SemiLight;
paths = (
{
closed = 1;
nodes = (
"46 0 LINE SMOOTH",
"224 0 OFFCURVE",
"490 79 OFFCURVE",
"615 168 CURVE SMOOTH",
"623 173 OFFCURVE",
"630 175 OFFCURVE",
"638 173 CURVE SMOOTH",
"1219 35 LINE SMOOTH",
"1229 33 OFFCURVE",
"1237 36 OFFCURVE",
"1241 46 CURVE SMOOTH",
"1401 473 OFFCURVE",
"1293 711 OFFCURVE",
"744 1090 CURVE SMOOTH",
"735 1096 OFFCURVE",
"725 1095 OFFCURVE",
"720 1086 CURVE SMOOTH",
"660 982 LINE SMOOTH",
"656 975 OFFCURVE",
"651 970 OFFCURVE",
"643 967 CURVE SMOOTH",
"460 896 OFFCURVE",
"271 611 OFFCURVE",
"269 413 CURVE SMOOTH",
"268 337 OFFCURVE",
"286 283 OFFCURVE",
"331 231 CURVE SMOOTH",
"340 221 OFFCURVE",
"338 211 OFFCURVE",
"325 208 CURVE SMOOTH",
"274 195 OFFCURVE",
"209 179 OFFCURVE",
"46 179 CURVE SMOOTH",
"-20 179 LINE SMOOTH",
"-138 179 OFFCURVE",
"-138 0 OFFCURVE",
"-20 0 CURVE SMOOTH"
);
},
{
closed = 1;
nodes = (
"369 357 OFFCURVE",
"327 499 OFFCURVE",
"420 660 CURVE SMOOTH",
"529 851 OFFCURVE",
"735 828 OFFCURVE",
"812 697 CURVE SMOOTH",
"817 689 OFFCURVE",
"815 682 OFFCURVE",
"811 674 CURVE SMOOTH",
"634 331 LINE SMOOTH",
"630 323 OFFCURVE",
"622 320 OFFCURVE",
"612 321 CURVE SMOOTH"
);
},
{
closed = 1;
nodes = (
"800 325 LINE SMOOTH",
"790 328 OFFCURVE",
"785 336 OFFCURVE",
"789 347 CURVE SMOOTH",
"915 718 LINE SMOOTH",
"919 730 OFFCURVE",
"928 730 OFFCURVE",
"938 723 CURVE SMOOTH",
"1103 607 OFFCURVE",
"1222 408 OFFCURVE",
"1204 228 CURVE SMOOTH",
"1203 216 OFFCURVE",
"1194 211 OFFCURVE",
"1183 214 CURVE SMOOTH"
);
}
);
width = 1447;
},
{
anchors = (
{
name = bottom;
position = "{721, -187}";
},
{
name = top;
position = "{731, 1314}";
}
);
layerId = "00FED3EE-B3F5-49E6-B91A-35FC52169726";
name = Regular;
paths = (
{
closed = 1;
nodes = (
"46 0 LINE SMOOTH",
"225 0 OFFCURVE",
"493 79 OFFCURVE",
"621 170 CURVE SMOOTH",
"625 173 OFFCURVE",
"629 174 OFFCURVE",
"631 174 CURVE SMOOTH",
"633 174 OFFCURVE",
"635 173 OFFCURVE",
"636 173 CURVE SMOOTH",
"1217 35 LINE SMOOTH",
"1232 32 OFFCURVE",
"1245 39 OFFCURVE",
"1250 52 CURVE SMOOTH",
"1294 171 OFFCURVE",
"1318 275 OFFCURVE",
"1318 372 CURVE SMOOTH",
"1318 630 OFFCURVE",
"1149 832 OFFCURVE",
"750 1108 CURVE SMOOTH",
"744 1112 OFFCURVE",
"738 1114 OFFCURVE",
"732 1114 CURVE SMOOTH",
"724 1114 OFFCURVE",
"716 1109 OFFCURVE",
"711 1101 CURVE SMOOTH",
"651 997 LINE SMOOTH",
"648 991 OFFCURVE",
"645 988 OFFCURVE",
"639 986 CURVE SMOOTH",
"454 914 OFFCURVE",
"259 624 OFFCURVE",
"259 417 CURVE SMOOTH",
"259 341 OFFCURVE",
"278 287 OFFCURVE",
"323 234 CURVE SMOOTH",
"328 229 OFFCURVE",
"327 229 OFFCURVE",
"323 228 CURVE SMOOTH",
"272 215 OFFCURVE",
"208 199 OFFCURVE",
"46 199 CURVE SMOOTH",
"-20 199 LINE SMOOTH",
"-86 199 OFFCURVE",
"-118 149 OFFCURVE",
"-118 100 CURVE SMOOTH",
"-118 50 OFFCURVE",
"-86 0 OFFCURVE",
"-20 0 CURVE SMOOTH"
);
},
{
closed = 1;
nodes = (
"463 363 OFFCURVE",
"384 429 OFFCURVE",
"384 524 CURVE SMOOTH",
"384 649 OFFCURVE",
"502 801 OFFCURVE",
"633 801 CURVE SMOOTH",
"702 801 OFFCURVE",
"767 764 OFFCURVE",
"803 702 CURVE SMOOTH",
"806 698 OFFCURVE",
"806 695 OFFCURVE",
"802 688 CURVE SMOOTH",
"625 346 LINE SMOOTH",
"623 343 OFFCURVE",
"621 341 OFFCURVE",
"616 341 CURVE SMOOTH",
"615 341 OFFCURVE",
"614 341 OFFCURVE",
"613 341 CURVE SMOOTH"
);
},
{
closed = 1;
nodes = (
"803 345 LINE SMOOTH",
"798 346 OFFCURVE",
"797 349 OFFCURVE",
"798 354 CURVE SMOOTH",
"924 725 LINE SMOOTH",
"926 728 OFFCURVE",
"926 729 OFFCURVE",
"932 725 CURVE SMOOTH",
"1089 614 OFFCURVE",
"1204 426 OFFCURVE",
"1194 239 CURVE SMOOTH",
"1194 234 OFFCURVE",
"1191 232 OFFCURVE",
"1186 234 CURVE SMOOTH"
);
}
);
width = 1458;
}
);
leftKerningGroup = all;
unicode = FEEB;
},
{
glyphname = "hehgoal-ar.fina";
lastChange = "2016-03-15 13:47:29 +0000";
layers = (
{
anchors = (
{
name = bottom;
position = "{608, -177}";
},
{
name = top;
position = "{662, 582}";
}
);
layerId = "93A312F7-B931-4485-B08E-C367313EB5E7";
name = SemiLight;
paths = (
{
closed = 1;
nodes = (
"227 -92 OFFCURVE",
"236 -91 OFFCURVE",
"244 -82 CURVE SMOOTH",
"530 236 OFFCURVE",
"580 255 OFFCURVE",
"598 255 CURVE SMOOTH",
"685 255 OFFCURVE",
"900 0 OFFCURVE",
"1137 0 CURVE SMOOTH",
"1259 0 LINE",
"1307 60 OFFCURVE",
"1307 119 OFFCURVE",
"1259 179 CURVE",
"1193 179 LINE SMOOTH",
"1070 179 OFFCURVE",
"980 230 OFFCURVE",
"899 283 CURVE SMOOTH",
"808 343 OFFCURVE",
"728 407 OFFCURVE",
"662 409 CURVE SMOOTH",
"560 413 OFFCURVE",
"440 279 OFFCURVE",
"178 -28 CURVE SMOOTH",
"171 -37 OFFCURVE",
"170 -45 OFFCURVE",
"179 -53 CURVE SMOOTH",
"218 -85 LINE SMOOTH"
);
}
);
width = 1239;
},
{
anchors = (
{
name = bottom;
position = "{626, -197}";
},
{
name = top;
position = "{680, 632}";
}
);
layerId = "00FED3EE-B3F5-49E6-B91A-35FC52169726";
name = Regular;
paths = (
{
closed = 1;
nodes = (
"236 -87 OFFCURVE",
"242 -90 OFFCURVE",
"248 -90 CURVE SMOOTH",
"256 -90 OFFCURVE",
"263 -86 OFFCURVE",
"269 -79 CURVE SMOOTH",
"464 138 OFFCURVE",
"585 255 OFFCURVE",
"616 255 CURVE SMOOTH",
"698 255 OFFCURVE",
"914 0 OFFCURVE",
"1155 0 CURVE SMOOTH",
"1282 0 LINE",
"1310 33 OFFCURVE",
"1323 66 OFFCURVE",
"1323 100 CURVE SMOOTH",
"1323 133 OFFCURVE",
"1310 166 OFFCURVE",
"1282 199 CURVE",
"1211 199 LINE SMOOTH",
"1091 199 OFFCURVE",
"1003 249 OFFCURVE",
"922 301 CURVE SMOOTH",
"830 362 OFFCURVE",
"746 429 OFFCURVE",
"675 429 CURVE SMOOTH",
"570 429 OFFCURVE",
"446 292 OFFCURVE",
"188 -12 CURVE SMOOTH",
"183 -19 OFFCURVE",
"180 -25 OFFCURVE",
"180 -31 CURVE SMOOTH",
"180 -38 OFFCURVE",
"184 -44 OFFCURVE",
"190 -50 CURVE SMOOTH",
"230 -83 LINE SMOOTH"
);
}
);
width = 1258;
}
);
unicode = FBA7;
},
{
glyphname = "hehgoal-ar.medi";
lastChange = "2016-03-15 13:53:17 +0000";
layers = (
{
anchors = (
{
name = bottom;
position = "{690, -839}";
},
{
name = top;
position = "{621, 747}";
}
);
layerId = "93A312F7-B931-4485-B08E-C367313EB5E7";
name = SemiLight;
paths = (
{
closed = 1;
nodes = (
"880 -469 LINE SMOOTH",
"885 -462 OFFCURVE",
"887 -454 OFFCURVE",
"883 -446 CURVE SMOOTH",
"819 -331 OFFCURVE",
"774 -216 OFFCURVE",
"750 -101 CURVE SMOOTH",
"748 -91 OFFCURVE",
"750 -84 OFFCURVE",
"760 -79 CURVE SMOOTH",
"879 -26 OFFCURVE",
"1002 0 OFFCURVE",
"1242 0 CURVE SMOOTH",
"1262 0 LINE",
"1310 60 OFFCURVE",
"1310 119 OFFCURVE",
"1262 179 CURVE",
"1242 179 LINE SMOOTH",
"798 178 OFFCURVE",
"592 76 OFFCURVE",
"691 -368 CURVE",
"605 -153 OFFCURVE",
"550 -3 OFFCURVE",
"555 243 CURVE",
"576 544 LINE SMOOTH",
"577 557 OFFCURVE",
"569 562 OFFCURVE",
"558 561 CURVE SMOOTH",
"492 553 LINE SMOOTH",
"482 552 OFFCURVE",
"476 546 OFFCURVE",
"475 536 CURVE SMOOTH",
"454 354 LINE SMOOTH",
"433 175 OFFCURVE",
"182 179 OFFCURVE",
"51 179 CURVE SMOOTH",
"-20 179 LINE SMOOTH",
"-138 179 OFFCURVE",
"-138 0 OFFCURVE",
"-20 0 CURVE SMOOTH",
"44 0 LINE SMOOTH",
"168 0 OFFCURVE",
"324 13 OFFCURVE",
"440 117 CURVE",
"407 -227 OFFCURVE",
"623 -522 OFFCURVE",
"710 -658 CURVE SMOOTH",
"717 -669 OFFCURVE",
"726 -670 OFFCURVE",
"734 -659 CURVE SMOOTH"
);
}
);
width = 1242;
},
{
anchors = (
{
name = bottom;
position = "{730, -869}";
},
{
name = top;
position = "{523, 778}";
}
);
layerId = "00FED3EE-B3F5-49E6-B91A-35FC52169726";
name = Regular;
paths = (
{
closed = 1;
nodes = (
"650 105 OFFCURVE",
"659 -286 CURVE",
"599 -133 OFFCURVE",
"565 31 OFFCURVE",
"565 223 CURVE SMOOTH",
"565 267 OFFCURVE",
"568 302 OFFCURVE",
"586 553 CURVE SMOOTH",
"587 571 OFFCURVE",
"576 583 OFFCURVE",
"557 581 CURVE SMOOTH",
"491 573 LINE SMOOTH",
"476 571 OFFCURVE",
"467 562 OFFCURVE",
"465 547 CURVE SMOOTH",
"444 365 LINE SMOOTH",
"424 195 OFFCURVE",
"182 199 OFFCURVE",
"51 199 CURVE SMOOTH",
"-20 199 LINE SMOOTH",
"-86 199 OFFCURVE",
"-118 149 OFFCURVE",
"-118 100 CURVE SMOOTH",
"-118 50 OFFCURVE",
"-86 0 OFFCURVE",
"-20 0 CURVE SMOOTH",
"44 0 LINE SMOOTH",
"162 0 OFFCURVE",
"312 12 OFFCURVE",
"428 104 CURVE",
"416 -234 OFFCURVE",
"627 -521 OFFCURVE",
"712 -653 CURVE SMOOTH",
"717 -662 OFFCURVE",
"725 -667 OFFCURVE",
"733 -667 CURVE SMOOTH",
"739 -667 OFFCURVE",
"746 -663 OFFCURVE",
"752 -655 CURVE SMOOTH",
"878 -465 LINE SMOOTH",
"882 -459 OFFCURVE",
"885 -452 OFFCURVE",
"885 -445 CURVE SMOOTH",
"885 -440 OFFCURVE",
"884 -436 OFFCURVE",
"882 -432 CURVE SMOOTH",
"821 -317 OFFCURVE",
"771 -215 OFFCURVE",
"759 -87 CURVE SMOOTH",
"759 -83 OFFCURVE",
"758 -81 OFFCURVE",
"764 -78 CURVE SMOOTH",
"882 -26 OFFCURVE",
"1003 0 OFFCURVE",
"1242 0 CURVE SMOOTH",
"1267 0 LINE",
"1295 33 OFFCURVE",
"1308 66 OFFCURVE",
"1308 100 CURVE SMOOTH",
"1308 133 OFFCURVE",
"1295 166 OFFCURVE",
"1267 199 CURVE",
"1242 199 LINE SMOOTH",
"826 199 OFFCURVE"
);
}
);
width = 1243;
}
);
unicode = FBA9;
},
